EncodeSansSemiCondensed-Regular.ufo
<glyph name="exclam" format="2">
  <advance width="475.2626262626262"/>
  <unicode hex="0021"/>
  <outline>
    <contour>
      <point x="188.15656565656565" y="372.7272727272727" type="line"/>
      <point x="288.28787878787875" y="372.7272727272727" type="line"/>
      <point x="321.16666666666663" y="917.8383838383838" type="line"/>
      <point x="321.16666666666663" y="1480.0" type="line"/>
      <point x="154.0959595959596" y="1480.0" type="line"/>
      <point x="154.0959595959596" y="917.8383838383838" type="line"/>
    </contour>
    <contour>
      <point x="237.6313131313131" y="-12.626262626262625" type="curve" smooth="yes"/>
      <point x="304.48989898989896" y="-12.626262626262625"/>
      <point x="350.8434343434343" y="30.151515151515138"/>
      <point x="350.8434343434343" y="95.07070707070704" type="curve" smooth="yes"/>
      <point x="350.8434343434343" y="159.98989898989896"/>
      <point x="305.540404040404" y="204.2424242424242"/>
      <point x="237.6313131313131" y="204.2424242424242" type="curve" smooth="yes"/>
      <point x="169.72222222222223" y="204.2424242424242"/>
      <point x="124.41919191919193" y="161.04040404040398"/>
      <point x="124.41919191919193" y="95.07070707070704" type="curve" smooth="yes"/>
      <point x="124.41919191919193" y="29.10101010101009"/>
      <point x="170.77272727272728" y="-12.626262626262625"/>
    </contour>
  </outline>
</glyph>
<glyph name="quotedbl" format="2">
  <advance width="715.6161616161615"/>
  <unicode hex="0022"/>
  <outline>
    <contour>
      <point x="150.15656565656568" y="916.3434343434344" type="line"/>
      <point x="245.30808080808077" y="916.3434343434344" type="line"/>
      <point x="279.88383838383834" y="1616.0" type="line"/>
      <point x="115.5808080808081" y="1616.0" type="line"/>
    </contour>
    <contour>
      <point x="470.3080808080808" y="916.3434343434344" type="line"/>
      <point x="565.4595959595958" y="916.3434343434344" type="line"/>
      <point x="600.0353535353535" y="1616.0" type="line"/>
      <point x="435.7323232323232" y="1616.0" type="line"/>
    </contour>
  </outline>
</glyph>
<glyph name="numbersign" format="2">
  <advance width="1105.151515151515"/>
  <unicode hex="0023"/>
  <outline>
    <contour>
      <point x="597.3787878787879" y="0.0" type="line"/>
      <point x="726.0151515151515" y="0.0" type="line"/>
      <point x="865.0151515151515" y="1480.0" type="line"/>
      <point x="736.3787878787879" y="1480.0" type="line"/>
    </contour>
    <contour>
      <point x="95.0" y="460.1212121212121" type="line"/>
      <point x="1010.1515151515151" y="460.1212121212121" type="line"/>
      <point x="1010.1515151515151" y="587.8383838383838" type="line"/>
      <point x="95.0" y="587.8383838383838" type="line"/>
    </contour>
    <contour>
      <point x="240.13636363636365" y="0.0" type="line"/>
      <point x="368.77272727272725" y="0.0" type="line"/>
      <point x="507.77272727272725" y="1480.0" type="line"/>
      <point x="379.1363636363636" y="1480.0" type="line"/>
    </contour>
    <contour>
      <point x="95.0" y="892.1616161616162" type="line"/>
      <point x="1010.1515151515151" y="892.1616161616162" type="line"/>
      <point x="1010.1515151515151" y="1019.8787878787879" type="line"/>
      <point x="95.0" y="1019.8787878787879" type="line"/>
    </contour>
  </outline>
</glyph>
<glyph name="percent" format="2">
  <advance width="1760.2070707070707"/>
  <unicode hex="0025"/>
  <note>
450
</note>
  <outline>
    <contour>
      <point x="512.3989898989898" y="0.0" type="line"/>
      <point x="648.3434343434343" y="0.0" type="line"/>
      <point x="1247.8080808080808" y="1480.0" type="line"/>
      <point x="1111.8636363636363" y="1480.0" type="line"/>
    </contour>
    <contour>
      <point x="420.16666666666663" y="574.8484848484849" type="curve" smooth="yes"/>
      <point x="613.0454545454545" y="574.8484848484849"/>
      <point x="746.4141414141413" y="703.5656565656566"/>
      <point x="746.4141414141413" y="1036.8181818181818" type="curve" smooth="yes"/>
      <point x="746.4141414141413" y="1370.0707070707072"/>
      <point x="614.8888888888889" y="1498.5252525252524"/>
      <point x="420.16666666666663" y="1498.5252525252524" type="curve" smooth="yes"/>
      <point x="225.44444444444446" y="1498.5252525252524"/>
      <point x="93.91919191919193" y="1370.0707070707072"/>
      <point x="93.91919191919193" y="1036.8181818181818" type="curve" smooth="yes"/>
      <point x="93.91919191919193" y="703.5656565656566"/>
      <point x="227.28787878787878" y="574.8484848484849"/>
    </contour>
    <contour>
      <point x="420.16666666666663" y="686.8535353535353" type="curve" smooth="yes"/>
      <point x="304.9949494949495" y="686.8535353535353"/>
      <point x="226.60101010101005" y="770.3787878787879"/>
      <point x="226.60101010101005" y="1038.2929292929293" type="curve" smooth="yes"/>
      <point x="226.60101010101005" y="1303.9949494949494"/>
      <point x="304.9949494949495" y="1386.520202020202"/>
      <point x="420.16666666666663" y="1386.520202020202" type="curve" smooth="yes"/>
      <point x="534.969696969697" y="1386.520202020202"/>
      <point x="613.7323232323232" y="1303.9949494949494"/>
      <point x="613.7323232323232" y="1035.3434343434344" type="curve" smooth="yes"/>
      <point x="613.7323232323232" y="768.9040404040404"/>
      <point x="534.969696969697" y="686.8535353535353"/>
    </contour>
    <contour>
      <point x="1340.040404040404" y="-18.0" type="curve" smooth="yes"/>
      <point x="1534.0252525252524" y="-18.0"/>
      <point x="1666.2878787878788" y="110.71717171717171"/>
      <point x="1666.2878787878788" y="443.96969696969694" type="curve" smooth="yes"/>
      <point x="1666.2878787878788" y="777.2222222222222"/>
      <point x="1533.6565656565656" y="905.6767676767677"/>
      <point x="1340.040404040404" y="905.6767676767677" type="curve" smooth="yes"/>
      <point x="1146.4242424242423" y="905.6767676767677"/>
      <point x="1013.7929292929292" y="777.2222222222222"/>
      <point x="1013.7929292929292" y="443.96969696969694" type="curve" smooth="yes"/>
      <point x="1013.7929292929292" y="110.71717171717171"/>
      <point x="1146.0555555555554" y="-18.0"/>
    </contour>
    <contour>
      <point x="1340.040404040404" y="94.00505050505046" type="curve" smooth="yes"/>
      <point x="1225.2373737373737" y="94.00505050505046"/>
      <point x="1146.4747474747473" y="177.530303030303"/>
      <point x="1146.4747474747473" y="445.44444444444446" type="curve" smooth="yes"/>
      <point x="1146.4747474747473" y="711.1464646464647"/>
      <point x="1225.2373737373737" y="793.6717171717172"/>
      <point x="1340.040404040404" y="793.6717171717172" type="curve" smooth="yes"/>
      <point x="1454.8434343434342" y="793.6717171717172"/>
      <point x="1533.6060606060605" y="711.1464646464647"/>
      <point x="1533.6060606060605" y="442.4949494949495" type="curve" smooth="yes"/>
      <point x="1533.6060606060605" y="176.05555555555551"/>
      <point x="1454.8434343434342" y="94.00505050505046"/>
    </contour>
  </outline>
</glyph>
<glyph name="ampersand" format="2">
  <advance width="1405.8686868686868"/>
  <unicode hex="0026"/>
  <outline>
    <contour>
      <point x="1321.3989898989898" y="-20.0" type="line"/>
      <point x="1405.8686868686868" y="98.36363636363632" type="line"/>
      <point x="658.2323232323232" y="707.4292929292928" type="line" smooth="yes"/>
      <point x="480.4949494949494" y="859.0858585858585"/>
      <point x="433.16666666666663" y="948.1212121212121"/>
      <point x="433.16666666666663" y="1077.1464646464647" type="curve" smooth="yes"/>
      <point x="433.16666666666663" y="1261.479797979798"/>
      <point x="538.090909090909" y="1361.4848484848485"/>
      <point x="781.5101010101009" y="1361.4848484848485" type="curve" smooth="yes"/>
      <point x="852.1666666666666" y="1361.4848484848485"/>
      <point x="922.7323232323232" y="1353.9343434343434"/>
      <point x="995.4747474747475" y="1335.1666666666667" type="curve"/>
      <point x="995.4747474747475" y="1473.6818181818182" type="line"/>
      <point x="929.2727272727273" y="1489.0252525252524"/>
      <point x="855.2272727272727" y="1498.5252525252524"/>
      <point x="774.5050505050505" y="1498.5252525252524" type="curve" smooth="yes"/>
      <point x="437.97474747474746" y="1498.5252525252524"/>
      <point x="271.8737373737374" y="1345.2828282828282"/>
      <point x="271.8737373737374" y="1077.090909090909" type="curve" smooth="yes"/>
      <point x="271.8737373737374" y="907.0"/>
      <point x="341.6666666666667" y="779.5606060606061"/>
      <point x="573.7626262626263" y="589.0656565656566" type="curve" smooth="yes"/>
    </contour>
    <contour>
      <point x="634.2171717171717" y="-18.0" type="curve" smooth="yes"/>
      <point x="973.2070707070707" y="-18.0"/>
      <point x="1181.4545454545455" y="167.38888888888889"/>
      <point x="1181.4545454545455" y="531.4292929292928" type="curve" smooth="yes"/>
      <point x="1181.4545454545455" y="614.8585858585858"/>
      <point x="1170.2171717171716" y="710.969696969697"/>
      <point x="1145.8181818181818" y="798.3434343434343" type="curve"/>
      <point x="1008.8484848484849" y="798.3434343434343" type="line"/>
      <point x="1034.3535353535353" y="710.969696969697"/>
      <point x="1047.5656565656566" y="613.5959595959596"/>
      <point x="1047.5656565656566" y="529.6414141414141" type="curve" smooth="yes"/>
      <point x="1047.5656565656566" y="228.7424242424242"/>
      <point x="891.9242424242425" y="107.61616161616158"/>
      <point x="648.429292929293" y="107.61616161616158" type="curve" smooth="yes"/>
      <point x="411.28282828282823" y="107.61616161616158"/>
      <point x="288.78282828282823" y="230.2373737373737"/>
      <point x="288.78282828282823" y="420.8181818181818" type="curve" smooth="yes"/>
      <point x="288.78282828282823" y="558.9141414141415"/>
      <point x="351.12121212121207" y="661.5808080808081"/>
      <point x="472.4646464646464" y="728.2272727272727" type="curve"/>
      <point x="390.6363636363636" y="810.3333333333334" type="line"/>
      <point x="228.23232323232324" y="735.2070707070707"/>
      <point x="128.2777777777778" y="592.4141414141415"/>
      <point x="128.2777777777778" y="403.7878787878788" type="curve" smooth="yes"/>
      <point x="128.2777777777778" y="150.21212121212122"/>
      <point x="306.8939393939394" y="-18.0"/>
    </contour>
  </outline>
</glyph>
<glyph name="quotesingle" format="2">
  <advance width="395.4646464646464"/>
  <unicode hex="0027"/>
  <outline>
    <contour>
      <point x="150.15656565656568" y="916.3434343434344" type="line"/>
      <point x="245.30808080808077" y="916.3434343434344" type="line"/>
      <point x="279.88383838383834" y="1616.0" type="line"/>
      <point x="115.5808080808081" y="1616.0" type="line"/>
    </contour>
  </outline>
</glyph>
<glyph name="parenleft" format="2">
  <advance width="619.6161616161615"/>
  <unicode hex="0028"/>
  <outline>
    <contour>
      <point x="432.3484848484849" y="-440.0" type="curve"/>
      <point x="595.6161616161615" y="-440.0" type="line"/>
      <point x="375.4747474747474" y="-132.8080808080808"/>
      <point x="278.78787878787875" y="211.04040404040404"/>
      <point x="278.78787878787875" y="588.0" type="curve" smooth="yes"/>
      <point x="278.78787878787875" y="964.959595959596"/>
      <point x="375.4747474747474" y="1308.8080808080808"/>
      <point x="595.6161616161615" y="1616.0" type="curve"/>
      <point x="432.3484848484849" y="1616.0" type="line"/>
      <point x="211.6868686868687" y="1319.7474747474748"/>
      <point x="115.7878787878788" y="971.2222222222222"/>
      <point x="115.7878787878788" y="588.0" type="curve" smooth="yes"/>
      <point x="115.7878787878788" y="204.77777777777777"/>
      <point x="211.6868686868687" y="-143.74747474747474"/>
    </contour>
  </outline>
</glyph>
<glyph name="parenright" format="2">
  <advance width="619.6161616161615"/>
  <unicode hex="0029"/>
  <outline>
    <contour>
      <point x="24.00000000000003" y="-440.0" type="curve"/>
      <point x="187.26767676767673" y="-440.0" type="line"/>
      <point x="407.9292929292929" y="-143.74747474747474"/>
      <point x="503.8282828282828" y="204.77777777777777"/>
      <point x="503.8282828282828" y="588.0" type="curve" smooth="yes"/>
      <point x="503.8282828282828" y="971.2222222222222"/>
      <point x="407.9292929292929" y="1319.7474747474748"/>
      <point x="187.26767676767673" y="1616.0" type="curve"/>
      <point x="24.00000000000003" y="1616.0" type="line"/>
      <point x="244.14141414141417" y="1308.8080808080808"/>
      <point x="340.82828282828285" y="964.959595959596"/>
      <point x="340.82828282828285" y="588.0" type="curve" smooth="yes"/>
      <point x="340.82828282828285" y="211.04040404040404"/>
      <point x="244.14141414141417" y="-132.8080808080808"/>
    </contour>
  </outline>
</glyph>
<glyph name="asterisk" format="2">
  <advance width="897.8989898989898"/>
  <unicode hex="002A"/>
  <outline>
    <contour>
      <point x="507.25252525252523" y="1184.6060606060607" type="line"/>
      <point x="703.5454545454545" y="1224.4646464646464" type="line"/>
      <point x="867.8989898989898" y="1277.6262626262626" type="line"/>
      <point x="831.2222222222222" y="1389.2323232323233" type="line"/>
      <point x="668.3434343434343" y="1335.6767676767677" type="line"/>
      <point x="484.25252525252523" y="1251.3737373737374" type="line"/>
      <point x="507.86868686868684" y="1452.090909090909" type="line"/>
      <point x="507.86868686868684" y="1616.0" type="line"/>
      <point x="390.030303030303" y="1616.0" type="line"/>
      <point x="390.030303030303" y="1452.090909090909" type="line"/>
      <point x="413.64646464646466" y="1251.3737373737374" type="line"/>
      <point x="229.55555555555554" y="1335.6767676767677" type="line"/>
      <point x="66.67676767676767" y="1389.2323232323233" type="line"/>
      <point x="30.0" y="1277.6262626262626" type="line"/>
      <point x="194.35353535353536" y="1224.4646464646464" type="line"/>
      <point x="390.64646464646466" y="1184.6060606060607" type="line"/>
      <point x="254.70707070707073" y="1036.4848484848485" type="line"/>
      <point x="156.06565656565658" y="901.8939393939394" type="line"/>
      <point x="251.66161616161614" y="832.2474747474748" type="line"/>
      <point x="350.30303030303025" y="966.7070707070708" type="line"/>
      <point x="448.9494949494949" y="1144.3838383838383" type="line"/>
      <point x="547.5959595959596" y="966.7070707070708" type="line"/>
      <point x="646.2373737373737" y="832.2474747474748" type="line"/>
      <point x="741.8333333333333" y="901.8939393939394" type="line"/>
      <point x="643.1919191919192" y="1036.4848484848485" type="line"/>
    </contour>
  </outline>
</glyph>
<glyph name="plus" format="2">
  <advance width="1048.7171717171718"/>
  <unicode hex="002B"/>
  <outline>
    <contour>
      <point x="456.8737373737374" y="359.0909090909091" type="line"/>
      <point x="591.8434343434343" y="359.0909090909091" type="line"/>
      <point x="591.8434343434343" y="695.6969696969697" type="line"/>
      <point x="911.2070707070707" y="695.6969696969697" type="line"/>
      <point x="911.2070707070707" y="824.3030303030303" type="line"/>
      <point x="591.8434343434343" y="824.3030303030303" type="line"/>
      <point x="591.8434343434343" y="1160.909090909091" type="line"/>
      <point x="456.8737373737374" y="1160.909090909091" type="line"/>
      <point x="456.8737373737374" y="824.3030303030303" type="line"/>
      <point x="137.510101010101" y="824.3030303030303" type="line"/>
      <point x="137.510101010101" y="695.6969696969697" type="line"/>
      <point x="456.8737373737374" y="695.6969696969697" type="line"/>
    </contour>
  </outline>
</glyph>
<glyph name="hyphen" format="2">
  <advance width="769.040404040404"/>
  <unicode hex="002D"/>
  <outline>
    <contour>
      <point x="137.510101010101" y="496.0909090909091" type="line"/>
      <point x="631.530303030303" y="496.0909090909091" type="line"/>
      <point x="631.530303030303" y="629.1616161616162" type="line"/>
      <point x="137.510101010101" y="629.1616161616162" type="line"/>
    </contour>
  </outline>
</glyph>
<glyph name="period" format="2">
  <advance width="435.2626262626262"/>
  <unicode hex="002E"/>
  <outline>
    <contour>
      <point x="217.6313131313131" y="-12.626262626262625" type="curve" smooth="yes"/>
      <point x="284.48989898989896" y="-12.626262626262625"/>
      <point x="330.8434343434343" y="30.676767676767664"/>
      <point x="330.8434343434343" y="97.56565656565652" type="curve" smooth="yes"/>
      <point x="330.8434343434343" y="164.45454545454538"/>
      <point x="285.540404040404" y="209.23232323232315"/>
      <point x="217.6313131313131" y="209.23232323232315" type="curve" smooth="yes"/>
      <point x="149.72222222222223" y="209.23232323232315"/>
      <point x="104.41919191919193" y="165.50505050505046"/>
      <point x="104.41919191919193" y="97.56565656565652" type="curve" smooth="yes"/>
      <point x="104.41919191919193" y="29.626262626262616"/>
      <point x="150.77272727272728" y="-12.626262626262625"/>
    </contour>
  </outline>
</glyph>
<glyph name="slash" format="2">
  <advance width="561.520202020202"/>
  <unicode hex="002F"/>
  <outline>
    <contour>
      <point x="0.0" y="-240.0" type="line"/>
      <point x="154.72222222222217" y="-240.0" type="line"/>
      <point x="561.520202020202" y="1616.0" type="line"/>
      <point x="406.7979797979798" y="1616.0" type="line"/>
    </contour>
  </outline>
</glyph>
<glyph name="zero" format="2">
  <advance width="1167.2929292929293"/>
  <unicode hex="0030"/>
  <note>
600
</note>
  <outline>
    <contour>
      <point x="583.5808080808081" y="-18.525252525252526" type="curve" smooth="yes"/>
      <point x="878.2626262626262" y="-18.525252525252526"/>
      <point x="1061.5050505050503" y="186.76767676767676"/>
      <point x="1061.5050505050503" y="740.0" type="curve" smooth="yes"/>
      <point x="1061.5050505050503" y="1293.2323232323233"/>
      <point x="880.4747474747475" y="1498.5252525252524"/>
      <point x="583.5808080808081" y="1498.5252525252524" type="curve" smooth="yes"/>
      <point x="286.6868686868687" y="1498.5252525252524"/>
      <point x="105.7878787878788" y="1293.2323232323233"/>
      <point x="105.7878787878788" y="740.0" type="curve" smooth="yes"/>
      <point x="105.7878787878788" y="186.76767676767676"/>
      <point x="288.8989898989899" y="-18.525252525252526"/>
    </contour>
    <contour>
      <point x="583.7121212121212" y="118.77777777777773" type="curve" smooth="yes"/>
      <point x="388.2373737373737" y="118.77777777777773"/>
      <point x="265.2424242424242" y="261.41414141414134"/>
      <point x="265.2424242424242" y="742.9494949494949" type="curve" smooth="yes"/>
      <point x="265.2424242424242" y="1218.5858585858587"/>
      <point x="388.49999999999994" y="1361.2222222222222"/>
      <point x="583.7121212121212" y="1361.2222222222222" type="curve" smooth="yes"/>
      <point x="778.7929292929293" y="1361.2222222222222"/>
      <point x="902.0505050505051" y="1218.5858585858587"/>
      <point x="902.0505050505051" y="737.0505050505051" type="curve" smooth="yes"/>
      <point x="902.0505050505051" y="261.41414141414134"/>
      <point x="778.7929292929293" y="118.77777777777773"/>
    </contour>
  </outline>
</glyph>
<glyph name="one" format="2">
  <advance width="664.6313131313132"/>
  <unicode hex="0031"/>
  <outline>
    <contour>
      <point x="339.64141414141415" y="0.0" type="line"/>
      <point x="498.2474747474747" y="0.0" type="line"/>
      <point x="498.2474747474747" y="1484.5252525252524" type="line"/>
      <point x="400.46969696969694" y="1484.5252525252524" type="line"/>
      <point x="20.71212121212121" y="1209.8939393939395" type="line"/>
      <point x="20.71212121212121" y="1054.1616161616162" type="line"/>
      <point x="400.46969696969694" y="1328.0555555555557" type="line"/>
      <point x="339.64141414141415" y="1357.5555555555557" type="line"/>
    </contour>
  </outline>
</glyph>
<glyph name="two" format="2">
  <advance width="919.1111111111111"/>
  <unicode hex="0032"/>
  <outline>
    <contour>
      <point x="53.32828282828283" y="0.0" type="line"/>
      <point x="860.1515151515151" y="0.0" type="line"/>
      <point x="860.1515151515151" y="138.71717171717165" type="line"/>
      <point x="215.3838383838383" y="138.71717171717165" type="line"/>
      <point x="230.15151515151507" y="94.62626262626259" type="line"/>
      <point x="583.2373737373737" y="601.1969696969697" type="line" smooth="yes"/>
      <point x="736.1919191919192" y="818.2777777777778"/>
      <point x="787.2222222222222" y="957.0606060606061"/>
      <point x="788.3282828282828" y="1108.9646464646464" type="curve" smooth="yes"/>
      <point x="790.540404040404" y="1383.2222222222222"/>
      <point x="624.5959595959596" y="1498.5252525252524"/>
      <point x="345.1111111111111" y="1498.5252525252524" type="curve" smooth="yes"/>
      <point x="236.72222222222223" y="1498.5252525252524"/>
      <point x="115.1919191919192" y="1477.5"/>
      <point x="36.04040404040405" y="1443.8131313131314" type="curve"/>
      <point x="36.04040404040405" y="1305.29797979798" type="line"/>
      <point x="126.67676767676768" y="1342.5909090909092"/>
      <point x="224.7979797979798" y="1361.4848484848485"/>
      <point x="330.5353535353535" y="1361.4848484848485" type="curve" smooth="yes"/>
      <point x="527.8737373737374" y="1361.4848484848485"/>
      <point x="629.6919191919192" y="1287.5757575757575"/>
      <point x="629.6919191919192" y="1097.9848484848485" type="curve" smooth="yes"/>
      <point x="629.6919191919192" y="972.9545454545455"/>
      <point x="579.3434343434344" y="849.5909090909091"/>
      <point x="447.8535353535354" y="660.2676767676768" type="curve" smooth="yes"/>
      <point x="53.32828282828283" y="88.71717171717168" type="line"/>
    </contour>
  </outline>
</glyph>
<glyph name="three" format="2">
  <advance width="952.1060606060606"/>
  <unicode hex="0033"/>
  <outline>
    <contour>
      <point x="379.9090909090909" y="-18.525252525252526" type="curve" smooth="yes"/>
      <point x="703.8232323232323" y="-18.525252525252526"/>
      <point x="883.6414141414141" y="131.7828282828283"/>
      <point x="883.6414141414141" y="395.1161616161616" type="curve" smooth="yes"/>
      <point x="883.6414141414141" y="608.3131313131313"/>
      <point x="757.8383838383838" y="744.0858585858585"/>
      <point x="520.7323232323232" y="777.5858585858585" type="curve"/>
      <point x="519.6262626262626" y="756.7373737373738" type="line"/>
      <point x="719.9949494949494" y="798.39898989899"/>
      <point x="836.7979797979798" y="936.3282828282828"/>
      <point x="836.7979797979798" y="1125.7323232323233" type="curve" smooth="yes"/>
      <point x="836.7979797979798" y="1364.0858585858587"/>
      <point x="681.2676767676767" y="1498.5252525252524"/>
      <point x="389.27272727272725" y="1498.5252525252524" type="curve" smooth="yes"/>
      <point x="279.7828282828283" y="1498.5252525252524"/>
      <point x="159.14646464646466" y="1478.5"/>
      <point x="75.73232323232324" y="1444.919191919192" type="curve"/>
      <point x="75.73232323232324" y="1313.2323232323233" type="line"/>
      <point x="170.15656565656568" y="1350.0252525252527"/>
      <point x="270.74747474747477" y="1368.050505050505"/>
      <point x="376.0909090909091" y="1368.050505050505" type="curve" smooth="yes"/>
      <point x="579.7828282828283" y="1368.050505050505"/>
      <point x="681.8383838383838" y="1282.3636363636365"/>
      <point x="681.8383838383838" y="1115.0454545454545" type="curve" smooth="yes"/>
      <point x="681.8383838383838" y="934.0555555555555"/>
      <point x="553.4444444444445" y="825.5151515151515"/>
      <point x="299.30303030303025" y="825.5151515151515" type="curve" smooth="yes"/>
      <point x="215.2777777777778" y="825.5151515151515" type="line"/>
      <point x="215.2777777777778" y="693.3333333333334" type="line"/>
      <point x="366.469696969697" y="693.3333333333334" type="line" smooth="yes"/>
      <point x="618.2525252525253" y="693.3333333333334"/>
      <point x="729.6010101010102" y="583.3434343434344"/>
      <point x="729.6010101010102" y="401.7323232323232" type="curve" smooth="yes"/>
      <point x="729.6010101010102" y="210.1414141414141"/>
      <point x="605.929292929293" y="111.94949494949489"/>
      <point x="375.7323232323232" y="111.94949494949489" type="curve" smooth="yes"/>
      <point x="272.15656565656565" y="111.94949494949489"/>
      <point x="153.43434343434345" y="130.42424242424238"/>
      <point x="46.93434343434344" y="166.6414141414141" type="curve"/>
      <point x="46.93434343434344" y="34.95454545454546" type="line"/>
      <point x="149.37373737373738" y="-0.31313131313131215"/>
      <point x="263.0505050505051" y="-18.525252525252526"/>
    </contour>
  </outline>
</glyph>
<glyph name="four" format="2">
  <advance width="1111.949494949495"/>
  <unicode hex="0034"/>
  <outline>
    <contour>
      <point x="45.6969696969697" y="356.29292929292933" type="line"/>
      <point x="1073.070707070707" y="356.29292929292933" type="line"/>
      <point x="1073.070707070707" y="486.2121212121212" type="line"/>
      <point x="181.56565656565652" y="486.2121212121212" type="line"/>
      <point x="205.23232323232318" y="444.06060606060606" type="line"/>
      <point x="740.4040404040404" y="1480.0" type="line"/>
      <point x="582.4141414141415" y="1480.0" type="line"/>
      <point x="45.6969696969697" y="445.5353535353535" type="line"/>
    </contour>
    <contour>
      <point x="727.4444444444445" y="0.0" type="line"/>
      <point x="873.7070707070707" y="0.0" type="line"/>
      <point x="873.7070707070707" y="980.0" type="line"/>
      <point x="748.2727272727273" y="980.0" type="line"/>
      <point x="727.4444444444445" y="486.2121212121212" type="line"/>
    </contour>
  </outline>
</glyph>
<glyph name="five" format="2">
  <advance width="959.3636363636364"/>
  <unicode hex="0035"/>
  <outline>
    <contour>
      <point x="406.9343434343434" y="-18.525252525252526" type="curve" smooth="yes"/>
      <point x="732.3030303030303" y="-18.525252525252526"/>
      <point x="908.3787878787879" y="132.15151515151516"/>
      <point x="908.5101010101009" y="415.94444444444446" type="curve" smooth="yes"/>
      <point x="908.6414141414141" y="689.6414141414141"/>
      <point x="736.3030303030303" y="827.9242424242424"/>
      <point x="352.68181818181813" y="851.2373737373737" type="curve" smooth="yes"/>
      <point x="182.95959595959593" y="861.3434343434343" type="line"/>
      <point x="277.3737373737373" y="790.3131313131313" type="line"/>
      <point x="319.11616161616155" y="1415.2121212121212" type="line"/>
      <point x="247.14141414141412" y="1347.3232323232323" type="line"/>
      <point x="848.2171717171717" y="1347.3232323232323" type="line"/>
      <point x="848.2171717171717" y="1480.0" type="line"/>
      <point x="171.41414141414143" y="1480.0" type="line"/>
      <point x="123.52020202020202" y="732.3131313131313" type="line"/>
      <point x="293.24242424242425" y="722.2070707070708" type="line" smooth="yes"/>
      <point x="633.6666666666666" y="701.9444444444445"/>
      <point x="754.3383838383838" y="609.2828282828283"/>
      <point x="754.3383838383838" y="411.42424242424244" type="curve" smooth="yes"/>
      <point x="754.3383838383838" y="213.2474747474747"/>
      <point x="638.4090909090909" y="112.47474747474742"/>
      <point x="403.8636363636364" y="112.47474747474742" type="curve" smooth="yes"/>
      <point x="296.2323232323232" y="112.47474747474742"/>
      <point x="177.510101010101" y="132.44949494949492"/>
      <point x="72.85353535353536" y="167.9545454545454" type="curve"/>
      <point x="72.85353535353536" y="36.26767676767677" type="line"/>
      <point x="172.71212121212122" y="0.7121212121212127"/>
      <point x="288.6010101010101" y="-18.525252525252526"/>
    </contour>
  </outline>
</glyph>
<glyph name="six" format="2">
  <advance width="1079.4898989898988"/>
  <unicode hex="0036"/>
  <outline>
    <contour>
      <point x="601.5858585858585" y="-18.525252525252526" type="curve" smooth="yes"/>
      <point x="845.5808080808081" y="-18.525252525252526"/>
      <point x="1026.2979797979797" y="129.44949494949495"/>
      <point x="1026.2979797979797" y="421.20707070707067" type="curve" smooth="yes"/>
      <point x="1026.2979797979797" y="714.4797979797979"/>
      <point x="840.8939393939394" y="850.5858585858585"/>
      <point x="597.8989898989898" y="850.5858585858585" type="curve" smooth="yes"/>
      <point x="453.4393939393939" y="850.5858585858585"/>
      <point x="313.90404040404036" y="795.3939393939394"/>
      <point x="239.53030303030297" y="702.8585858585858" type="curve"/>
      <point x="239.53030303030297" y="563.8838383838385" type="line"/>
      <point x="316.9090909090909" y="678.6212121212121"/>
      <point x="454.050505050505" y="723.6565656565657"/>
      <point x="572.7575757575758" y="723.6565656565657" type="curve" smooth="yes"/>
      <point x="750.60101010101" y="723.6565656565657"/>
      <point x="877.1161616161617" y="633.2070707070707"/>
      <point x="877.1161616161617" y="415.2121212121212" type="curve" smooth="yes"/>
      <point x="877.1161616161617" y="198.56060606060603"/>
      <point x="755.9191919191919" y="109.19191919191914"/>
      <point x="603.4797979797979" y="109.19191919191914" type="curve" smooth="yes"/>
      <point x="410.080808080808" y="109.19191919191914"/>
      <point x="275.16666666666663" y="232.10101010101008"/>
      <point x="275.16666666666663" y="674.4040404040404" type="curve" smooth="yes"/>
      <point x="275.16666666666663" y="729.4747474747475" type="line" smooth="yes"/>
      <point x="275.16666666666663" y="1189.6717171717173"/>
      <point x="427.40404040404036" y="1365.949494949495"/>
      <point x="715.2777777777777" y="1365.949494949495" type="curve" smooth="yes"/>
      <point x="801.4494949494949" y="1365.949494949495"/>
      <point x="886.3434343434343" y="1352.7121212121212"/>
      <point x="960.2272727272727" y="1323.3686868686868" type="curve"/>
      <point x="960.2272727272727" y="1457.1565656565656" type="line"/>
      <point x="888.6818181818181" y="1486.7878787878788"/>
      <point x="799.2979797979798" y="1498.5252525252524"/>
      <point x="712.5252525252525" y="1498.5252525252524" type="curve" smooth="yes"/>
      <point x="333.45454545454544" y="1498.5252525252524"/>
      <point x="117.97474747474749" y="1262.6464646464647"/>
      <point x="117.97474747474749" y="692.5757575757576" type="curve" smooth="yes"/>
      <point x="117.97474747474749" y="162.19191919191917"/>
      <point x="318.6060606060606" y="-18.525252525252526"/>
    </contour>
  </outline>
</glyph>
<glyph name="seven" format="2">
  <advance width="881.8585858585858"/>
  <unicode hex="0037"/>
  <outline>
    <contour>
      <point x="154.42424242424244" y="0.0" type="line"/>
      <point x="318.7626262626262" y="0.0" type="line"/>
      <point x="824.6212121212121" y="1391.2828282828284" type="line"/>
      <point x="824.6212121212121" y="1480.0" type="line"/>
      <point x="10.131313131313131" y="1480.0" type="line"/>
      <point x="10.131313131313131" y="1341.2828282828284" type="line"/>
      <point x="716.459595959596" y="1341.2828282828284" type="line"/>
      <point x="670.030303030303" y="1392.7575757575758" type="line"/>
    </contour>
  </outline>
</glyph>
<glyph name="eight" format="2">
  <advance width="1167.2929292929293"/>
  <unicode hex="0038"/>
  <outline>
    <contour>
      <point x="592.5858585858585" y="-18.525252525252526" type="curve" smooth="yes"/>
      <point x="899.2929292929293" y="-18.525252525252526"/>
      <point x="1076.7474747474746" y="140.66666666666666"/>
      <point x="1076.7474747474746" y="376.8131313131313" type="curve" smooth="yes"/>
      <point x="1076.7474747474746" y="590.8888888888889"/>
      <point x="962.3989898989898" y="711.510101010101"/>
      <point x="636.1363636363636" y="805.020202020202" type="curve" smooth="yes"/>
      <point x="364.1464646464646" y="881.570707070707"/>
      <point x="288.83333333333326" y="964.469696969697"/>
      <point x="288.83333333333326" y="1120.6010101010102" type="curve" smooth="yes"/>
      <point x="288.83333333333326" y="1276.3989898989898"/>
      <point x="391.4949494949494" y="1375.141414141414"/>
      <point x="585.540404040404" y="1375.141414141414" type="curve" smooth="yes"/>
      <point x="777.3030303030303" y="1375.141414141414"/>
      <point x="889.7070707070707" y="1283.6616161616162"/>
      <point x="889.7070707070707" y="1115.3383838383838" type="curve" smooth="yes"/>
      <point x="889.7070707070707" y="960.7878787878788"/>
      <point x="815.1060606060606" y="867.3484848484849"/>
      <point x="641.2979797979798" y="787.8383838383838" type="curve"/>
      <point x="754.9444444444443" y="737.9848484848485" type="line"/>
      <point x="939.5101010101009" y="818.1616161616162"/>
      <point x="1032.030303030303" y="953.1363636363636"/>
      <point x="1032.030303030303" y="1125.4242424242425" type="curve" smooth="yes"/>
      <point x="1032.030303030303" y="1355.2626262626263"/>
      <point x="862.3686868686868" y="1498.5252525252524"/>
      <point x="586.040404040404" y="1498.5252525252524" type="curve" smooth="yes"/>
      <point x="301.6363636363636" y="1498.5252525252524"/>
      <point x="133.84343434343435" y="1348.0404040404042"/>
      <point x="133.84343434343435" y="1115.449494949495" type="curve" smooth="yes"/>
      <point x="133.84343434343435" y="901.6060606060606"/>
      <point x="252.66161616161617" y="768.6262626262626"/>
      <point x="575.0808080808081" y="679.3484848484849" type="curve" smooth="yes"/>
      <point x="840.0505050505051" y="605.9494949494949"/>
      <point x="923.3333333333334" y="530.4545454545455"/>
      <point x="923.3333333333334" y="367.24242424242425" type="curve" smooth="yes"/>
      <point x="923.3333333333334" y="201.07575757575754"/>
      <point x="805.3181818181819" y="104.85858585858583"/>
      <point x="593.0858585858585" y="104.85858585858583" type="curve" smooth="yes"/>
      <point x="359.4949494949494" y="104.85858585858583"/>
      <point x="243.06565656565652" y="204.60101010101008"/>
      <point x="243.06565656565652" y="381.9494949494949" type="curve" smooth="yes"/>
      <point x="243.06565656565652" y="539.9545454545455"/>
      <point x="340.41414141414134" y="665.2424242424242"/>
      <point x="514.0808080808081" y="718.8535353535353" type="curve"/>
      <point x="396.2070707070707" y="770.5252525252525" type="line"/>
      <point x="204.2929292929293" y="703.5555555555555"/>
      <point x="89.75757575757576" y="556.3333333333334"/>
      <point x="89.75757575757576" y="370.050505050505" type="curve" smooth="yes"/>
      <point x="89.75757575757576" y="129.1969696969697"/>
      <point x="264.22222222222223" y="-18.525252525252526"/>
    </contour>
  </outline>
</glyph>
<glyph name="nine" format="2">
  <advance width="1079.4898989898988"/>
  <unicode hex="0039"/>
  <outline>
    <contour>
      <point x="477.90404040404036" y="1498.5252525252524" type="curve" smooth="yes"/>
      <point x="233.9090909090909" y="1498.5252525252524"/>
      <point x="53.1919191919192" y="1350.550505050505"/>
      <point x="53.1919191919192" y="1058.7929292929293" type="curve" smooth="yes"/>
      <point x="53.1919191919192" y="765.5202020202021"/>
      <point x="238.59595959595958" y="629.4141414141415"/>
      <point x="481.59090909090907" y="629.4141414141415" type="curve" smooth="yes"/>
      <point x="626.0505050505051" y="629.4141414141415"/>
      <point x="765.5858585858585" y="684.6060606060606"/>
      <point x="839.959595959596" y="777.1414141414142" type="curve"/>
      <point x="839.959595959596" y="916.1161616161615" type="line"/>
      <point x="762.5808080808081" y="801.3787878787879"/>
      <point x="625.4393939393939" y="756.3434343434343"/>
      <point x="506.7323232323232" y="756.3434343434343" type="curve" smooth="yes"/>
      <point x="328.88888888888886" y="756.3434343434343"/>
      <point x="202.3737373737373" y="846.7929292929293"/>
      <point x="202.3737373737373" y="1064.7878787878788" type="curve" smooth="yes"/>
      <point x="202.3737373737373" y="1281.439393939394"/>
      <point x="323.57070707070704" y="1370.8080808080808"/>
      <point x="476.010101010101" y="1370.8080808080808" type="curve" smooth="yes"/>
      <point x="669.4090909090909" y="1370.8080808080808"/>
      <point x="804.3232323232323" y="1247.8989898989898"/>
      <point x="804.3232323232323" y="805.5959595959596" type="curve" smooth="yes"/>
      <point x="804.3232323232323" y="750.5252525252525" type="line" smooth="yes"/>
      <point x="804.3232323232323" y="290.3282828282828"/>
      <point x="652.0858585858585" y="114.050505050505"/>
      <point x="364.2121212121212" y="114.050505050505" type="curve" smooth="yes"/>
      <point x="278.04040404040404" y="114.050505050505"/>
      <point x="193.14646464646464" y="127.28787878787874"/>
      <point x="119.26262626262627" y="156.6313131313131" type="curve"/>
      <point x="119.26262626262627" y="22.843434343434343" type="line"/>
      <point x="190.8080808080808" y="-6.787878787878787"/>
      <point x="280.19191919191917" y="-18.525252525252526"/>
      <point x="366.9646464646465" y="-18.525252525252526" type="curve" smooth="yes"/>
      <point x="746.0353535353535" y="-18.525252525252526"/>
      <point x="961.5151515151515" y="217.35353535353534"/>
      <point x="961.5151515151515" y="787.4242424242424" type="curve" smooth="yes"/>
      <point x="961.5151515151515" y="1317.8080808080808"/>
      <point x="760.8838383838383" y="1498.5252525252524"/>
    </contour>
  </outline>
</glyph>
<glyph name="colon" format="2">
  <advance width="435.2626262626262"/>
  <unicode hex="003A"/>
  <outline>
    <contour>
      <point x="217.6313131313131" y="-12.626262626262625" type="curve" smooth="yes"/>
      <point x="284.48989898989896" y="-12.626262626262625"/>
      <point x="330.8434343434343" y="30.676767676767664"/>
      <point x="330.8434343434343" y="97.56565656565652" type="curve" smooth="yes"/>
      <point x="330.8434343434343" y="164.45454545454538"/>
      <point x="285.540404040404" y="209.23232323232315"/>
      <point x="217.6313131313131" y="209.23232323232315" type="curve" smooth="yes"/>
      <point x="149.72222222222223" y="209.23232323232315"/>
      <point x="104.41919191919193" y="165.50505050505046"/>
      <point x="104.41919191919193" y="97.56565656565652" type="curve" smooth="yes"/>
      <point x="104.41919191919193" y="29.626262626262616"/>
      <point x="150.77272727272728" y="-12.626262626262625"/>
    </contour>
    <contour>
      <point x="217.6313131313131" y="876.0202020202021" type="curve" smooth="yes"/>
      <point x="284.48989898989896" y="876.0202020202021"/>
      <point x="330.8434343434343" y="919.3232323232323"/>
      <point x="330.8434343434343" y="986.2121212121212" type="curve" smooth="yes"/>
      <point x="330.8434343434343" y="1053.1010101010102"/>
      <point x="285.540404040404" y="1097.8787878787878"/>
      <point x="217.6313131313131" y="1097.8787878787878" type="curve" smooth="yes"/>
      <point x="149.72222222222223" y="1097.8787878787878"/>
      <point x="104.41919191919193" y="1054.1515151515152"/>
      <point x="104.41919191919193" y="986.2121212121212" type="curve" smooth="yes"/>
      <point x="104.41919191919193" y="918.2727272727274"/>
      <point x="150.77272727272728" y="876.0202020202021"/>
    </contour>
  </outline>
</glyph>
<glyph name="semicolon" format="2">
  <advance width="435.2626262626262"/>
  <unicode hex="003B"/>
  <outline>
    <contour>
      <point x="138.2171717171717" y="-315.75757575757575" type="curve"/>
      <point x="231.3282828282828" y="-315.75757575757575" type="line"/>
      <point x="289.0252525252525" y="-209.15151515151516"/>
      <point x="330.580808080808" y="-74.14141414141416"/>
      <point x="330.580808080808" y="63.64646464646462" type="curve" smooth="yes"/>
      <point x="330.580808080808" y="163.30303030303025"/>
      <point x="287.5101010101009" y="209.23232323232315"/>
      <point x="214.58080808080805" y="209.23232323232315" type="curve" smooth="yes"/>
      <point x="148.24747474747474" y="209.23232323232315"/>
      <point x="104.41919191919193" y="166.68686868686865"/>
      <point x="104.41919191919193" y="99.04040404040401" type="curve" smooth="yes"/>
      <point x="104.41919191919193" y="31.10101010101009"/>
      <point x="151.56060606060606" y="-12.626262626262625"/>
      <point x="217.6313131313131" y="-12.626262626262625" type="curve" smooth="yes"/>
      <point x="239.6111111111111" y="-12.626262626262625" type="line"/>
      <point x="212.1060606060606" y="22.505050505050498" type="line"/>
      <point x="212.1060606060606" y="-87.8989898989899"/>
      <point x="184.45959595959596" y="-191.25252525252526"/>
    </contour>
    <contour>
      <point x="217.6313131313131" y="876.0202020202021" type="curve" smooth="yes"/>
      <point x="284.48989898989896" y="876.0202020202021"/>
      <point x="330.8434343434343" y="919.3232323232323"/>
      <point x="330.8434343434343" y="986.2121212121212" type="curve" smooth="yes"/>
      <point x="330.8434343434343" y="1053.1010101010102"/>
      <point x="285.540404040404" y="1097.8787878787878"/>
      <point x="217.6313131313131" y="1097.8787878787878" type="curve" smooth="yes"/>
      <point x="149.72222222222223" y="1097.8787878787878"/>
      <point x="104.41919191919193" y="1054.1515151515152"/>
      <point x="104.41919191919193" y="986.2121212121212" type="curve" smooth="yes"/>
      <point x="104.41919191919193" y="918.2727272727274"/>
      <point x="150.77272727272728" y="876.0202020202021"/>
    </contour>
  </outline>
</glyph>
<glyph name="less" format="2">
  <advance width="1048.7171717171718"/>
  <unicode hex="003C"/>
  <outline>
    <contour>
      <point x="911.2070707070707" y="359.51515151515156" type="line"/>
      <point x="911.2070707070707" y="494.020202020202" type="line"/>
      <point x="242.87373737373736" y="773.4444444444445" type="line"/>
      <point x="242.87373737373736" y="747.2121212121212" type="line"/>
      <point x="911.2070707070707" y="1025.979797979798" type="line"/>
      <point x="911.2070707070707" y="1160.4848484848485" type="line"/>
      <point x="137.510101010101" y="831.4343434343434" type="line"/>
      <point x="137.510101010101" y="688.5656565656566" type="line"/>
    </contour>
  </outline>
</glyph>
<glyph name="equal" format="2">
  <advance width="1048.7171717171718"/>
  <unicode hex="003D"/>
  <outline>
    <contour>
      <point x="137.510101010101" y="891.6161616161617" type="line"/>
      <point x="911.2070707070707" y="891.6161616161617" type="line"/>
      <point x="911.2070707070707" y="1020.2222222222222" type="line"/>
      <point x="137.510101010101" y="1020.2222222222222" type="line"/>
    </contour>
    <contour>
      <point x="137.510101010101" y="499.7777777777778" type="line"/>
      <point x="911.2070707070707" y="499.7777777777778" type="line"/>
      <point x="911.2070707070707" y="628.3838383838383" type="line"/>
      <point x="137.510101010101" y="628.3838383838383" type="line"/>
    </contour>
  </outline>
</glyph>
<glyph name="question" format="2">
  <advance width="852.3282828282828"/>
  <unicode hex="003F"/>
  <outline>
    <contour>
      <point x="326.1717171717172" y="360.9292929292929" type="line"/>
      <point x="426.30303030303025" y="360.9292929292929" type="line"/>
      <point x="441.4242424242424" y="687.9242424242424" type="line"/>
      <point x="696.0555555555555" y="790.1919191919192"/>
      <point x="796.7626262626262" y="917.9747474747475"/>
      <point x="796.7626262626262" y="1125.0757575757575" type="curve" smooth="yes"/>
      <point x="796.7626262626262" y="1364.0858585858587"/>
      <point x="641.2323232323232" y="1498.5252525252524"/>
      <point x="349.23737373737373" y="1498.5252525252524" type="curve" smooth="yes"/>
      <point x="239.74747474747474" y="1498.5252525252524"/>
      <point x="119.11111111111111" y="1478.5"/>
      <point x="35.6969696969697" y="1444.919191919192" type="curve"/>
      <point x="35.6969696969697" y="1311.919191919192" type="line"/>
      <point x="130.12121212121212" y="1348.7121212121212"/>
      <point x="230.44949494949495" y="1366.7373737373737"/>
      <point x="334.6868686868687" y="1366.7373737373737" type="curve" smooth="yes"/>
      <point x="539.7474747474747" y="1366.7373737373737"/>
      <point x="641.8030303030304" y="1281.4444444444446"/>
      <point x="641.8030303030304" y="1114.7828282828284" type="curve" smooth="yes"/>
      <point x="641.8030303030304" y="954.4646464646464"/>
      <point x="559.2626262626263" y="854.3282828282828"/>
      <point x="299.0707070707071" y="769.1111111111111" type="curve"/>
    </contour>
    <contour>
      <point x="376.3030303030303" y="-12.626262626262625" type="curve" smooth="yes"/>
      <point x="444.6363636363636" y="-12.626262626262625"/>
      <point x="489.51515151515144" y="31.626262626262616"/>
      <point x="489.51515151515144" y="95.07070707070704" type="curve" smooth="yes"/>
      <point x="489.51515151515144" y="159.98989898989896"/>
      <point x="444.2121212121212" y="204.2424242424242"/>
      <point x="376.3030303030303" y="204.2424242424242" type="curve" smooth="yes"/>
      <point x="308.3939393939394" y="204.2424242424242"/>
      <point x="263.0909090909091" y="161.04040404040398"/>
      <point x="263.0909090909091" y="95.07070707070704" type="curve" smooth="yes"/>
      <point x="263.0909090909091" y="30.575757575757564"/>
      <point x="309.44444444444446" y="-12.626262626262625"/>
    </contour>
  </outline>
</glyph>
<glyph name="at" format="2">
  <advance width="1789.621212121212"/>
  <unicode hex="0040"/>
  <outline>
    <contour>
      <point x="938.9949494949494" y="-460.0" type="curve" smooth="yes"/>
      <point x="1071.6616161616162" y="-460.0"/>
      <point x="1198.7222222222222" y="-438.3131313131313"/>
      <point x="1307.9292929292928" y="-404.52525252525254" type="curve"/>
      <point x="1307.9292929292928" y="-285.8383838383839" type="line"/>
      <point x="1183.080808080808" y="-323.68181818181824"/>
      <point x="1066.8686868686868" y="-342.7878787878788"/>
      <point x="938.9949494949494" y="-342.7878787878788" type="curve" smooth="yes"/>
      <point x="469.5" y="-342.7878787878788"/>
      <point x="229.50505050505046" y="-120.92424242424246"/>
      <point x="229.50505050505046" y="522.9494949494949" type="curve" smooth="yes"/>
      <point x="229.50505050505046" y="1157.9747474747476"/>
      <point x="468.7626262626262" y="1380.7878787878788"/>
      <point x="901.1767676767677" y="1380.7878787878788" type="curve" smooth="yes"/>
      <point x="1333.3535353535353" y="1380.7878787878788"/>
      <point x="1568.580808080808" y="1161.550505050505"/>
      <point x="1569.3686868686868" y="560.8282828282828" type="curve" smooth="yes"/>
      <point x="1570.0252525252524" y="207.45959595959593"/>
      <point x="1478.732323232323" y="99.99999999999997"/>
      <point x="1381.2979797979797" y="99.99999999999997" type="curve" smooth="yes"/>
      <point x="1305.171717171717" y="99.99999999999997"/>
      <point x="1271.1161616161614" y="146.06565656565652"/>
      <point x="1271.1161616161614" y="249.6161616161616" type="curve" smooth="yes"/>
      <point x="1271.1161616161614" y="719.3080808080808" type="line" smooth="yes"/>
      <point x="1271.1161616161614" y="1001.7575757575758"/>
      <point x="1137.7626262626263" y="1096.5252525252524"/>
      <point x="882.10101010101" y="1096.5252525252524" type="curve" smooth="yes"/>
      <point x="789.4848484848485" y="1096.5252525252524"/>
      <point x="675.1565656565656" y="1079.3686868686868"/>
      <point x="590.1717171717172" y="1048.3181818181818" type="curve"/>
      <point x="589.3838383838383" y="917.1565656565657" type="line"/>
      <point x="683.7575757575758" y="951.1313131313132"/>
      <point x="784.0959595959596" y="966.0505050505051"/>
      <point x="860.8787878787879" y="966.0505050505051" type="curve" smooth="yes"/>
      <point x="1031.0757575757575" y="966.0505050505051"/>
      <point x="1117.5" y="912.2525252525253"/>
      <point x="1117.5" y="724.9040404040404" type="curve" smooth="yes"/>
      <point x="1117.5" y="239.64646464646464" type="line"/>
      <point x="1048.3636363636363" y="141.27272727272725"/>
      <point x="953.1919191919192" y="106.98989898989895"/>
      <point x="869.4393939393939" y="106.98989898989895" type="curve" smooth="yes"/>
      <point x="745.3080808080807" y="106.98989898989895"/>
      <point x="675.9191919191918" y="168.27777777777774"/>
      <point x="675.9191919191918" y="294.64141414141415" type="curve" smooth="yes"/>
      <point x="675.9191919191918" y="413.57575757575756"/>
      <point x="745.520202020202" y="477.67676767676767"/>
      <point x="900.4444444444443" y="494.71212121212125" type="curve" smooth="yes"/>
      <point x="1174.4444444444443" y="524.1212121212121" type="line"/>
      <point x="1157.6262626262626" y="628.4646464646464" type="line"/>
      <point x="889.469696969697" y="599.0555555555555" type="line" smooth="yes"/>
      <point x="631.9444444444445" y="573.3939393939394"/>
      <point x="517.6161616161617" y="468.45959595959596"/>
      <point x="517.6161616161617" y="277.2676767676768" type="curve" smooth="yes"/>
      <point x="517.6161616161617" y="90.1161616161616"/>
      <point x="639.8989898989898" y="-17.575757575757574"/>
      <point x="828.1717171717171" y="-17.575757575757574" type="curve" smooth="yes"/>
      <point x="948.1262626262626" y="-17.575757575757574"/>
      <point x="1057.550505050505" y="28.74747474747475"/>
      <point x="1120.5959595959596" y="126.1010101010101" type="curve"/>
      <point x="1131.9848484848485" y="126.1010101010101" type="line"/>
      <point x="1162.7979797979797" y="36.6919191919192"/>
      <point x="1237.0050505050503" y="-17.575757575757574"/>
      <point x="1355.1060606060605" y="-17.575757575757574" type="curve" smooth="yes"/>
      <point x="1545.3737373737372" y="-17.575757575757574"/>
      <point x="1693.4646464646464" y="145.16161616161617"/>
      <point x="1693.8333333333333" y="567.3535353535353" type="curve" smooth="yes"/>
      <point x="1694.20202020202" y="1215.0151515151515"/>
      <point x="1406.590909090909" y="1498.0"/>
      <point x="901.1767676767677" y="1498.0" type="curve" smooth="yes"/>
      <point x="395.15656565656565" y="1498.0"/>
      <point x="95.7878787878788" y="1215.0151515151515"/>
      <point x="95.7878787878788" y="520.0" type="curve" smooth="yes"/>
      <point x="95.7878787878788" y="-180.17676767676767"/>
      <point x="397.73737373737373" y="-459.6313131313131"/>
    </contour>
  </outline>
</glyph>
<glyph name="B" format="2">
  <advance width="1194.7575757575758"/>
  <unicode hex="0042"/>
  <anchor x="611.4646464646464" y="0.0" name="bottom"/>
  <anchor x="611.4646464646464" y="1480.0" name="top"/>
  <outline>
    <contour>
      <point x="498.05555555555554" y="-12.626262626262625" type="curve" smooth="yes"/>
      <point x="948.4393939393939" y="-12.626262626262625"/>
      <point x="1127.1010101010102" y="129.86363636363637"/>
      <point x="1127.1010101010102" y="399.9848484848485" type="curve" smooth="yes"/>
      <point x="1127.1010101010102" y="606.0858585858585"/>
      <point x="1015.030303030303" y="742.6868686868687"/>
      <point x="789.4040404040403" y="770.5808080808081" type="curve"/>
      <point x="788.2979797979797" y="756.7373737373738" type="line"/>
      <point x="1001.4797979797979" y="790.6313131313132"/>
      <point x="1084.9949494949494" y="935.9343434343434"/>
      <point x="1084.9949494949494" y="1103.3333333333333" type="curve" smooth="yes"/>
      <point x="1084.9949494949494" y="1370.1868686868686"/>
      <point x="919.2575757575758" y="1495.5757575757575"/>
      <point x="535.6717171717172" y="1495.5757575757575" type="curve" smooth="yes"/>
      <point x="392.050505050505" y="1495.5757575757575"/>
      <point x="266.9141414141414" y="1480.8181818181818"/>
      <point x="156.3838383838384" y="1458.4040404040404" type="curve"/>
      <point x="156.3838383838384" y="8.707070707070706" type="line"/>
      <point x="269.8484848484849" y="-5.6313131313131315"/>
      <point x="387.1161616161616" y="-12.626262626262625"/>
    </contour>
    <contour>
      <point x="530.2575757575758" y="116.14141414141409" type="curve" smooth="yes"/>
      <point x="454.5252525252525" y="116.14141414141409"/>
      <point x="384.50505050505046" y="118.7474747474747"/>
      <point x="312.2323232323232" y="127.30303030303025" type="curve"/>
      <point x="312.2323232323232" y="1348.1464646464647" type="line"/>
      <point x="381.77272727272725" y="1360.3333333333335"/>
      <point x="453.1313131313131" y="1366.8080808080808"/>
      <point x="550.3737373737373" y="1366.8080808080808" type="curve" smooth="yes"/>
      <point x="827.7575757575758" y="1366.8080808080808"/>
      <point x="932.2424242424242" y="1288.9141414141413"/>
      <point x="932.2424242424242" y="1096.5050505050506" type="curve" smooth="yes"/>
      <point x="932.2424242424242" y="918.6313131313132"/>
      <point x="838.9747474747475" y="824.989898989899"/>
      <point x="567.9949494949494" y="824.989898989899" type="curve" smooth="yes"/>
      <point x="290.71717171717165" y="824.989898989899" type="line"/>
      <point x="290.71717171717165" y="693.4646464646465" type="line"/>
      <point x="600.4444444444445" y="693.4646464646465" type="line" smooth="yes"/>
      <point x="859.8080808080808" y="693.4646464646465"/>
      <point x="974.89898989899" y="599.1666666666666"/>
      <point x="974.89898989899" y="404.15656565656565" type="curve" smooth="yes"/>
      <point x="974.89898989899" y="207.88383838383834"/>
      <point x="860.439393939394" y="116.14141414141409"/>
    </contour>
  </outline>
</glyph>
<glyph name="F" format="2">
  <advance width="1039.010101010101"/>
  <unicode hex="0046"/>
  <outline>
    <contour>
      <point x="156.3838383838384" y="0.0" type="line"/>
      <point x="314.98989898989896" y="0.0" type="line"/>
      <point x="314.98989898989896" y="1341.1212121212122" type="line"/>
      <point x="1007.2424242424242" y="1341.1212121212122" type="line"/>
      <point x="1007.2424242424242" y="1480.0" type="line"/>
      <point x="156.3838383838384" y="1480.0" type="line"/>
    </contour>
    <contour>
      <point x="272.45454545454544" y="677.3131313131314" type="line"/>
      <point x="912.3787878787879" y="677.3131313131314" type="line"/>
      <point x="912.3787878787879" y="816.1919191919192" type="line"/>
      <point x="272.45454545454544" y="816.1919191919192" type="line"/>
    </contour>
  </outline>
</glyph>
<glyph name="H" format="2">
  <advance width="1352.0707070707072"/>
  <unicode hex="0048"/>
  <anchor x="676.2979797979798" y="0.0" name="bottom"/>
  <anchor x="676.2979797979798" y="1157.20202020202" name="center"/>
  <anchor x="676.2979797979798" y="1520.0" name="top"/>
  <anchor x="36.792929292929294" y="1480.0" name="topleft"/>
  <outline>
    <contour>
      <point x="156.3838383838384" y="0.0" type="line"/>
      <point x="314.98989898989896" y="0.0" type="line"/>
      <point x="314.98989898989896" y="686.6363636363636" type="line"/>
      <point x="1037.080808080808" y="686.6363636363636" type="line"/>
      <point x="1037.080808080808" y="0.0" type="line"/>
      <point x="1195.6868686868686" y="0.0" type="line"/>
      <point x="1195.6868686868686" y="1480.0" type="line"/>
      <point x="1037.080808080808" y="1480.0" type="line"/>
      <point x="1037.080808080808" y="832.2121212121211" type="line"/>
      <point x="314.98989898989896" y="832.2121212121211" type="line"/>
      <point x="314.98989898989896" y="1480.0" type="line"/>
      <point x="156.3838383838384" y="1480.0" type="line"/>
    </contour>
  </outline>
</glyph>
<glyph name="I" format="2">
  <advance width="471.37373737373736"/>
  <unicode hex="0049"/>
  <anchor x="235.55555555555554" y="0.0" name="bottom"/>
  <anchor x="314.98989898989896" y="0.0" name="ogonek"/>
  <anchor x="235.68686868686868" y="1520.0" name="top"/>
  <outline>
    <contour>
      <point x="156.3838383838384" y="0.0" type="line"/>
      <point x="314.98989898989896" y="0.0" type="line"/>
      <point x="314.98989898989896" y="1480.0" type="line"/>
      <point x="156.3838383838384" y="1480.0" type="line"/>
    </contour>
  </outline>
</glyph>
<glyph name="J" format="2">
  <advance width="471.37373737373736"/>
  <unicode hex="004A"/>
  <anchor x="348.9090909090909" y="0.0" name="bottom"/>
  <anchor x="235.8181818181818" y="1520.0" name="top"/>
  <outline>
    <contour>
      <point x="92.87878787878785" y="-343.1515151515151" type="line"/>
      <point x="250.46969696969694" y="-137.68686868686868"/>
      <point x="307.98484848484844" y="34.86868686868686"/>
      <point x="314.98989898989896" y="271.9646464646465" type="curve"/>
      <point x="314.98989898989896" y="1480.0" type="line"/>
      <point x="156.64646464646466" y="1480.0" type="line"/>
      <point x="156.64646464646466" y="290.98989898989896" type="line" smooth="yes"/>
      <point x="156.64646464646466" y="56.232323232323225"/>
      <point x="108.55555555555557" y="-94.83838383838386"/>
      <point x="-13.21717171717171" y="-271.7525252525253" type="curve"/>
    </contour>
  </outline>
</glyph>
<glyph name="K" format="2">
  <advance width="1164.9444444444443"/>
  <unicode hex="004B"/>
  <anchor x="612.9191919191919" y="0.0" name="bottom"/>
  <anchor x="610.1616161616162" y="1480.0" name="top"/>
  <outline>
    <contour>
      <point x="1022.0606060606061" y="0.0" type="line"/>
      <point x="1199.8434343434342" y="0.0" type="line"/>
      <point x="616.0353535353535" y="784.7676767676768" type="line"/>
      <point x="614.4595959595958" y="738.1818181818182" type="line"/>
      <point x="1158.5" y="1480.0" type="line"/>
      <point x="985.7373737373738" y="1480.0" type="line"/>
      <point x="456.42424242424244" y="756.1616161616162" type="line"/>
    </contour>
    <contour>
      <point x="156.3838383838384" y="0.0" type="line"/>
      <point x="314.98989898989896" y="0.0" type="line"/>
      <point x="314.98989898989896" y="1480.0" type="line"/>
      <point x="156.3838383838384" y="1480.0" type="line"/>
    </contour>
    <contour>
      <point x="288.7474747474747" y="686.6363636363636" type="line"/>
      <point x="527.7878787878788" y="686.6363636363636" type="line"/>
      <point x="527.7878787878788" y="831.1060606060606" type="line"/>
      <point x="288.7474747474747" y="831.1060606060606" type="line"/>
    </contour>
  </outline>
</glyph>
<glyph name="M" format="2">
  <advance width="1667.5555555555554"/>
  <unicode hex="004D"/>
  <anchor x="841.0" y="0.0" name="bottom"/>
  <anchor x="841.0" y="1480.0" name="top"/>
  <outline>
    <contour>
      <point x="160.3838383838384" y="0.0" type="line"/>
      <point x="309.89898989898984" y="0.0" type="line"/>
      <point x="309.89898989898984" y="1336.959595959596" type="line"/>
      <point x="260.1616161616161" y="1336.959595959596" type="line"/>
      <point x="762.9494949494949" y="205.25252525252526" type="line"/>
      <point x="904.6060606060605" y="205.25252525252526" type="line"/>
      <point x="1401.5858585858587" y="1336.959595959596" type="line"/>
      <point x="1357.6565656565656" y="1336.959595959596" type="line"/>
      <point x="1357.6565656565656" y="0.0" type="line"/>
      <point x="1507.171717171717" y="0.0" type="line"/>
      <point x="1507.171717171717" y="1480.0" type="line"/>
      <point x="1318.2171717171718" y="1480.0" type="line"/>
      <point x="820.5656565656566" y="333.11111111111103" type="line"/>
      <point x="853.6161616161615" y="333.11111111111103" type="line"/>
      <point x="349.3383838383838" y="1480.0" type="line"/>
      <point x="160.3838383838384" y="1480.0" type="line"/>
    </contour>
  </outline>
</glyph>
<glyph name="P" format="2">
  <advance width="1165.3535353535353"/>
  <unicode hex="0050"/>
  <outline>
    <contour>
      <point x="156.3838383838384" y="0.0" type="line"/>
      <point x="314.98989898989896" y="0.0" type="line"/>
      <point x="314.98989898989896" y="492.5707070707071" type="line"/>
      <point x="374.69191919191917" y="487.40909090909093"/>
      <point x="426.8939393939394" y="485.04040404040404"/>
      <point x="489.12121212121207" y="485.04040404040404" type="curve" smooth="yes"/>
      <point x="891.7777777777777" y="485.04040404040404"/>
      <point x="1080.7525252525252" y="660.39898989899"/>
      <point x="1080.7525252525252" y="989.7424242424242" type="curve" smooth="yes"/>
      <point x="1080.7525252525252" y="1338.479797979798"/>
      <point x="886.959595959596" y="1495.5757575757575"/>
      <point x="510.09090909090907" y="1495.5757575757575" type="curve" smooth="yes"/>
      <point x="382.5959595959596" y="1495.5757575757575"/>
      <point x="267.30808080808083" y="1481.4747474747476"/>
      <point x="156.3838383838384" y="1460.6919191919192" type="curve"/>
    </contour>
    <contour>
      <point x="493.48989898989896" y="616.959595959596" type="curve" smooth="yes"/>
      <point x="429.0" y="616.959595959596"/>
      <point x="372.9545454545454" y="619.6969696969696"/>
      <point x="314.98989898989896" y="627.5151515151515" type="curve"/>
      <point x="314.98989898989896" y="1347.5454545454545" type="line"/>
      <point x="379.0151515151515" y="1357.969696969697"/>
      <point x="444.20202020202015" y="1363.6565656565658"/>
      <point x="520.5959595959596" y="1363.6565656565658" type="curve" smooth="yes"/>
      <point x="792.939393939394" y="1363.6565656565658"/>
      <point x="922.7424242424242" y="1250.6262626262626"/>
      <point x="922.7424242424242" y="986.3737373737374" type="curve" smooth="yes"/>
      <point x="922.7424242424242" y="734.0"/>
      <point x="790.7272727272727" y="616.959595959596"/>
    </contour>
  </outline>
</glyph>
<glyph name="Q" format="2">
  <advance width="1332.7070707070707"/>
  <unicode hex="0051"/>
  <outline>
    <contour>
      <point x="1186.3181818181818" y="-228.32323232323228" type="curve"/>
      <point x="1213.6010101010102" y="-94.04040404040406" type="line"/>
      <point x="1012.6818181818181" y="-73.91414141414143"/>
      <point x="791.6363636363635" y="-33.550505050505066"/>
      <point x="607.5808080808081" y="48.80808080808079" type="curve"/>
      <point x="580.9494949494949" y="2.636363636363628" type="line"/>
      <point x="1013.3282828282828" y="-54.141414141414145"/>
      <point x="1236.919191919192" y="209.95454545454544"/>
      <point x="1236.919191919192" y="740.0" type="curve" smooth="yes"/>
      <point x="1236.919191919192" y="1285.0454545454545"/>
      <point x="1009.4040404040404" y="1498.5252525252524"/>
      <point x="666.3535353535353" y="1498.5252525252524" type="curve" smooth="yes"/>
      <point x="323.3030303030303" y="1498.5252525252524"/>
      <point x="95.7878787878788" y="1283.0959595959596"/>
      <point x="95.7878787878788" y="738.6868686868687" type="curve" smooth="yes"/>
      <point x="95.7878787878788" y="137.59090909090907"/>
      <point x="347.14646464646466" y="-116.68686868686866"/>
    </contour>
    <contour>
      <point x="666.3535353535353" y="118.48989898989893" type="curve" smooth="yes"/>
      <point x="419.7777777777777" y="118.48989898989893"/>
      <point x="260.2323232323232" y="271.33333333333326"/>
      <point x="260.2323232323232" y="745.0505050505051" type="curve" smooth="yes"/>
      <point x="260.2323232323232" y="1208.4040404040404"/>
      <point x="420.4343434343434" y="1361.5101010101012"/>
      <point x="666.3535353535353" y="1361.5101010101012" type="curve" smooth="yes"/>
      <point x="912.2727272727273" y="1361.5101010101012"/>
      <point x="1072.4747474747476" y="1208.0101010101012"/>
      <point x="1072.4747474747476" y="734.9494949494949" type="curve" smooth="yes"/>
      <point x="1072.4747474747476" y="271.98989898989896"/>
      <point x="912.6666666666666" y="118.48989898989893"/>
    </contour>
  </outline>
</glyph>
<glyph name="T" format="2">
  <advance width="1105.4848484848485"/>
  <unicode hex="0054"/>
  <anchor x="552.9393939393939" y="0.0" name="bottom"/>
  <anchor x="552.9393939393939" y="773.7373737373738" name="center"/>
  <anchor x="552.9393939393939" y="1520.0" name="top"/>
  <outline>
    <contour>
      <point x="473.24242424242425" y="0.0" type="line"/>
      <point x="632.2424242424242" y="0.0" type="line"/>
      <point x="632.2424242424242" y="1339.020202020202" type="line"/>
      <point x="1095.141414141414" y="1339.020202020202" type="line"/>
      <point x="1095.141414141414" y="1480.0" type="line"/>
      <point x="10.343434343434344" y="1480.0" type="line"/>
      <point x="10.343434343434344" y="1339.020202020202" type="line"/>
      <point x="473.24242424242425" y="1339.020202020202" type="line"/>
    </contour>
  </outline>
</glyph>
<glyph name="U" format="2">
  <advance width="1326.3636363636363"/>
  <unicode hex="0055"/>
  <anchor x="665.1666666666666" y="0.0" name="bottom"/>
  <anchor x="825.020202020202" y="0.7373737373737376" name="ogonek"/>
  <anchor x="665.1666666666666" y="1520.0" name="top"/>
  <anchor x="1035.8181818181818" y="1480.0" name="topright"/>
  <outline>
    <contour>
      <point x="665.1666666666666" y="-18.525252525252526" type="curve" smooth="yes"/>
      <point x="1019.8787878787879" y="-18.525252525252526"/>
      <point x="1177.4545454545455" y="156.4040404040404"/>
      <point x="1177.4545454545455" y="540.9646464646464" type="curve" smooth="yes"/>
      <point x="1177.4545454545455" y="1480.0" type="line"/>
      <point x="1022.4242424242425" y="1480.0" type="line"/>
      <point x="1022.4242424242425" y="522.429292929293" type="line" smooth="yes"/>
      <point x="1022.4242424242425" y="243.99999999999997"/>
      <point x="913.929292929293" y="119.43434343434339"/>
      <point x="665.1666666666666" y="119.43434343434339" type="curve" smooth="yes"/>
      <point x="416.40404040404036" y="119.43434343434339"/>
      <point x="307.51515151515144" y="243.99999999999997"/>
      <point x="307.51515151515144" y="522.429292929293" type="curve" smooth="yes"/>
      <point x="307.51515151515144" y="1480.0" type="line"/>
      <point x="148.90909090909093" y="1480.0" type="line"/>
      <point x="148.90909090909093" y="540.9646464646464" type="line" smooth="yes"/>
      <point x="148.90909090909093" y="156.4040404040404"/>
      <point x="309.01010101010104" y="-18.525252525252526"/>
    </contour>
  </outline>
</glyph>
<glyph name="V" format="2">
  <advance width="1230.5656565656566"/>
  <unicode hex="0056"/>
  <outline>
    <contour>
      <point x="498.949494949495" y="0.0" type="line"/>
      <point x="731.6161616161615" y="0.0" type="line"/>
      <point x="1223.7626262626263" y="1480.0" type="line"/>
      <point x="1067.3838383838383" y="1480.0" type="line"/>
      <point x="602.0858585858585" y="71.90909090909088" type="line"/>
      <point x="636.2070707070707" y="71.90909090909088" type="line"/>
      <point x="173.87878787878782" y="1480.0" type="line"/>
      <point x="6.803030303030308" y="1480.0" type="line"/>
    </contour>
  </outline>
</glyph>
<glyph name="X" format="2">
  <advance width="1205.8585858585857"/>
  <unicode hex="0058"/>
  <outline>
    <contour>
      <point x="1013.929292929293" y="0.0" type="line"/>
      <point x="1193.6565656565656" y="0.0" type="line"/>
      <point x="695.6262626262626" y="756.1414141414141" type="line"/>
      <point x="602.8636363636364" y="882.9797979797979" type="line"/>
      <point x="209.25252525252517" y="1480.0" type="line"/>
      <point x="29.449494949494962" y="1480.0" type="line"/>
      <point x="509.0757575757576" y="754.8535353535353" type="line"/>
      <point x="601.8383838383838" y="628.0909090909091" type="line"/>
    </contour>
    <contour>
      <point x="9.994949494949513" y="0.0" type="line"/>
      <point x="188.37878787878782" y="0.0" type="line"/>
      <point x="601.8383838383838" y="628.0909090909091" type="line"/>
      <point x="695.6262626262626" y="756.1414141414141" type="line"/>
      <point x="1173.0202020202019" y="1480.0" type="line"/>
      <point x="996.7121212121212" y="1480.0" type="line"/>
      <point x="602.8636363636364" y="882.9797979797979" type="line"/>
      <point x="509.0757575757576" y="754.8535353535353" type="line"/>
    </contour>
  </outline>
</glyph>
<glyph name="bracketleft" format="2">
  <advance width="619.6161616161615"/>
  <unicode hex="005B"/>
  <outline>
    <contour>
      <point x="176.3838383838384" y="-440.0" type="line"/>
      <point x="655.1515151515151" y="-440.0" type="line"/>
      <point x="655.1515151515151" y="-310.08080808080814" type="line"/>
      <point x="333.02020202020196" y="-310.08080808080814" type="line"/>
      <point x="333.02020202020196" y="1486.080808080808" type="line"/>
      <point x="656.4646464646464" y="1486.080808080808" type="line"/>
      <point x="656.4646464646464" y="1616.0" type="line"/>
      <point x="176.3838383838384" y="1616.0" type="line"/>
    </contour>
  </outline>
</glyph>
<glyph name="backslash" format="2">
  <advance width="562.9949494949494"/>
  <unicode hex="005C"/>
  <outline>
    <contour>
      <point x="407.5353535353535" y="-240.0" type="line"/>
      <point x="562.9949494949494" y="-240.0" type="line"/>
      <point x="155.4595959595959" y="1616.0" type="line"/>
      <point x="0.0" y="1616.0" type="line"/>
    </contour>
  </outline>
</glyph>
<glyph name="bracketright" format="2">
  <advance width="619.6161616161615"/>
  <unicode hex="005D"/>
  <outline>
    <contour>
      <point x="-35.535353535353536" y="-440.0" type="line"/>
      <point x="443.2323232323232" y="-440.0" type="line"/>
      <point x="443.2323232323232" y="1616.0" type="line"/>
      <point x="-36.84848484848485" y="1616.0" type="line"/>
      <point x="-36.84848484848485" y="1486.080808080808" type="line"/>
      <point x="286.59595959595964" y="1486.080808080808" type="line"/>
      <point x="286.59595959595964" y="-310.08080808080814" type="line"/>
      <point x="-35.535353535353536" y="-310.08080808080814" type="line"/>
    </contour>
  </outline>
</glyph>
<glyph name="asciicircum" format="2">
  <advance width="1105.151515151515"/>
  <unicode hex="005E"/>
  <outline>
    <contour>
      <point x="96.92929292929294" y="740.0" type="line"/>
      <point x="254.13636363636357" y="740.0" type="line"/>
      <point x="576.9292929292928" y="1394.060606060606" type="line"/>
      <point x="528.2222222222222" y="1394.060606060606" type="line"/>
      <point x="851.0151515151515" y="740.0" type="line"/>
      <point x="1008.2222222222222" y="740.0" type="line"/>
      <point x="632.8484848484848" y="1480.0" type="line"/>
      <point x="470.82828282828285" y="1480.0" type="line"/>
    </contour>
  </outline>
</glyph>
<glyph name="underscore" format="2">
  <advance width="1044.5353535353536"/>
  <unicode hex="005F"/>
  <outline>
    <contour>
      <point x="89.87373737373737" y="-130.05050505050502" type="line"/>
      <point x="954.6616161616162" y="-130.05050505050502" type="line"/>
      <point x="954.6616161616162" y="-0.13131313131313122" type="line"/>
      <point x="89.87373737373737" y="-0.13131313131313122" type="line"/>
    </contour>
  </outline>
</glyph>
<glyph name="grave" format="2">
  <advance width="978.7878787878788"/>
  <unicode hex="0060"/>
  <anchor x="489.3939393939394" y="1200.0" name="_top"/>
  <anchor x="489.3939393939394" y="1582.2626262626263" name="top"/>
  <outline>
    <contour>
      <point x="419.73737373737373" y="1252.4444444444443" type="line"/>
      <point x="559.050505050505" y="1252.4444444444443" type="line"/>
      <point x="369.88888888888886" y="1616.0" type="line"/>
      <point x="204.80808080808083" y="1616.0" type="line"/>
    </contour>
  </outline>
</glyph>
<glyph name="b" format="2">
  <advance width="1047.1262626262626"/>
  <unicode hex="0062"/>
  <anchor x="527.6262626262626" y="0.0" name="bottom"/>
  <anchor x="217.26262626262624" y="1616.0" name="top"/>
  <outline>
    <contour>
      <point x="443.3333333333333" y="-18.656565656565657" type="curve" smooth="yes"/>
      <point x="782.6868686868686" y="-19.05050505050505"/>
      <point x="962.6515151515151" y="167.03535353535352"/>
      <point x="962.6515151515151" y="562.4949494949495" type="curve" smooth="yes"/>
      <point x="962.6515151515151" y="962.959595959596"/>
      <point x="785.0252525252524" y="1101.7777777777778"/>
      <point x="576.9494949494949" y="1101.7777777777778" type="curve" smooth="yes"/>
      <point x="454.6767676767676" y="1101.7777777777778"/>
      <point x="360.7222222222222" y="1047.8232323232323"/>
      <point x="304.66666666666663" y="977.0151515151515" type="curve"/>
      <point x="295.38383838383834" y="977.0151515151515" type="line"/>
      <point x="295.38383838383834" y="1616.0" type="line"/>
      <point x="138.74747474747477" y="1616.0" type="line"/>
      <point x="138.74747474747477" y="27.828282828282823" type="line"/>
      <point x="226.97979797979798" y="-2.3181818181818192"/>
      <point x="341.07575757575756" y="-18.656565656565657"/>
    </contour>
    <contour>
      <point x="453.86868686868684" y="109.8484848484848" type="curve" smooth="yes"/>
      <point x="396.7929292929293" y="109.8484848484848"/>
      <point x="336.2929292929292" y="119.11616161616158"/>
      <point x="295.38383838383834" y="131.12121212121207" type="curve"/>
      <point x="295.38383838383834" y="843.6616161616162" type="line"/>
      <point x="348.79797979797974" y="925.1060606060606"/>
      <point x="439.9444444444444" y="965.3939393939395"/>
      <point x="528.959595959596" y="965.3939393939395" type="curve" smooth="yes"/>
      <point x="684.6565656565657" y="965.3939393939395"/>
      <point x="801.8838383838383" y="881.368686868687"/>
      <point x="801.8838383838383" y="547.7979797979798" type="curve" smooth="yes"/>
      <point x="801.8838383838383" y="230.9191919191919"/>
      <point x="679.4444444444445" y="109.8484848484848"/>
    </contour>
  </outline>
</glyph>
<glyph name="f" format="2">
  <advance width="663.2171717171717"/>
  <unicode hex="0066"/>
  <outline>
    <contour>
      <point x="207.58080808080808" y="0.0" type="line"/>
      <point x="363.03535353535347" y="0.0" type="line"/>
      <point x="363.03535353535347" y="1278.7474747474748" type="line" smooth="yes"/>
      <point x="363.03535353535347" y="1439.1010101010102"/>
      <point x="437.3131313131313" y="1503.030303030303"/>
      <point x="590.1363636363636" y="1503.030303030303" type="curve" smooth="yes"/>
      <point x="633.5151515151515" y="1503.030303030303"/>
      <point x="670.60101010101" y="1499.1868686868688"/>
      <point x="712.7121212121211" y="1491.8686868686868" type="curve"/>
      <point x="712.7121212121211" y="1624.7373737373737" type="line"/>
      <point x="668.3737373737373" y="1632.7373737373737"/>
      <point x="618.5858585858585" y="1636.0"/>
      <point x="575.6212121212121" y="1636.0" type="curve" smooth="yes"/>
      <point x="332.3030303030303" y="1636.0"/>
      <point x="207.58080808080808" y="1509.5454545454545"/>
      <point x="207.58080808080808" y="1272.3383838383838" type="curve" smooth="yes"/>
    </contour>
    <contour>
      <point x="13.338383838383837" y="955.3333333333334" type="line"/>
      <point x="673.8484848484848" y="955.3333333333334" type="line"/>
      <point x="673.8484848484848" y="1085.2525252525252" type="line"/>
      <point x="13.338383838383837" y="1085.2525252525252" type="line"/>
    </contour>
  </outline>
</glyph>
<glyph name="h" format="2">
  <advance width="1055.9040404040404"/>
  <unicode hex="0068"/>
  <anchor x="533.4797979797979" y="0.0" name="bottom"/>
  <anchor x="533.4797979797979" y="542.6262626262626" name="center"/>
  <anchor x="138.74747474747477" y="1354.4242424242425" name="stroke"/>
  <anchor x="533.4797979797979" y="1616.0" name="top"/>
  <outline>
    <contour>
      <point x="138.74747474747477" y="0.0" type="line"/>
      <point x="295.38383838383834" y="0.0" type="line"/>
      <point x="295.38383838383834" y="816.4646464646465" type="line"/>
      <point x="364.28282828282823" y="921.3888888888889"/>
      <point x="478.25252525252523" y="959.0606060606061"/>
      <point x="566.969696969697" y="959.0606060606061" type="curve" smooth="yes"/>
      <point x="689.0959595959596" y="959.0606060606061"/>
      <point x="770.6818181818182" y="903.6717171717172"/>
      <point x="770.6818181818182" y="728.7676767676768" type="curve" smooth="yes"/>
      <point x="770.6818181818182" y="0.0" type="line"/>
      <point x="927.3181818181818" y="0.0" type="line"/>
      <point x="927.3181818181818" y="735.7222222222223" type="line" smooth="yes"/>
      <point x="927.3181818181818" y="1008.7171717171717"/>
      <point x="791.6717171717171" y="1101.7777777777778"/>
      <point x="613.1464646464646" y="1101.7777777777778" type="curve" smooth="yes"/>
      <point x="490.98989898989896" y="1101.7777777777778"/>
      <point x="384.1565656565656" y="1055.8838383838383"/>
      <point x="304.66666666666663" y="964.4797979797979" type="curve"/>
      <point x="295.38383838383834" y="964.4797979797979" type="line"/>
      <point x="295.38383838383834" y="1616.0" type="line"/>
      <point x="138.74747474747477" y="1616.0" type="line"/>
    </contour>
  </outline>
</glyph>
<glyph name="j" format="2">
  <advance width="434.5252525252525"/>
  <unicode hex="006A"/>
  <anchor x="216.60606060606057" y="1202.2121212121212" name="_top"/>
  <anchor x="216.60606060606057" y="1202.2121212121212" name="top"/>
  <outline>
    <contour>
      <point x="74.71717171717168" y="-464.2020202020202" type="line"/>
      <point x="231.6515151515151" y="-258.73737373737373"/>
      <point x="295.7777777777777" y="-82.75757575757576"/>
      <point x="295.7777777777777" y="180.14646464646464" type="curve" smooth="yes"/>
      <point x="295.7777777777777" y="1085.2525252525252" type="line"/>
      <point x="138.74747474747477" y="1085.2525252525252" type="line"/>
      <point x="138.74747474747477" y="169.67676767676767" type="line" smooth="yes"/>
      <point x="138.74747474747477" y="-65.08080808080808"/>
      <point x="90.65656565656566" y="-216.15151515151516"/>
      <point x="-31.11616161616161" y="-393.0656565656566" type="curve"/>
    </contour>
    <contour>
      <point x="216.60606060606057" y="1322.5555555555557" type="curve" smooth="yes"/>
      <point x="287.53535353535347" y="1322.5555555555557"/>
      <point x="326.40404040404036" y="1360.4747474747476"/>
      <point x="326.40404040404036" y="1423.1616161616162" type="curve" smooth="yes"/>
      <point x="326.40404040404036" y="1485.8484848484848"/>
      <point x="287.53535353535347" y="1525.2424242424242"/>
      <point x="216.60606060606057" y="1525.2424242424242" type="curve" smooth="yes"/>
      <point x="145.6767676767677" y="1525.2424242424242"/>
      <point x="106.80808080808083" y="1485.8484848484848"/>
      <point x="106.80808080808083" y="1423.1616161616162" type="curve" smooth="yes"/>
      <point x="106.80808080808083" y="1360.4747474747476"/>
      <point x="145.6767676767677" y="1322.5555555555557"/>
    </contour>
  </outline>
</glyph>
<glyph name="k" format="2">
  <advance width="969.8737373737373"/>
  <unicode hex="006B"/>
  <anchor x="526.2171717171717" y="0.0" name="bottom"/>
  <anchor x="217.26262626262624" y="1616.0" name="top"/>
  <outline>
    <contour>
      <point x="818.8636363636364" y="0.0" type="line"/>
      <point x="995.4141414141413" y="0.0" type="line"/>
      <point x="570.8686868686868" y="580.7020202020202" type="line"/>
      <point x="570.8686868686868" y="534.8535353535353" type="line"/>
      <point x="962.2323232323231" y="1085.2525252525252" type="line"/>
      <point x="789.4141414141415" y="1085.2525252525252" type="line"/>
      <point x="409.48989898989896" y="555.6767676767677" type="line"/>
    </contour>
    <contour>
      <point x="275.18181818181813" y="490.32323232323233" type="line"/>
      <point x="475.5454545454545" y="490.32323232323233" type="line"/>
      <point x="475.5454545454545" y="621.030303030303" type="line"/>
      <point x="275.18181818181813" y="621.030303030303" type="line"/>
    </contour>
    <contour>
      <point x="138.74747474747477" y="0.0" type="line"/>
      <point x="295.38383838383834" y="0.0" type="line"/>
      <point x="295.38383838383834" y="1616.0" type="line"/>
      <point x="138.74747474747477" y="1616.0" type="line"/>
    </contour>
  </outline>
</glyph>
<glyph name="l" format="2">
  <advance width="434.1313131313131"/>
  <unicode hex="006C"/>
  <anchor x="217.1313131313131" y="0.0" name="bottom"/>
  <anchor x="398.81818181818176" y="1616.0" name="caronalt"/>
  <anchor x="473.1666666666666" y="794.0" name="periodcentered"/>
  <anchor x="217.26262626262624" y="714.0" name="slash"/>
  <anchor x="217.26262626262624" y="1616.0" name="top"/>
  <outline>
    <contour>
      <point x="138.74747474747477" y="0.0" type="line"/>
      <point x="295.38383838383834" y="0.0" type="line"/>
      <point x="295.38383838383834" y="1616.0" type="line"/>
      <point x="138.74747474747477" y="1616.0" type="line"/>
    </contour>
  </outline>
</glyph>
<glyph name="p" format="2">
  <advance width="1047.1262626262626"/>
  <unicode hex="0070"/>
  <outline>
    <contour>
      <point x="138.74747474747477" y="-440.0" type="line"/>
      <point x="295.38383838383834" y="-440.0" type="line"/>
      <point x="295.38383838383834" y="-8.176767676767675" type="line"/>
      <point x="339.66666666666663" y="-13.969696969696969"/>
      <point x="393.4292929292929" y="-18.656565656565657"/>
      <point x="442.4242424242424" y="-18.656565656565657" type="curve" smooth="yes"/>
      <point x="783.3989898989898" y="-18.656565656565657"/>
      <point x="962.6515151515151" y="167.8232323232323"/>
      <point x="962.6515151515151" y="562.4949494949495" type="curve" smooth="yes"/>
      <point x="962.6515151515151" y="964.5353535353536"/>
      <point x="780.4545454545454" y="1101.7777777777778"/>
      <point x="565.6464646464647" y="1101.7777777777778" type="curve" smooth="yes"/>
      <point x="444.040404040404" y="1101.7777777777778"/>
      <point x="349.3232323232323" y="1045.4595959595958"/>
      <point x="294.030303030303" y="969.4393939393939" type="curve"/>
      <point x="284.03535353535347" y="969.4393939393939" type="line"/>
      <point x="272.5454545454545" y="1085.2525252525252" type="line"/>
      <point x="138.74747474747477" y="1085.2525252525252" type="line"/>
    </contour>
    <contour>
      <point x="448.33838383838383" y="109.97979797979792" type="curve" smooth="yes"/>
      <point x="397.97474747474746" y="109.97979797979792"/>
      <point x="336.2929292929292" y="116.29797979797976"/>
      <point x="295.38383838383834" y="125.19696969696966" type="curve"/>
      <point x="295.38383838383834" y="837.39898989899" type="line"/>
      <point x="348.9292929292929" y="924.5808080808081"/>
      <point x="440.75757575757575" y="965.7878787878789"/>
      <point x="528.8737373737374" y="965.7878787878789" type="curve" smooth="yes"/>
      <point x="684.5252525252525" y="965.7878787878789"/>
      <point x="801.8838383838383" y="881.7626262626263"/>
      <point x="801.8838383838383" y="547.929292929293" type="curve" smooth="yes"/>
      <point x="801.8838383838383" y="231.05050505050502"/>
      <point x="679.4444444444445" y="109.97979797979792"/>
    </contour>
  </outline>
</glyph>
<glyph name="q" format="2">
  <advance width="1047.1262626262626"/>
  <unicode hex="0071"/>
  <outline>
    <contour>
      <point x="751.7424242424242" y="-440.0" type="line"/>
      <point x="908.3787878787878" y="-440.0" type="line"/>
      <point x="908.3787878787878" y="1055.2929292929293" type="line"/>
      <point x="823.540404040404" y="1083.939393939394"/>
      <point x="706.050505050505" y="1101.7777777777778"/>
      <point x="603.7929292929293" y="1101.7777777777778" type="curve" smooth="yes"/>
      <point x="264.43939393939394" y="1101.7777777777778"/>
      <point x="84.47474747474749" y="916.0858585858585"/>
      <point x="84.47474747474749" y="520.6262626262626" type="curve" smooth="yes"/>
      <point x="84.47474747474749" y="120.16161616161615"/>
      <point x="262.1010101010101" y="-18.656565656565657"/>
      <point x="470.17676767676767" y="-18.656565656565657" type="curve" smooth="yes"/>
      <point x="592.4494949494949" y="-18.656565656565657"/>
      <point x="686.4040404040404" y="35.2979797979798"/>
      <point x="742.459595959596" y="106.10606060606061" type="curve"/>
      <point x="751.7424242424242" y="106.10606060606061" type="line"/>
    </contour>
    <contour>
      <point x="518.1666666666666" y="117.72727272727268" type="curve" smooth="yes"/>
      <point x="362.46969696969694" y="117.72727272727268"/>
      <point x="245.2424242424242" y="201.7525252525252"/>
      <point x="245.2424242424242" y="535.3232323232323" type="curve" smooth="yes"/>
      <point x="245.2424242424242" y="852.2020202020202"/>
      <point x="368.9949494949495" y="973.2727272727274"/>
      <point x="592.8636363636364" y="973.2727272727274" type="curve" smooth="yes"/>
      <point x="650.070707070707" y="973.2727272727274"/>
      <point x="710.8333333333334" y="964.3737373737374"/>
      <point x="751.7424242424242" y="954.2373737373738" type="curve"/>
      <point x="751.7424242424242" y="239.45959595959593" type="line"/>
      <point x="698.3282828282828" y="158.01515151515147"/>
      <point x="606.4444444444445" y="117.72727272727268"/>
    </contour>
  </outline>
</glyph>
<glyph name="v" format="2">
  <advance width="983.8838383838383"/>
  <unicode hex="0076"/>
  <anchor x="492.8636363636363" y="0.0" name="bottom"/>
  <anchor x="492.8636363636363" y="1200.0" name="top"/>
  <outline>
    <contour>
      <point x="389.84343434343435" y="0.0" type="line"/>
      <point x="593.9090909090909" y="0.0" type="line"/>
      <point x="973.131313131313" y="1085.2525252525252" type="line"/>
      <point x="813.6717171717172" y="1085.2525252525252" type="line"/>
      <point x="484.3333333333333" y="112.73737373737369" type="line"/>
      <point x="506.17171717171715" y="112.73737373737369" type="line"/>
      <point x="176.83333333333326" y="1085.2525252525252" type="line"/>
      <point x="10.752525252525258" y="1085.2525252525252" type="line"/>
    </contour>
  </outline>
</glyph>
<glyph name="x" format="2">
  <advance width="932.9646464646464"/>
  <unicode hex="0078"/>
  <anchor x="467.4040404040404" y="0.0" name="bottom"/>
  <anchor x="467.7979797979798" y="1200.0" name="top"/>
  <outline>
    <contour>
      <point x="749.7323232323232" y="0.0" type="line"/>
      <point x="926.3585858585858" y="0.0" type="line"/>
      <point x="559.1666666666666" y="549.2828282828283" type="line"/>
      <point x="468.58585858585855" y="667.4494949494949" type="line"/>
      <point x="191.49494949494942" y="1085.2525252525252" type="line"/>
      <point x="14.86868686868688" y="1085.2525252525252" type="line"/>
      <point x="373.51010101010104" y="546.6262626262626" type="line"/>
      <point x="465.27272727272725" y="430.3535353535354" type="line"/>
    </contour>
    <contour>
      <point x="9.106060606060616" y="0.0" type="line"/>
      <point x="181.3434343434343" y="0.0" type="line"/>
      <point x="465.27272727272725" y="430.3535353535354" type="line"/>
      <point x="559.1666666666666" y="549.2828282828283" type="line"/>
      <point x="917.151515151515" y="1085.2525252525252" type="line"/>
      <point x="745.6515151515151" y="1085.2525252525252" type="line"/>
      <point x="468.58585858585855" y="667.4494949494949" type="line"/>
      <point x="373.51010101010104" y="546.6262626262626" type="line"/>
    </contour>
  </outline>
</glyph>
<glyph name="z" format="2">
  <advance width="848.6717171717171"/>
  <unicode hex="007A"/>
  <anchor x="428.7929292929293" y="0.0" name="bottom"/>
  <anchor x="428.7929292929293" y="1200.0" name="top"/>
  <outline>
    <contour>
      <point x="56.71212121212121" y="0.0" type="line"/>
      <point x="799.6363636363636" y="0.0" type="line"/>
      <point x="799.6363636363636" y="129.91919191919186" type="line"/>
      <point x="222.34343434343427" y="129.91919191919186" type="line"/>
      <point x="222.34343434343427" y="92.20707070707067" type="line"/>
      <point x="788.8989898989898" y="988.7878787878789" type="line"/>
      <point x="788.8989898989898" y="1085.2525252525252" type="line"/>
      <point x="67.44949494949495" y="1085.2525252525252" type="line"/>
      <point x="67.44949494949495" y="955.3333333333334" type="line"/>
      <point x="623.2676767676768" y="955.3333333333334" type="line"/>
      <point x="623.2676767676768" y="993.0454545454546" type="line"/>
      <point x="56.71212121212121" y="96.46464646464642" type="line"/>
    </contour>
  </outline>
</glyph>
<glyph name="braceleft" format="2">
  <advance width="659.6161616161615"/>
  <unicode hex="007B"/>
  <outline>
    <contour>
      <point x="558.4747474747475" y="-460.0" type="curve" smooth="yes"/>
      <point x="610.2222222222222" y="-460.0"/>
      <point x="660.030303030303" y="-455.47474747474746"/>
      <point x="696.4646464646464" y="-448.949494949495" type="curve"/>
      <point x="696.4646464646464" y="-327.0303030303031" type="line"/>
      <point x="574.6969696969696" y="-327.0303030303031" type="line" smooth="yes"/>
      <point x="439.48989898989896" y="-327.0303030303031"/>
      <point x="373.02020202020196" y="-267.47979797979804"/>
      <point x="373.02020202020196" y="-132.95454545454547" type="curve" smooth="yes"/>
      <point x="373.02020202020196" y="390.34343434343435" type="line" smooth="yes"/>
      <point x="373.02020202020196" y="534.7272727272727"/>
      <point x="312.3131313131313" y="616.1818181818181"/>
      <point x="167.2020202020202" y="635.3535353535353" type="curve"/>
      <point x="167.2020202020202" y="613.89898989899" type="line"/>
      <point x="312.3131313131313" y="633.070707070707"/>
      <point x="373.02020202020196" y="714.5252525252525"/>
      <point x="373.02020202020196" y="858.9090909090909" type="curve" smooth="yes"/>
      <point x="373.02020202020196" y="1308.9545454545455" type="line" smooth="yes"/>
      <point x="373.02020202020196" y="1443.479797979798"/>
      <point x="439.48989898989896" y="1503.030303030303"/>
      <point x="574.6969696969696" y="1503.030303030303" type="curve" smooth="yes"/>
      <point x="696.4646464646464" y="1503.030303030303" type="line"/>
      <point x="696.4646464646464" y="1624.949494949495" type="line"/>
      <point x="660.030303030303" y="1631.4747474747476"/>
      <point x="610.2222222222222" y="1636.0"/>
      <point x="558.4747474747475" y="1636.0" type="curve" smooth="yes"/>
      <point x="332.2828282828283" y="1636.0"/>
      <point x="216.3838383838384" y="1524.1262626262626"/>
      <point x="216.3838383838384" y="1305.0" type="curve" smooth="yes"/>
      <point x="216.3838383838384" y="850.4949494949495" type="line" smooth="yes"/>
      <point x="216.3838383838384" y="740.4343434343434"/>
      <point x="159.63636363636365" y="689.5858585858585"/>
      <point x="56.94949494949495" y="689.5858585858585" type="curve" smooth="yes"/>
      <point x="32.873737373737384" y="689.5858585858585" type="line"/>
      <point x="32.873737373737384" y="559.6666666666667" type="line"/>
      <point x="56.94949494949495" y="559.6666666666667" type="line" smooth="yes"/>
      <point x="159.63636363636365" y="559.6666666666667"/>
      <point x="216.3838383838384" y="508.81818181818187"/>
      <point x="216.3838383838384" y="398.75757575757575" type="curve" smooth="yes"/>
      <point x="216.3838383838384" y="-129.0" type="line" smooth="yes"/>
      <point x="216.3838383838384" y="-348.12626262626264"/>
      <point x="332.2828282828283" y="-460.0"/>
    </contour>
  </outline>
</glyph>
<glyph name="bar" format="2">
  <advance width="457.45454545454544"/>
  <unicode hex="007C"/>
  <outline>
    <contour>
      <point x="156.3838383838384" y="-440.0" type="line"/>
      <point x="301.07070707070704" y="-440.0" type="line"/>
      <point x="301.07070707070704" y="1616.0" type="line"/>
      <point x="156.3838383838384" y="1616.0" type="line"/>
    </contour>
  </outline>
</glyph>
<glyph name="braceright" format="2">
  <advance width="659.6161616161615"/>
  <unicode hex="007D"/>
  <outline>
    <contour>
      <point x="101.14141414141412" y="-460.0" type="curve" smooth="yes"/>
      <point x="327.3333333333333" y="-460.0"/>
      <point x="443.2323232323232" y="-348.12626262626264"/>
      <point x="443.2323232323232" y="-129.0" type="curve" smooth="yes"/>
      <point x="443.2323232323232" y="398.75757575757575" type="line" smooth="yes"/>
      <point x="443.2323232323232" y="508.81818181818187"/>
      <point x="499.9797979797979" y="559.6666666666667"/>
      <point x="602.6666666666666" y="559.6666666666667" type="curve" smooth="yes"/>
      <point x="626.7424242424242" y="559.6666666666667" type="line"/>
      <point x="626.7424242424242" y="689.5858585858585" type="line"/>
      <point x="602.6666666666666" y="689.5858585858585" type="line" smooth="yes"/>
      <point x="499.9797979797979" y="689.5858585858585"/>
      <point x="443.2323232323232" y="740.4343434343434"/>
      <point x="443.2323232323232" y="850.4949494949495" type="curve" smooth="yes"/>
      <point x="443.2323232323232" y="1305.0" type="line" smooth="yes"/>
      <point x="443.2323232323232" y="1524.1262626262626"/>
      <point x="327.3333333333333" y="1636.0"/>
      <point x="101.14141414141412" y="1636.0" type="curve" smooth="yes"/>
      <point x="49.393939393939384" y="1636.0"/>
      <point x="-0.4141414141414206" y="1631.4747474747476"/>
      <point x="-36.84848484848485" y="1624.949494949495" type="curve"/>
      <point x="-36.84848484848485" y="1503.030303030303" type="line"/>
      <point x="84.91919191919192" y="1503.030303030303" type="line" smooth="yes"/>
      <point x="220.12626262626264" y="1503.030303030303"/>
      <point x="286.59595959595964" y="1443.479797979798"/>
      <point x="286.59595959595964" y="1308.9545454545455" type="curve" smooth="yes"/>
      <point x="286.59595959595964" y="858.9090909090909" type="line" smooth="yes"/>
      <point x="286.59595959595964" y="714.5252525252525"/>
      <point x="348.4848484848485" y="633.070707070707"/>
      <point x="492.4141414141414" y="613.89898989899" type="curve"/>
      <point x="492.4141414141414" y="635.3535353535353" type="line"/>
      <point x="348.4848484848485" y="616.1818181818181"/>
      <point x="286.59595959595964" y="534.7272727272727"/>
      <point x="286.59595959595964" y="390.34343434343435" type="curve" smooth="yes"/>
      <point x="286.59595959595964" y="-132.95454545454547" type="line" smooth="yes"/>
      <point x="286.59595959595964" y="-267.47979797979804"/>
      <point x="220.12626262626264" y="-327.0303030303031"/>
      <point x="84.91919191919192" y="-327.0303030303031" type="curve" smooth="yes"/>
      <point x="-36.84848484848485" y="-327.0303030303031" type="line"/>
      <point x="-36.84848484848485" y="-448.949494949495" type="line"/>
      <point x="-0.4141414141414206" y="-455.47474747474746"/>
      <point x="49.393939393939384" y="-460.0"/>
    </contour>
  </outline>
</glyph>
<glyph name="asciitilde" format="2">
  <advance width="1048.7171717171718"/>
  <unicode hex="007E"/>
  <outline>
    <contour>
      <point x="703.9747474747475" y="633.7979797979798" type="curve" smooth="yes"/>
      <point x="789.9848484848485" y="633.7979797979798"/>
      <point x="861.0353535353536" y="665.2727272727273"/>
      <point x="911.2070707070707" y="726.9494949494949" type="curve"/>
      <point x="911.2070707070707" y="869.3535353535353" type="line"/>
      <point x="850.3787878787879" y="795.7777777777777"/>
      <point x="784.4090909090909" y="760.8282828282828"/>
      <point x="703.5505050505051" y="760.8282828282828" type="curve" smooth="yes"/>
      <point x="592.9848484848485" y="760.8282828282828"/>
      <point x="484.0959595959596" y="877.3535353535353"/>
      <point x="344.74242424242425" y="877.3535353535353" type="curve" smooth="yes"/>
      <point x="258.73232323232327" y="877.3535353535353"/>
      <point x="187.6818181818182" y="845.8787878787879"/>
      <point x="137.510101010101" y="784.2020202020202" type="curve"/>
      <point x="137.510101010101" y="641.7979797979798" type="line"/>
      <point x="198.33838383838383" y="715.3737373737374"/>
      <point x="264.30808080808083" y="750.3232323232323"/>
      <point x="345.1666666666667" y="750.3232323232323" type="curve" smooth="yes"/>
      <point x="455.7323232323232" y="750.3232323232323"/>
      <point x="564.6212121212121" y="633.7979797979798"/>
    </contour>
  </outline>
</glyph>
<glyph name="exclamdown" format="2">
  <advance width="475.2626262626262"/>
  <unicode hex="00A1"/>
  <outline>
    <contour>
      <point x="188.15656565656565" y="707.5353535353536" type="line"/>
      <point x="154.0959595959596" y="164.91919191919195" type="line"/>
      <point x="154.0959595959596" y="-380.0" type="line"/>
      <point x="321.16666666666663" y="-380.0" type="line"/>
      <point x="321.16666666666663" y="164.91919191919195" type="line"/>
      <point x="288.28787878787875" y="707.5353535353536" type="line"/>
    </contour>
    <contour>
      <point x="237.6313131313131" y="1097.8787878787878" type="curve" smooth="yes"/>
      <point x="170.77272727272728" y="1097.8787878787878"/>
      <point x="124.41919191919193" y="1055.6262626262626"/>
      <point x="124.41919191919193" y="987.6868686868687" type="curve" smooth="yes"/>
      <point x="124.41919191919193" y="919.7474747474748"/>
      <point x="169.72222222222223" y="876.0202020202021"/>
      <point x="237.6313131313131" y="876.0202020202021" type="curve" smooth="yes"/>
      <point x="305.540404040404" y="876.0202020202021"/>
      <point x="350.8434343434343" y="920.7979797979799"/>
      <point x="350.8434343434343" y="987.6868686868687" type="curve" smooth="yes"/>
      <point x="350.8434343434343" y="1054.5757575757575"/>
      <point x="304.48989898989896" y="1097.8787878787878"/>
    </contour>
  </outline>
</glyph>
<glyph name="cent" format="2">
  <advance width="808.540404040404"/>
  <unicode hex="00A2"/>
  <outline>
    <contour>
      <point x="534.3838383838383" y="-19.05050505050505" type="curve" smooth="yes"/>
      <point x="614.9545454545454" y="-19.05050505050505"/>
      <point x="697.1818181818181" y="-5.55050505050505"/>
      <point x="777.9747474747475" y="22.873737373737377" type="curve"/>
      <point x="777.9747474747475" y="157.31818181818176" type="line"/>
      <point x="691.7020202020202" y="128.23232323232318"/>
      <point x="622.560606060606" y="116.02020202020196"/>
      <point x="560.3989898989898" y="116.02020202020196" type="curve" smooth="yes"/>
      <point x="354.8636363636363" y="116.02020202020196"/>
      <point x="247.73737373737367" y="222.4191919191919"/>
      <point x="247.73737373737367" y="546.10101010101" type="curve" smooth="yes"/>
      <point x="247.73737373737367" y="862.2878787878789"/>
      <point x="359.7373737373737" y="966.7070707070708"/>
      <point x="592.9848484848485" y="966.7070707070708" type="curve" smooth="yes"/>
      <point x="648.590909090909" y="966.7070707070708"/>
      <point x="712.0454545454545" y="959.4949494949495"/>
      <point x="777.9747474747475" y="943.0151515151515" type="curve"/>
      <point x="777.9747474747475" y="1077.4595959595958" type="line"/>
      <point x="712.1363636363636" y="1094.409090909091"/>
      <point x="643.7727272727273" y="1101.7777777777778"/>
      <point x="577.4444444444445" y="1101.7777777777778" type="curve" smooth="yes"/>
      <point x="260.9090909090909" y="1101.7777777777778"/>
      <point x="84.47474747474749" y="944.5555555555555"/>
      <point x="84.47474747474749" y="541.969696969697" type="curve" smooth="yes"/>
      <point x="84.47474747474749" y="141.77272727272725"/>
      <point x="245.73232323232324" y="-19.05050505050505"/>
    </contour>
    <contour>
      <point x="456.16161616161617" y="-240.0" type="line"/>
      <point x="592.6464646464647" y="-240.0" type="line"/>
      <point x="592.6464646464647" y="15.757575757575745" type="line"/>
      <point x="456.16161616161617" y="15.757575757575745" type="line"/>
    </contour>
    <contour>
      <point x="456.16161616161617" y="1069.4949494949494" type="line"/>
      <point x="592.6464646464647" y="1069.4949494949494" type="line"/>
      <point x="592.6464646464647" y="1325.2525252525252" type="line"/>
      <point x="456.16161616161617" y="1325.2525252525252" type="line"/>
    </contour>
  </outline>
</glyph>
<glyph name="sterling" format="2">
  <advance width="1178.4646464646464"/>
  <unicode hex="00A3"/>
  <outline>
    <contour>
      <point x="282.3535353535354" y="56.161616161616145" type="line"/>
      <point x="438.33333333333326" y="56.161616161616145" type="line"/>
      <point x="438.33333333333326" y="1061.0404040404042" type="line" smooth="yes"/>
      <point x="438.33333333333326" y="1274.641414141414"/>
      <point x="553.6616161616162" y="1361.4848484848485"/>
      <point x="799.4646464646464" y="1361.4848484848485" type="curve" smooth="yes"/>
      <point x="893.2020202020202" y="1361.4848484848485"/>
      <point x="990.7929292929292" y="1348.959595959596"/>
      <point x="1083.5353535353536" y="1320.6919191919192" type="curve"/>
      <point x="1083.5353535353536" y="1459.2070707070707" type="line"/>
      <point x="1001.4090909090909" y="1484.6313131313132"/>
      <point x="891.7575757575758" y="1498.5252525252524"/>
      <point x="792.2474747474747" y="1498.5252525252524" type="curve" smooth="yes"/>
      <point x="456.95959595959596" y="1498.5252525252524"/>
      <point x="282.3535353535354" y="1351.2626262626263"/>
      <point x="282.3535353535354" y="1057.3636363636365" type="curve" smooth="yes"/>
    </contour>
    <contour>
      <point x="74.74747474747475" y="0.0" type="line"/>
      <point x="1119.2424242424242" y="0.0" type="line"/>
      <point x="1119.2424242424242" y="135.9595959595959" type="line"/>
      <point x="74.74747474747475" y="135.9595959595959" type="line"/>
    </contour>
    <contour>
      <point x="74.74747474747475" y="686.3535353535353" type="line"/>
      <point x="921.969696969697" y="686.3535353535353" type="line"/>
      <point x="921.969696969697" y="813.6464646464647" type="line"/>
      <point x="74.74747474747475" y="813.6464646464647" type="line"/>
    </contour>
  </outline>
</glyph>
<glyph name="yen" format="2">
  <advance width="1145.040404040404"/>
  <unicode hex="00A5"/>
  <outline>
    <contour>
      <point x="493.67676767676767" y="0.0" type="line"/>
      <point x="652.2828282828282" y="0.0" type="line"/>
      <point x="652.2828282828282" y="724.3080808080808" type="line"/>
      <point x="617.9494949494949" y="601.969696969697" type="line"/>
      <point x="1153.0555555555554" y="1480.0" type="line"/>
      <point x="990.7525252525253" y="1480.0" type="line"/>
      <point x="550.6262626262626" y="761.0" type="line"/>
      <point x="601.8484848484848" y="761.0" type="line"/>
      <point x="162.56565656565652" y="1480.0" type="line"/>
      <point x="-10.510101010100993" y="1480.0" type="line"/>
      <point x="528.010101010101" y="601.969696969697" type="line"/>
      <point x="493.67676767676767" y="725.8838383838383" type="line"/>
    </contour>
    <contour>
      <point x="186.3030303030303" y="300.1717171717172" type="line"/>
      <point x="959.6565656565656" y="300.1717171717172" type="line"/>
      <point x="959.6565656565656" y="409.86868686868684" type="line"/>
      <point x="186.3030303030303" y="409.86868686868684" type="line"/>
    </contour>
    <contour>
      <point x="186.3030303030303" y="638.1313131313132" type="line"/>
      <point x="959.6565656565656" y="638.1313131313132" type="line"/>
      <point x="959.6565656565656" y="747.8282828282828" type="line"/>
      <point x="186.3030303030303" y="747.8282828282828" type="line"/>
    </contour>
  </outline>
</glyph>
<glyph name="brokenbar" format="2">
  <advance width="457.45454545454544"/>
  <unicode hex="00A6"/>
  <outline>
    <contour>
      <point x="156.3838383838384" y="836.0" type="line"/>
      <point x="301.07070707070704" y="836.0" type="line"/>
      <point x="301.07070707070704" y="1616.0" type="line"/>
      <point x="156.3838383838384" y="1616.0" type="line"/>
    </contour>
    <contour>
      <point x="156.3838383838384" y="-440.0" type="line"/>
      <point x="301.07070707070704" y="-440.0" type="line"/>
      <point x="301.07070707070704" y="340.0" type="line"/>
      <point x="156.3838383838384" y="340.0" type="line"/>
    </contour>
  </outline>
</glyph>
<glyph name="section" format="2">
  <advance width="937.3737373737373"/>
  <unicode hex="00A7"/>
  <outline>
    <contour>
      <point x="402.67676767676767" y="-19.05050505050505" type="curve" smooth="yes"/>
      <point x="663.10101010101" y="-19.05050505050505"/>
      <point x="804.3333333333333" y="100.82828282828282"/>
      <point x="804.3333333333333" y="295.67676767676767" type="curve" smooth="yes"/>
      <point x="804.3333333333333" y="443.5353535353535"/>
      <point x="731.6969696969696" y="533.5151515151515"/>
      <point x="542.2070707070707" y="579.969696969697" type="curve" smooth="yes"/>
      <point x="401.8989898989899" y="612.2222222222222" type="line" smooth="yes"/>
      <point x="287.20202020202015" y="640.469696969697"/>
      <point x="240.20707070707067" y="699.0454545454545"/>
      <point x="240.20707070707067" y="792.89898989899" type="curve" smooth="yes"/>
      <point x="240.20707070707067" y="857.8888888888889"/>
      <point x="269.87373737373736" y="912.959595959596"/>
      <point x="329.6515151515151" y="955.6919191919192" type="curve"/>
      <point x="236.73737373737373" y="1023.4848484848485" type="line"/>
      <point x="155.62121212121212" y="968.489898989899"/>
      <point x="105.55555555555557" y="886.3888888888889"/>
      <point x="105.55555555555557" y="785.459595959596" type="curve" smooth="yes"/>
      <point x="105.55555555555557" y="631.5909090909091"/>
      <point x="182.47979797979798" y="537.4848484848485"/>
      <point x="359.8939393939394" y="494.16161616161617" type="curve" smooth="yes"/>
      <point x="500.07070707070704" y="461.64646464646466" type="line" smooth="yes"/>
      <point x="607.3333333333334" y="434.9747474747475"/>
      <point x="656.6212121212121" y="388.1868686868687"/>
      <point x="656.6212121212121" y="286.6060606060606" type="curve" smooth="yes"/>
      <point x="656.6212121212121" y="170.75757575757572"/>
      <point x="577.3737373737374" y="104.20202020202015"/>
      <point x="402.46969696969694" y="104.20202020202015" type="curve" smooth="yes"/>
      <point x="315.22222222222223" y="104.20202020202015"/>
      <point x="230.84848484848484" y="116.35858585858581"/>
      <point x="133.7171717171717" y="145.30808080808077" type="curve"/>
      <point x="133.7171717171717" y="20.580808080808083" type="line"/>
      <point x="218.4141414141414" y="-5.681818181818181"/>
      <point x="309.6313131313131" y="-19.05050505050505"/>
    </contour>
    <contour>
      <point x="698.989898989899" y="452.9949494949495" type="line"/>
      <point x="780.6262626262626" y="507.4090909090909"/>
      <point x="831.8181818181818" y="588.7171717171717"/>
      <point x="831.8181818181818" y="697.6464646464647" type="curve" smooth="yes"/>
      <point x="831.8181818181818" y="853.5151515151515"/>
      <point x="759.1818181818181" y="946.5454545454545"/>
      <point x="572.9747474747475" y="991.9494949494949" type="curve" smooth="yes"/>
      <point x="431.48484848484844" y="1023.9393939393939" type="line" smooth="yes"/>
      <point x="323.48484848484844" y="1050.611111111111"/>
      <point x="279.4393939393939" y="1103.510101010101"/>
      <point x="279.4393939393939" y="1192.7676767676767" type="curve" smooth="yes"/>
      <point x="279.4393939393939" y="1292.449494949495"/>
      <point x="352.1262626262626" y="1373.2727272727273"/>
      <point x="547.6414141414141" y="1373.2727272727273" type="curve" smooth="yes"/>
      <point x="623.7171717171717" y="1373.2727272727273"/>
      <point x="688.7323232323232" y="1366.2727272727273"/>
      <point x="768.9696969696969" y="1346.3232323232323" type="curve"/>
      <point x="768.9696969696969" y="1471.050505050505" type="line"/>
      <point x="698.2121212121211" y="1487.5252525252524"/>
      <point x="623.3333333333333" y="1496.5252525252524"/>
      <point x="539.6313131313132" y="1496.5252525252524" type="curve" smooth="yes"/>
      <point x="265.1515151515151" y="1496.5252525252524"/>
      <point x="131.72727272727275" y="1366.2727272727273"/>
      <point x="131.72727272727275" y="1184.8030303030303" type="curve" smooth="yes"/>
      <point x="131.72727272727275" y="1041.5707070707072"/>
      <point x="208.12626262626262" y="949.5959595959596"/>
      <point x="390.66161616161617" y="905.6161616161617" type="curve" smooth="yes"/>
      <point x="530.8383838383838" y="873.3636363636364" type="line" smooth="yes"/>
      <point x="644.7979797979798" y="845.1161616161617"/>
      <point x="697.1666666666666" y="792.6515151515151"/>
      <point x="697.1666666666666" y="688.4444444444445" type="curve" smooth="yes"/>
      <point x="697.1666666666666" y="618.7626262626262"/>
      <point x="667.7626262626262" y="567.060606060606"/>
      <point x="605.1060606060606" y="524.8585858585858" type="curve"/>
    </contour>
  </outline>
</glyph>
<glyph name="dieresis" format="2">
  <advance width="978.7878787878788"/>
  <unicode hex="00A8"/>
  <anchor x="489.3939393939394" y="1200.0" name="_top"/>
  <anchor x="489.3939393939394" y="1571.7575757575758" name="top"/>
  <outline>
    <contour>
      <point x="688.5656565656566" y="1322.5757575757575" type="curve" smooth="yes"/>
      <point x="750.1717171717171" y="1322.5757575757575"/>
      <point x="789.8282828282828" y="1359.969696969697"/>
      <point x="789.8282828282828" y="1420.949494949495" type="curve" smooth="yes"/>
      <point x="789.8282828282828" y="1481.9292929292928"/>
      <point x="750.1717171717171" y="1520.7979797979797"/>
      <point x="688.5656565656566" y="1520.7979797979797" type="curve" smooth="yes"/>
      <point x="626.959595959596" y="1520.7979797979797"/>
      <point x="587.3030303030303" y="1481.9292929292928"/>
      <point x="587.3030303030303" y="1420.949494949495" type="curve" smooth="yes"/>
      <point x="587.3030303030303" y="1359.969696969697"/>
      <point x="626.959595959596" y="1322.5757575757575"/>
    </contour>
    <contour>
      <point x="290.22222222222223" y="1322.5757575757575" type="curve" smooth="yes"/>
      <point x="351.8282828282828" y="1322.5757575757575"/>
      <point x="391.48484848484844" y="1359.969696969697"/>
      <point x="391.48484848484844" y="1420.949494949495" type="curve" smooth="yes"/>
      <point x="391.48484848484844" y="1481.9292929292928"/>
      <point x="351.8282828282828" y="1520.7979797979797"/>
      <point x="290.22222222222223" y="1520.7979797979797" type="curve" smooth="yes"/>
      <point x="228.61616161616163" y="1520.7979797979797"/>
      <point x="188.959595959596" y="1481.9292929292928"/>
      <point x="188.959595959596" y="1420.949494949495" type="curve" smooth="yes"/>
      <point x="188.959595959596" y="1359.969696969697"/>
      <point x="228.61616161616163" y="1322.5757575757575"/>
    </contour>
  </outline>
</glyph>
<glyph name="copyright" format="2">
  <advance width="1682.7272727272727"/>
  <unicode hex="00A9"/>
  <outline>
    <contour>
      <point x="841.3636363636364" y="-22.0" type="curve" smooth="yes"/>
      <point x="1288.939393939394" y="-22.0"/>
      <point x="1586.939393939394" y="282.0"/>
      <point x="1586.939393939394" y="740.0" type="curve" smooth="yes"/>
      <point x="1586.939393939394" y="1198.0"/>
      <point x="1288.939393939394" y="1502.0"/>
      <point x="841.3636363636364" y="1502.0" type="curve" smooth="yes"/>
      <point x="393.7878787878788" y="1502.0"/>
      <point x="95.7878787878788" y="1198.0"/>
      <point x="95.7878787878788" y="740.0" type="curve" smooth="yes"/>
      <point x="95.7878787878788" y="282.0"/>
      <point x="393.7878787878788" y="-22.0"/>
    </contour>
    <contour>
      <point x="884.8181818181819" y="324.0" type="curve" smooth="yes"/>
      <point x="963.8686868686868" y="324.0"/>
      <point x="1035.8686868686868" y="336.0"/>
      <point x="1099.141414141414" y="362.8484848484849" type="curve"/>
      <point x="1099.141414141414" y="477.17171717171715" type="line"/>
      <point x="1018.1919191919192" y="448.8484848484848"/>
      <point x="954.070707070707" y="439.89898989898984"/>
      <point x="896.5959595959596" y="439.89898989898984" type="curve" smooth="yes"/>
      <point x="722.6565656565656" y="439.89898989898984"/>
      <point x="616.4141414141413" y="535.1919191919192"/>
      <point x="616.4141414141413" y="736.4242424242424" type="curve" smooth="yes"/>
      <point x="616.4141414141413" y="933.7575757575758"/>
      <point x="721.0808080808081" y="1028.1010101010102"/>
      <point x="915.969696969697" y="1028.1010101010102" type="curve" smooth="yes"/>
      <point x="982.2929292929293" y="1028.1010101010102"/>
      <point x="1037.6666666666667" y="1019.1515151515152"/>
      <point x="1099.141414141414" y="1003.2525252525253" type="curve"/>
      <point x="1099.141414141414" y="1117.5757575757575" type="line"/>
      <point x="1037.2424242424242" y="1136.0"/>
      <point x="976.7171717171717" y="1144.0"/>
      <point x="907.1414141414141" y="1144.0" type="curve" smooth="yes"/>
      <point x="638.939393939394" y="1144.0"/>
      <point x="484.5353535353535" y="994.9494949494949"/>
      <point x="484.5353535353535" y="733.4747474747475" type="curve" smooth="yes"/>
      <point x="484.5353535353535" y="465.1515151515151"/>
      <point x="643.7878787878788" y="324.0"/>
    </contour>
    <contour>
      <point x="841.3636363636364" y="83.81818181818178" type="curve" smooth="yes"/>
      <point x="453.22222222222223" y="83.81818181818178"/>
      <point x="204.2323232323232" y="342.4848484848485"/>
      <point x="204.2323232323232" y="740.0" type="curve" smooth="yes"/>
      <point x="204.2323232323232" y="1137.5151515151515"/>
      <point x="453.22222222222223" y="1396.1818181818182"/>
      <point x="841.3636363636364" y="1396.1818181818182" type="curve" smooth="yes"/>
      <point x="1229.5050505050506" y="1396.1818181818182"/>
      <point x="1478.4949494949497" y="1137.5151515151515"/>
      <point x="1478.4949494949497" y="740.0" type="curve" smooth="yes"/>
      <point x="1478.4949494949497" y="342.4848484848485"/>
      <point x="1229.5050505050506" y="83.81818181818178"/>
    </contour>
  </outline>
</glyph>
<glyph name="ordfeminine" format="2">
  <advance width="808.2424242424242"/>
  <unicode hex="00AA"/>
  <outline>
    <contour>
      <point x="319.989898989899" y="594.9494949494949" type="curve" smooth="yes"/>
      <point x="418.76262626262627" y="594.9494949494949"/>
      <point x="508.1919191919192" y="632.1414141414141"/>
      <point x="563.4646464646464" y="705.929292929293" type="curve"/>
      <point x="572.2222222222223" y="705.929292929293" type="line"/>
      <point x="583.7373737373738" y="610.0" type="line"/>
      <point x="705.7878787878788" y="610.0" type="line"/>
      <point x="705.7878787878788" y="1177.348484848485" type="line" smooth="yes"/>
      <point x="705.7878787878788" y="1414.909090909091"/>
      <point x="592.9090909090909" y="1494.6262626262626"/>
      <point x="366.3181818181818" y="1494.6262626262626" type="curve" smooth="yes"/>
      <point x="285.3838383838384" y="1494.6262626262626"/>
      <point x="190.18686868686868" y="1481.1515151515152"/>
      <point x="115.83333333333334" y="1456.439393939394" type="curve"/>
      <point x="115.83333333333334" y="1336.6313131313132" type="line"/>
      <point x="195.0757575757576" y="1362.267676767677"/>
      <point x="275.9949494949495" y="1375.111111111111"/>
      <point x="342.85858585858585" y="1375.111111111111" type="curve" smooth="yes"/>
      <point x="492.15656565656565" y="1375.111111111111"/>
      <point x="561.030303030303" y="1331.5757575757575"/>
      <point x="561.030303030303" y="1190.590909090909" type="curve" smooth="yes"/>
      <point x="561.030303030303" y="805.7070707070707" type="line"/>
      <point x="506.3939393939394" y="733.7626262626262"/>
      <point x="431.5353535353535" y="706.7171717171717"/>
      <point x="365.1262626262626" y="706.7171717171717" type="curve" smooth="yes"/>
      <point x="261.2121212121212" y="706.7171717171717"/>
      <point x="204.58585858585855" y="756.0808080808081"/>
      <point x="204.58585858585855" y="853.1969696969696" type="curve" smooth="yes"/>
      <point x="204.58585858585855" y="943.7070707070707"/>
      <point x="260.9242424242424" y="992.9646464646464"/>
      <point x="391.37373737373736" y="1005.2878787878788" type="curve" smooth="yes"/>
      <point x="613.9747474747475" y="1025.9848484848485" type="line"/>
      <point x="596.6565656565657" y="1117.1313131313132" type="line"/>
      <point x="376.69191919191917" y="1095.909090909091" type="line" smooth="yes"/>
      <point x="152.86363636363637" y="1077.0353535353536"/>
      <point x="58.84848484848486" y="990.1464646464647"/>
      <point x="58.84848484848486" y="834.9040404040404" type="curve" smooth="yes"/>
      <point x="58.84848484848486" y="688.4090909090909"/>
      <point x="160.66161616161617" y="594.9494949494949"/>
    </contour>
  </outline>
</glyph>
<glyph name="guillemetleft" format="2">
  <advance width="920.2171717171716"/>
  <unicode hex="00AB"/>
  <outline>
    <contour>
      <point x="326.55555555555554" y="137.37373737373738" type="line"/>
      <point x="485.2727272727272" y="137.37373737373738" type="line"/>
      <point x="263.0101010101009" y="562.6262626262626" type="line"/>
      <point x="485.2727272727272" y="987.8787878787879" type="line"/>
      <point x="326.55555555555554" y="987.8787878787879" type="line"/>
      <point x="104.2929292929293" y="562.6262626262626" type="line"/>
    </contour>
    <contour>
      <point x="697.2070707070707" y="137.37373737373738" type="line"/>
      <point x="855.9242424242423" y="137.37373737373738" type="line"/>
      <point x="633.661616161616" y="562.6262626262626" type="line"/>
      <point x="855.9242424242423" y="987.8787878787879" type="line"/>
      <point x="697.2070707070707" y="987.8787878787879" type="line"/>
      <point x="474.9444444444444" y="562.6262626262626" type="line"/>
    </contour>
  </outline>
</glyph>
<glyph name="logicalnot" format="2">
  <advance width="1286.7373737373737"/>
  <unicode hex="00AC"/>
  <outline>
    <contour>
      <point x="1023.1818181818182" y="192.78787878787878" type="line"/>
      <point x="1158.1515151515152" y="192.78787878787878" type="line"/>
      <point x="1158.1515151515152" y="824.3030303030303" type="line"/>
      <point x="137.510101010101" y="824.3030303030303" type="line"/>
      <point x="137.510101010101" y="695.6969696969697" type="line"/>
      <point x="1023.1818181818182" y="695.6969696969697" type="line"/>
    </contour>
  </outline>
</glyph>
<glyph name="softhyphen" format="2">
  <advance width="769.040404040404"/>
  <unicode hex="00AD"/>
  <outline>
    <contour>
      <point x="137.510101010101" y="496.0909090909091" type="line"/>
      <point x="631.530303030303" y="496.0909090909091" type="line"/>
      <point x="631.530303030303" y="629.1616161616162" type="line"/>
      <point x="137.510101010101" y="629.1616161616162" type="line"/>
    </contour>
  </outline>
</glyph>
<glyph name="registered" format="2">
  <advance width="1477.4949494949494"/>
  <unicode hex="00AE"/>
  <outline>
    <contour>
      <point x="738.7474747474747" y="268.0" type="curve" smooth="yes"/>
      <point x="1100.7474747474748" y="268.0"/>
      <point x="1348.7474747474748" y="518.0"/>
      <point x="1348.7474747474748" y="882.0" type="curve" smooth="yes"/>
      <point x="1348.7474747474748" y="1246.0"/>
      <point x="1100.7474747474748" y="1498.0"/>
      <point x="738.7474747474747" y="1498.0" type="curve" smooth="yes"/>
      <point x="376.74747474747477" y="1498.0"/>
      <point x="128.74747474747477" y="1246.0"/>
      <point x="128.74747474747477" y="882.0" type="curve" smooth="yes"/>
      <point x="128.74747474747477" y="518.0"/>
      <point x="376.74747474747477" y="268.0"/>
    </contour>
    <contour>
      <point x="897.8383838383838" y="600.0" type="line"/>
      <point x="1001.6767676767677" y="600.0" type="line"/>
      <point x="831.979797979798" y="849.4949494949495" type="line"/>
      <point x="744.6666666666667" y="823.4949494949495" type="line"/>
    </contour>
    <contour>
      <point x="738.7474747474747" y="357.6363636363636" type="curve" smooth="yes"/>
      <point x="426.5050505050505" y="357.6363636363636"/>
      <point x="223.010101010101" y="564.1818181818181"/>
      <point x="223.010101010101" y="882.0" type="curve" smooth="yes"/>
      <point x="223.010101010101" y="1200.3434343434344"/>
      <point x="426.5050505050505" y="1408.3636363636365"/>
      <point x="738.7474747474747" y="1408.3636363636365" type="curve" smooth="yes"/>
      <point x="1050.989898989899" y="1408.3636363636365"/>
      <point x="1254.4848484848485" y="1200.3434343434344"/>
      <point x="1254.4848484848485" y="882.0" type="curve" smooth="yes"/>
      <point x="1254.4848484848485" y="564.1818181818181"/>
      <point x="1050.989898989899" y="357.6363636363636"/>
    </contour>
    <contour>
      <point x="527.070707070707" y="600.0" type="line"/>
      <point x="619.3333333333334" y="600.0" type="line"/>
      <point x="620.9090909090909" y="815.4949494949495" type="line"/>
      <point x="726.3232323232323" y="815.4949494949495" type="line" smooth="yes"/>
      <point x="893.0505050505051" y="815.4949494949495"/>
      <point x="975.5757575757576" y="880.969696969697"/>
      <point x="975.5757575757576" y="1002.7474747474747" type="curve" smooth="yes"/>
      <point x="975.5757575757576" y="1124.5252525252524"/>
      <point x="891.0505050505051" y="1192.0"/>
      <point x="726.3232323232323" y="1192.0" type="curve" smooth="yes"/>
      <point x="527.070707070707" y="1192.0" type="line"/>
    </contour>
    <contour>
      <point x="620.9090909090909" y="895.8787878787879" type="line"/>
      <point x="620.9090909090909" y="1111.6161616161617" type="line"/>
      <point x="742.0" y="1111.6161616161617" type="line" smooth="yes"/>
      <point x="837.1919191919192" y="1111.6161616161617"/>
      <point x="884.3636363636364" y="1075.8181818181818"/>
      <point x="884.3636363636364" y="1002.7474747474747" type="curve" smooth="yes"/>
      <point x="884.3636363636364" y="929.6767676767677"/>
      <point x="839.1919191919192" y="895.8787878787879"/>
      <point x="742.0" y="895.8787878787879" type="curve" smooth="yes"/>
    </contour>
  </outline>
</glyph>
<glyph name="degree" format="2">
  <advance width="945.1111111111111"/>
  <unicode hex="00B0"/>
  <outline>
    <contour>
      <point x="472.55555555555554" y="813.1111111111111" type="curve" smooth="yes"/>
      <point x="672.4848484848485" y="813.1111111111111"/>
      <point x="816.3636363636364" y="957.4141414141415"/>
      <point x="816.3636363636364" y="1155.3434343434344" type="curve" smooth="yes"/>
      <point x="816.3636363636364" y="1353.2727272727273"/>
      <point x="672.4848484848485" y="1497.050505050505"/>
      <point x="472.55555555555554" y="1497.050505050505" type="curve" smooth="yes"/>
      <point x="272.62626262626264" y="1497.050505050505"/>
      <point x="128.74747474747477" y="1353.2727272727273"/>
      <point x="128.74747474747477" y="1155.3434343434344" type="curve" smooth="yes"/>
      <point x="128.74747474747477" y="957.4141414141415"/>
      <point x="272.62626262626264" y="813.1111111111111"/>
    </contour>
    <contour>
      <point x="472.55555555555554" y="921.10101010101" type="curve" smooth="yes"/>
      <point x="339.43939393939394" y="921.10101010101"/>
      <point x="243.520202020202" y="1011.5454545454545"/>
      <point x="243.520202020202" y="1155.3434343434344" type="curve" smooth="yes"/>
      <point x="243.520202020202" y="1299.2727272727273"/>
      <point x="339.9646464646465" y="1389.060606060606"/>
      <point x="472.55555555555554" y="1389.060606060606" type="curve" smooth="yes"/>
      <point x="605.1464646464647" y="1389.060606060606"/>
      <point x="701.5909090909091" y="1299.2727272727273"/>
      <point x="701.5909090909091" y="1155.3434343434344" type="curve" smooth="yes"/>
      <point x="701.5909090909091" y="1011.5454545454545"/>
      <point x="605.6717171717172" y="921.10101010101"/>
    </contour>
  </outline>
</glyph>
<glyph name="plusminus" format="2">
  <advance width="1048.7171717171718"/>
  <unicode hex="00B1"/>
  <outline>
    <contour>
      <point x="456.8737373737374" y="335.95959595959596" type="line"/>
      <point x="591.8434343434343" y="335.95959595959596" type="line"/>
      <point x="591.8434343434343" y="668.6262626262626" type="line"/>
      <point x="911.2070707070707" y="668.6262626262626" type="line"/>
      <point x="911.2070707070707" y="797.2323232323232" type="line"/>
      <point x="591.8434343434343" y="797.2323232323232" type="line"/>
      <point x="591.8434343434343" y="1129.8989898989898" type="line"/>
      <point x="456.8737373737374" y="1129.8989898989898" type="line"/>
      <point x="456.8737373737374" y="797.2323232323232" type="line"/>
      <point x="137.510101010101" y="797.2323232323232" type="line"/>
      <point x="137.510101010101" y="668.6262626262626" type="line"/>
      <point x="456.8737373737374" y="668.6262626262626" type="line"/>
    </contour>
    <contour>
      <point x="137.510101010101" y="0.39393939393939365" type="line"/>
      <point x="911.2070707070707" y="0.39393939393939365" type="line"/>
      <point x="911.2070707070707" y="128.99999999999994" type="line"/>
      <point x="137.510101010101" y="128.99999999999994" type="line"/>
    </contour>
  </outline>
</glyph>
<glyph name="twosuperior" format="2">
  <advance width="752.7121212121211"/>
  <unicode hex="00B2"/>
  <outline>
    <contour>
      <point x="89.58585858585859" y="-136.0" type="line"/>
      <point x="658.7222222222222" y="-136.0" type="line"/>
      <point x="658.7222222222222" y="-21.868686868686908" type="line"/>
      <point x="228.560606060606" y="-21.868686868686908" type="line"/>
      <point x="238.3282828282828" y="-56.68181818181821" type="line"/>
      <point x="474.2424242424242" y="268.1666666666667" type="line" smooth="yes"/>
      <point x="578.590909090909" y="410.449494949495"/>
      <point x="619.1717171717171" y="504.3686868686869"/>
      <point x="620.2777777777777" y="607.1616161616162" type="curve" smooth="yes"/>
      <point x="621.3838383838383" y="797.1919191919192"/>
      <point x="501.35353535353534" y="876.5252525252525"/>
      <point x="300.19191919191917" y="876.5252525252525" type="curve" smooth="yes"/>
      <point x="218.1969696969697" y="876.5252525252525"/>
      <point x="135.21212121212122" y="863.6313131313132"/>
      <point x="77.1919191919192" y="839.9191919191919" type="curve"/>
      <point x="77.1919191919192" y="727.0707070707072" type="line"/>
      <point x="138.85353535353536" y="751.9949494949495"/>
      <point x="208.58080808080808" y="765.1515151515152"/>
      <point x="284.0858585858586" y="765.1515151515152" type="curve" smooth="yes"/>
      <point x="420.67676767676767" y="765.1515151515152"/>
      <point x="488.8838383838384" y="716.4040404040404"/>
      <point x="488.8838383838384" y="597.070707070707" type="curve" smooth="yes"/>
      <point x="488.8838383838384" y="516.7070707070707"/>
      <point x="451.14141414141415" y="437.5353535353535"/>
      <point x="361.7878787878788" y="314.45959595959596" type="curve" smooth="yes"/>
      <point x="89.58585858585859" y="-62.75252525252528" type="line"/>
    </contour>
  </outline>
</glyph>
<glyph name="paragraph" format="2">
  <advance width="1165.3535353535353"/>
  <unicode hex="00B6"/>
  <outline>
    <contour>
      <point x="633.979797979798" y="0.0" type="line"/>
      <point x="757.7878787878788" y="0.0" type="line"/>
      <point x="757.7878787878788" y="1480.0" type="line"/>
      <point x="684.2373737373737" y="1489.1818181818182"/>
      <point x="598.2727272727273" y="1495.5757575757575"/>
      <point x="510.22222222222223" y="1495.5757575757575" type="curve" smooth="yes"/>
      <point x="225.36363636363637" y="1495.5757575757575"/>
      <point x="84.6010101010101" y="1338.479797979798"/>
      <point x="84.6010101010101" y="989.7424242424242" type="curve" smooth="yes"/>
      <point x="84.6010101010101" y="660.39898989899"/>
      <point x="221.41414141414143" y="485.04040404040404"/>
      <point x="515.8080808080808" y="485.04040404040404" type="curve" smooth="yes"/>
      <point x="559.3484848484849" y="485.04040404040404"/>
      <point x="592.8080808080808" y="487.01515151515156"/>
      <point x="633.979797979798" y="491.0707070707071" type="curve"/>
    </contour>
    <contour>
      <point x="885.1616161616162" y="0.0" type="line"/>
      <point x="1008.9696969696969" y="0.0" type="line"/>
      <point x="1008.9696969696969" y="1480.0" type="line"/>
      <point x="885.1616161616162" y="1480.0" type="line"/>
    </contour>
  </outline>
</glyph>
<glyph name="ordmasculine" format="2">
  <advance width="869.7171717171717"/>
  <unicode hex="00BA"/>
  <outline>
    <contour>
      <point x="434.98989898989896" y="594.9494949494949" type="curve" smooth="yes"/>
      <point x="661.2272727272727" y="594.9494949494949"/>
      <point x="804.6868686868686" y="734.6363636363636"/>
      <point x="804.6868686868686" y="1045.8686868686868" type="curve" smooth="yes"/>
      <point x="804.6868686868686" y="1357.1010101010102"/>
      <point x="661.2272727272727" y="1494.6262626262626"/>
      <point x="434.98989898989896" y="1494.6262626262626" type="curve" smooth="yes"/>
      <point x="208.75252525252526" y="1494.6262626262626"/>
      <point x="65.03030303030305" y="1359.0707070707072"/>
      <point x="65.03030303030305" y="1045.8686868686868" type="curve" smooth="yes"/>
      <point x="65.03030303030305" y="732.6666666666666"/>
      <point x="208.75252525252526" y="594.9494949494949"/>
    </contour>
    <contour>
      <point x="434.98989898989896" y="711.6818181818181" type="curve" smooth="yes"/>
      <point x="301.16666666666663" y="711.6818181818181"/>
      <point x="213.65656565656562" y="788.1111111111111"/>
      <point x="213.65656565656562" y="1045.8686868686868" type="curve" smooth="yes"/>
      <point x="213.65656565656562" y="1304.020202020202"/>
      <point x="301.16666666666663" y="1377.8939393939395"/>
      <point x="434.98989898989896" y="1377.8939393939395" type="curve" smooth="yes"/>
      <point x="569.0757575757576" y="1377.8939393939395"/>
      <point x="656.0606060606061" y="1304.020202020202"/>
      <point x="656.0606060606061" y="1045.8686868686868" type="curve" smooth="yes"/>
      <point x="656.0606060606061" y="788.1111111111111"/>
      <point x="569.0757575757576" y="711.6818181818181"/>
    </contour>
  </outline>
</glyph>
<glyph name="guillemetright" format="2">
  <advance width="920.2171717171716"/>
  <unicode hex="00BB"/>
  <outline>
    <contour>
      <point x="64.2929292929293" y="137.37373737373738" type="line"/>
      <point x="223.01010101010095" y="137.37373737373738" type="line"/>
      <point x="445.2727272727272" y="562.6262626262626" type="line"/>
      <point x="223.01010101010095" y="987.8787878787879" type="line"/>
      <point x="64.2929292929293" y="987.8787878787879" type="line"/>
      <point x="286.55555555555554" y="562.6262626262626" type="line"/>
    </contour>
    <contour>
      <point x="434.9444444444444" y="137.37373737373738" type="line"/>
      <point x="593.661616161616" y="137.37373737373738" type="line"/>
      <point x="815.9242424242423" y="562.6262626262626" type="line"/>
      <point x="593.661616161616" y="987.8787878787879" type="line"/>
      <point x="434.9444444444444" y="987.8787878787879" type="line"/>
      <point x="657.2070707070707" y="562.6262626262626" type="line"/>
    </contour>
  </outline>
</glyph>
<glyph name="onequarter" format="2">
  <advance width="1757.510101010101"/>
  <unicode hex="00BC"/>
  <outline>
    <contour>
      <point x="350.8737373737374" y="637.3131313131313" type="line"/>
      <point x="481.7121212121212" y="637.3131313131313" type="line"/>
      <point x="481.7121212121212" y="1620.0" type="line"/>
      <point x="399.6666666666667" y="1620.0" type="line"/>
      <point x="135.73737373737373" y="1432.0959595959596" type="line"/>
      <point x="135.73737373737373" y="1306.8636363636365" type="line"/>
      <point x="399.6666666666667" y="1494.767676767677" type="line"/>
      <point x="350.8737373737374" y="1528.0353535353536" type="line"/>
    </contour>
    <contour>
      <point x="138.510101010101" y="616.0" type="line"/>
      <point x="683.469696969697" y="616.0" type="line"/>
      <point x="683.469696969697" y="730.131313131313" type="line"/>
      <point x="138.510101010101" y="730.131313131313" type="line"/>
    </contour>
    <contour>
      <point x="432.0808080808081" y="-136.0" type="line"/>
      <point x="568.070707070707" y="-136.0" type="line"/>
      <point x="1325.4292929292928" y="1616.0" type="line"/>
      <point x="1189.439393939394" y="1616.0" type="line"/>
    </contour>
    <contour>
      <point x="1035.540404040404" y="96.69696969696972" type="line"/>
      <point x="1730.8484848484848" y="96.69696969696972" type="line"/>
      <point x="1730.8484848484848" y="202.65656565656565" type="line"/>
      <point x="1146.2676767676767" y="202.65656565656565" type="line"/>
      <point x="1164.4696969696968" y="170.7323232323232" type="line"/>
      <point x="1505.2575757575758" y="864.0" type="line"/>
      <point x="1377.9040404040404" y="864.0" type="line"/>
      <point x="1035.540404040404" y="171.1010101010101" type="line"/>
    </contour>
    <contour>
      <point x="1482.181818181818" y="-136.0" type="line"/>
      <point x="1600.121212121212" y="-136.0" type="line"/>
      <point x="1600.121212121212" y="526.0" type="line"/>
      <point x="1507.7070707070707" y="526.0" type="line"/>
      <point x="1482.181818181818" y="202.65656565656565" type="line"/>
    </contour>
  </outline>
</glyph>
<glyph name="onehalf" format="2">
  <advance width="1757.510101010101"/>
  <unicode hex="00BD"/>
  <outline>
    <contour>
      <point x="350.8737373737374" y="637.3131313131313" type="line"/>
      <point x="481.7121212121212" y="637.3131313131313" type="line"/>
      <point x="481.7121212121212" y="1620.0" type="line"/>
      <point x="399.6666666666667" y="1620.0" type="line"/>
      <point x="135.73737373737373" y="1432.0959595959596" type="line"/>
      <point x="135.73737373737373" y="1306.8636363636365" type="line"/>
      <point x="399.6666666666667" y="1494.767676767677" type="line"/>
      <point x="350.8737373737374" y="1528.0353535353536" type="line"/>
    </contour>
    <contour>
      <point x="138.510101010101" y="616.0" type="line"/>
      <point x="683.469696969697" y="616.0" type="line"/>
      <point x="683.469696969697" y="730.131313131313" type="line"/>
      <point x="138.510101010101" y="730.131313131313" type="line"/>
    </contour>
    <contour>
      <point x="432.0808080808081" y="-136.0" type="line"/>
      <point x="568.070707070707" y="-136.0" type="line"/>
      <point x="1325.4292929292928" y="1616.0" type="line"/>
      <point x="1189.439393939394" y="1616.0" type="line"/>
    </contour>
    <contour>
      <point x="1094.3838383838383" y="-136.0" type="line"/>
      <point x="1663.5202020202019" y="-136.0" type="line"/>
      <point x="1663.5202020202019" y="-21.868686868686908" type="line"/>
      <point x="1233.3585858585857" y="-21.868686868686908" type="line"/>
      <point x="1243.1262626262626" y="-56.68181818181821" type="line"/>
      <point x="1479.040404040404" y="268.1666666666667" type="line" smooth="yes"/>
      <point x="1583.3888888888887" y="410.449494949495"/>
      <point x="1623.969696969697" y="504.3686868686869"/>
      <point x="1625.0757575757575" y="607.1616161616162" type="curve" smooth="yes"/>
      <point x="1626.181818181818" y="797.1919191919192"/>
      <point x="1506.151515151515" y="876.5252525252525"/>
      <point x="1304.9898989898988" y="876.5252525252525" type="curve" smooth="yes"/>
      <point x="1222.9949494949494" y="876.5252525252525"/>
      <point x="1140.010101010101" y="863.6313131313132"/>
      <point x="1081.9898989898988" y="839.9191919191919" type="curve"/>
      <point x="1081.9898989898988" y="727.0707070707072" type="line"/>
      <point x="1143.651515151515" y="751.9949494949495"/>
      <point x="1213.3787878787878" y="765.1515151515152"/>
      <point x="1288.8838383838383" y="765.1515151515152" type="curve" smooth="yes"/>
      <point x="1425.4747474747473" y="765.1515151515152"/>
      <point x="1493.6818181818182" y="716.4040404040404"/>
      <point x="1493.6818181818182" y="597.070707070707" type="curve" smooth="yes"/>
      <point x="1493.6818181818182" y="516.7070707070707"/>
      <point x="1455.939393939394" y="437.5353535353535"/>
      <point x="1366.5858585858584" y="314.45959595959596" type="curve" smooth="yes"/>
      <point x="1094.3838383838383" y="-62.75252525252528" type="line"/>
    </contour>
  </outline>
</glyph>
<glyph name="questiondown" format="2">
  <advance width="852.3282828282828"/>
  <unicode hex="00BF"/>
  <outline>
    <contour>
      <point x="526.1565656565656" y="724.3232323232323" type="line"/>
      <point x="426.02525252525254" y="724.3232323232323" type="line"/>
      <point x="410.9040404040404" y="397.3282828282828" type="line"/>
      <point x="156.27272727272725" y="295.06060606060606"/>
      <point x="55.56565656565657" y="167.27777777777777"/>
      <point x="55.56565656565657" y="-33.924242424242436" type="curve" smooth="yes"/>
      <point x="55.56565656565657" y="-265.56060606060606"/>
      <point x="211.09595959595958" y="-400.0"/>
      <point x="503.09090909090907" y="-400.0" type="curve" smooth="yes"/>
      <point x="612.5808080808081" y="-400.0"/>
      <point x="733.2171717171717" y="-379.97474747474746"/>
      <point x="816.631313131313" y="-346.3939393939394" type="curve"/>
      <point x="816.631313131313" y="-213.39393939393943" type="line"/>
      <point x="722.2070707070707" y="-250.18686868686873"/>
      <point x="621.8787878787879" y="-268.21212121212125"/>
      <point x="517.6414141414141" y="-268.21212121212125" type="curve" smooth="yes"/>
      <point x="312.580808080808" y="-268.21212121212125"/>
      <point x="210.52525252525245" y="-182.91919191919197"/>
      <point x="210.52525252525245" y="-23.63131313131315" type="curve" smooth="yes"/>
      <point x="210.52525252525245" y="130.78787878787878"/>
      <point x="293.0656565656565" y="230.92424242424244"/>
      <point x="553.2575757575758" y="316.14141414141415" type="curve"/>
    </contour>
    <contour>
      <point x="476.0252525252525" y="1097.8787878787878" type="curve" smooth="yes"/>
      <point x="407.69191919191917" y="1097.8787878787878"/>
      <point x="362.81313131313135" y="1053.6262626262626"/>
      <point x="362.81313131313135" y="990.1818181818182" type="curve" smooth="yes"/>
      <point x="362.81313131313135" y="925.2626262626263"/>
      <point x="408.1161616161616" y="881.010101010101"/>
      <point x="476.0252525252525" y="881.010101010101" type="curve" smooth="yes"/>
      <point x="543.9343434343434" y="881.010101010101"/>
      <point x="589.2373737373737" y="924.2121212121212"/>
      <point x="589.2373737373737" y="990.1818181818182" type="curve" smooth="yes"/>
      <point x="589.2373737373737" y="1054.6767676767677"/>
      <point x="542.8838383838383" y="1097.8787878787878"/>
    </contour>
  </outline>
</glyph>
<glyph name="Agrave" format="2">
  <advance width="1262.3636363636363"/>
  <unicode hex="00C0"/>
  <anchor x="631.7878787878788" y="1520.0" name="_top"/>
  <anchor x="631.9191919191919" y="0.0" name="bottom"/>
  <anchor x="1239.6616161616162" y="0.0" name="ogonek"/>
  <anchor x="631.7878787878788" y="1520.0" name="top"/>
  <outline>
    <contour>
      <point x="22.702020202020208" y="0.0" type="line"/>
      <point x="181.21212121212113" y="0.0" type="line"/>
      <point x="643.2323232323232" y="1403.3636363636365" type="line"/>
      <point x="615.8181818181818" y="1403.3636363636365" type="line"/>
      <point x="1078.6262626262626" y="0.0" type="line"/>
      <point x="1239.6616161616162" y="0.0" type="line"/>
      <point x="743.3838383838383" y="1480.0" type="line"/>
      <point x="518.979797979798" y="1480.0" type="line"/>
    </contour>
    <contour>
      <point x="276.6868686868687" y="479.0202020202021" type="line"/>
      <point x="985.020202020202" y="479.0202020202021" type="line"/>
      <point x="949.0" y="615.6666666666666" type="line"/>
      <point x="312.83838383838383" y="615.6666666666666" type="line"/>
    </contour>
    <contour>
      <point x="562.0" y="1608.1212121212122" type="line"/>
      <point x="701.5757575757575" y="1608.1212121212122" type="line"/>
      <point x="544.560606060606" y="1891.6767676767677" type="line"/>
      <point x="378.06060606060606" y="1891.6767676767677" type="line"/>
    </contour>
  </outline>
</glyph>
<glyph name="Atilde" format="2">
  <advance width="1262.3636363636363"/>
  <unicode hex="00C3"/>
  <anchor x="631.7878787878788" y="1520.0" name="_top"/>
  <anchor x="631.9191919191919" y="0.0" name="bottom"/>
  <anchor x="1239.6616161616162" y="0.0" name="ogonek"/>
  <anchor x="631.7878787878788" y="1520.0" name="top"/>
  <outline>
    <contour>
      <point x="22.702020202020208" y="0.0" type="line"/>
      <point x="181.21212121212113" y="0.0" type="line"/>
      <point x="643.2323232323232" y="1403.3636363636365" type="line"/>
      <point x="615.8181818181818" y="1403.3636363636365" type="line"/>
      <point x="1078.6262626262626" y="0.0" type="line"/>
      <point x="1239.6616161616162" y="0.0" type="line"/>
      <point x="743.3838383838383" y="1480.0" type="line"/>
      <point x="518.979797979798" y="1480.0" type="line"/>
    </contour>
    <contour>
      <point x="276.6868686868687" y="479.0202020202021" type="line"/>
      <point x="985.020202020202" y="479.0202020202021" type="line"/>
      <point x="949.0" y="615.6666666666666" type="line"/>
      <point x="312.83838383838383" y="615.6666666666666" type="line"/>
    </contour>
    <contour>
      <point x="778.5555555555555" y="1667.479797979798" type="curve" smooth="yes"/>
      <point x="850.590909090909" y="1667.479797979798"/>
      <point x="902.8989898989898" y="1690.2171717171718"/>
      <point x="941.8333333333333" y="1732.6565656565656" type="curve"/>
      <point x="941.8333333333333" y="1843.0151515151515" type="line"/>
      <point x="894.7676767676767" y="1794.8838383838383"/>
      <point x="847.8282828282828" y="1771.121212121212"/>
      <point x="780.1313131313132" y="1771.121212121212" type="curve" smooth="yes"/>
      <point x="684.070707070707" y="1771.121212121212"/>
      <point x="600.8686868686868" y="1848.909090909091"/>
      <point x="485.020202020202" y="1848.909090909091" type="curve" smooth="yes"/>
      <point x="412.9848484848485" y="1848.909090909091"/>
      <point x="360.67676767676767" y="1825.6464646464647"/>
      <point x="321.74242424242425" y="1783.2070707070707" type="curve"/>
      <point x="321.74242424242425" y="1672.848484848485" type="line"/>
      <point x="368.80808080808083" y="1720.979797979798"/>
      <point x="415.7474747474747" y="1744.7424242424242"/>
      <point x="483.44444444444446" y="1744.7424242424242" type="curve" smooth="yes"/>
      <point x="579.5050505050505" y="1744.7424242424242"/>
      <point x="662.7070707070707" y="1667.479797979798"/>
    </contour>
  </outline>
</glyph>
<glyph name="Adieresis" format="2">
  <advance width="1262.3636363636363"/>
  <unicode hex="00C4"/>
  <anchor x="631.7878787878788" y="1520.0" name="_top"/>
  <anchor x="631.9191919191919" y="0.0" name="bottom"/>
  <anchor x="1239.6616161616162" y="0.0" name="ogonek"/>
  <anchor x="631.7878787878788" y="1520.0" name="top"/>
  <outline>
    <contour>
      <point x="22.702020202020208" y="0.0" type="line"/>
      <point x="181.21212121212113" y="0.0" type="line"/>
      <point x="643.2323232323232" y="1403.3636363636365" type="line"/>
      <point x="615.8181818181818" y="1403.3636363636365" type="line"/>
      <point x="1078.6262626262626" y="0.0" type="line"/>
      <point x="1239.6616161616162" y="0.0" type="line"/>
      <point x="743.3838383838383" y="1480.0" type="line"/>
      <point x="518.979797979798" y="1480.0" type="line"/>
    </contour>
    <contour>
      <point x="276.6868686868687" y="479.0202020202021" type="line"/>
      <point x="985.020202020202" y="479.0202020202021" type="line"/>
      <point x="949.0" y="615.6666666666666" type="line"/>
      <point x="312.83838383838383" y="615.6666666666666" type="line"/>
    </contour>
    <contour>
      <point x="847.9393939393939" y="1658.4848484848485" type="curve" smooth="yes"/>
      <point x="910.989898989899" y="1658.4848484848485"/>
      <point x="949.5959595959596" y="1693.2525252525252"/>
      <point x="949.5959595959596" y="1751.4747474747476" type="curve" smooth="yes"/>
      <point x="949.5959595959596" y="1809.6969696969697"/>
      <point x="910.989898989899" y="1845.939393939394"/>
      <point x="847.9393939393939" y="1845.939393939394" type="curve" smooth="yes"/>
      <point x="784.8888888888889" y="1845.939393939394"/>
      <point x="746.2828282828283" y="1809.6969696969697"/>
      <point x="746.2828282828283" y="1751.4747474747476" type="curve" smooth="yes"/>
      <point x="746.2828282828283" y="1693.2525252525252"/>
      <point x="784.8888888888889" y="1658.4848484848485"/>
    </contour>
    <contour>
      <point x="415.6363636363636" y="1658.4848484848485" type="curve" smooth="yes"/>
      <point x="478.68686868686865" y="1658.4848484848485"/>
      <point x="517.2929292929292" y="1693.2525252525252"/>
      <point x="517.2929292929292" y="1751.4747474747476" type="curve" smooth="yes"/>
      <point x="517.2929292929292" y="1809.6969696969697"/>
      <point x="478.68686868686865" y="1845.939393939394"/>
      <point x="415.6363636363636" y="1845.939393939394" type="curve" smooth="yes"/>
      <point x="352.5858585858586" y="1845.939393939394"/>
      <point x="313.979797979798" y="1809.6969696969697"/>
      <point x="313.979797979798" y="1751.4747474747476" type="curve" smooth="yes"/>
      <point x="313.979797979798" y="1693.2525252525252"/>
      <point x="352.5858585858586" y="1658.4848484848485"/>
    </contour>
  </outline>
</glyph>
<glyph name="Aring" format="2">
  <advance width="1262.3636363636363"/>
  <unicode hex="00C5"/>
  <anchor x="634.3686868686868" y="1387.2727272727273" name="_top"/>
  <anchor x="631.9191919191919" y="0.0" name="bottom"/>
  <anchor x="1239.6616161616162" y="0.0" name="ogonek"/>
  <anchor x="631.7878787878788" y="1520.0" name="top"/>
  <outline>
    <contour>
      <point x="22.702020202020208" y="0.0" type="line"/>
      <point x="181.21212121212113" y="0.0" type="line"/>
      <point x="643.2323232323232" y="1403.3636363636365" type="line"/>
      <point x="615.8181818181818" y="1403.3636363636365" type="line"/>
      <point x="1078.6262626262626" y="0.0" type="line"/>
      <point x="1239.6616161616162" y="0.0" type="line"/>
      <point x="743.3838383838383" y="1480.0" type="line"/>
      <point x="518.979797979798" y="1480.0" type="line"/>
    </contour>
    <contour>
      <point x="276.6868686868687" y="479.0202020202021" type="line"/>
      <point x="985.020202020202" y="479.0202020202021" type="line"/>
      <point x="949.0" y="615.6666666666666" type="line"/>
      <point x="312.83838383838383" y="615.6666666666666" type="line"/>
    </contour>
    <contour>
      <point x="634.3686868686868" y="1467.1363636363635" type="curve" smooth="yes"/>
      <point x="747.1969696969696" y="1467.1363636363635"/>
      <point x="829.9242424242424" y="1548.8131313131312"/>
      <point x="829.9242424242424" y="1660.590909090909" type="curve" smooth="yes"/>
      <point x="829.9242424242424" y="1772.3686868686868"/>
      <point x="747.1969696969696" y="1854.0454545454545"/>
      <point x="634.3686868686868" y="1854.0454545454545" type="curve" smooth="yes"/>
      <point x="521.540404040404" y="1854.0454545454545"/>
      <point x="438.8131313131313" y="1772.3686868686868"/>
      <point x="438.8131313131313" y="1660.590909090909" type="curve" smooth="yes"/>
      <point x="438.8131313131313" y="1548.8131313131312"/>
      <point x="521.540404040404" y="1467.1363636363635"/>
    </contour>
    <contour>
      <point x="634.3686868686868" y="1541.7222222222222" type="curve" smooth="yes"/>
      <point x="566.2474747474747" y="1541.7222222222222"/>
      <point x="518.0252525252525" y="1586.9949494949494"/>
      <point x="518.0252525252525" y="1660.590909090909" type="curve" smooth="yes"/>
      <point x="518.0252525252525" y="1734.1868686868686"/>
      <point x="566.2474747474747" y="1779.4595959595958"/>
      <point x="634.3686868686868" y="1779.4595959595958" type="curve" smooth="yes"/>
      <point x="702.489898989899" y="1779.4595959595958"/>
      <point x="750.7121212121212" y="1734.1868686868686"/>
      <point x="750.7121212121212" y="1660.590909090909" type="curve" smooth="yes"/>
      <point x="750.7121212121212" y="1586.9949494949494"/>
      <point x="702.489898989899" y="1541.7222222222222"/>
    </contour>
  </outline>
</glyph>
<glyph name="Ccedilla" format="2">
  <advance width="1063.560606060606"/>
  <unicode hex="00C7"/>
  <anchor x="667.7929292929293" y="0.0" name="_bottom"/>
  <anchor x="667.7929292929293" y="0.0" name="bottom"/>
  <anchor x="658.5757575757575" y="1520.0" name="top"/>
  <outline>
    <contour>
      <point x="722.9949494949494" y="-18.525252525252526" type="curve" smooth="yes"/>
      <point x="837.4191919191919" y="-18.525252525252526"/>
      <point x="944.1717171717171" y="1.9242424242424256"/>
      <point x="1032.2272727272727" y="33.37373737373738" type="curve"/>
      <point x="1032.2272727272727" y="172.80808080808077" type="line"/>
      <point x="924.3737373737373" y="136.48484848484844"/>
      <point x="834.2171717171717" y="120.09090909090904"/>
      <point x="735.6515151515151" y="120.09090909090904" type="curve" smooth="yes"/>
      <point x="437.7929292929292" y="120.09090909090904"/>
      <point x="262.33333333333326" y="264.11616161616155"/>
      <point x="262.33333333333326" y="741.4747474747475" type="curve" smooth="yes"/>
      <point x="262.33333333333326" y="1203.959595959596"/>
      <point x="432.7323232323232" y="1359.909090909091"/>
      <point x="743.9696969696969" y="1359.909090909091" type="curve" smooth="yes"/>
      <point x="841.8686868686868" y="1359.909090909091"/>
      <point x="933.3989898989898" y="1348.7777777777778"/>
      <point x="1032.2272727272727" y="1319.0050505050506" type="curve"/>
      <point x="1032.2272727272727" y="1458.439393939394" type="line"/>
      <point x="938.1464646464647" y="1484.8383838383838"/>
      <point x="839.9646464646464" y="1498.5252525252524"/>
      <point x="739.0454545454545" y="1498.5252525252524" type="curve" smooth="yes"/>
      <point x="334.77777777777777" y="1498.5252525252524"/>
      <point x="95.7878787878788" y="1281.5555555555557"/>
      <point x="95.7878787878788" y="737.4747474747475" type="curve" smooth="yes"/>
      <point x="95.7878787878788" y="178.03030303030303"/>
      <point x="337.9191919191919" y="-18.525252525252526"/>
    </contour>
    <contour>
      <point x="663.3787878787879" y="-415.75757575757575" type="curve" smooth="yes"/>
      <point x="799.4797979797979" y="-415.75757575757575"/>
      <point x="877.8686868686868" y="-359.14141414141415"/>
      <point x="877.8686868686868" y="-257.44444444444446" type="curve" smooth="yes"/>
      <point x="877.8686868686868" y="-155.22222222222223"/>
      <point x="797.6414141414141" y="-101.1010101010101"/>
      <point x="671.969696969697" y="-101.1010101010101" type="curve"/>
      <point x="706.2979797979798" y="-136.74747474747474" type="line"/>
      <point x="706.2979797979798" y="20.0" type="line"/>
      <point x="615.1060606060606" y="20.0" type="line"/>
      <point x="615.1060606060606" y="-168.07070707070707" type="line"/>
      <point x="655.469696969697" y="-168.07070707070707" type="line" smooth="yes"/>
      <point x="734.2878787878788" y="-168.07070707070707"/>
      <point x="781.2929292929293" y="-194.1010101010101"/>
      <point x="781.2929292929293" y="-253.37373737373738" type="curve" smooth="yes"/>
      <point x="781.2929292929293" y="-312.77777777777777"/>
      <point x="735.0757575757576" y="-337.62626262626264"/>
      <point x="657.6010101010102" y="-337.62626262626264" type="curve" smooth="yes"/>
      <point x="603.7828282828283" y="-337.62626262626264"/>
      <point x="546.1616161616162" y="-327.6515151515152"/>
      <point x="478.62626262626264" y="-299.1969696969697" type="curve"/>
      <point x="478.62626262626264" y="-380.1464646464646" type="line"/>
      <point x="533.8888888888889" y="-403.7828282828283"/>
      <point x="599.7575757575758" y="-415.75757575757575"/>
    </contour>
  </outline>
</glyph>
<glyph name="Edieresis" format="2">
  <advance width="1080.3989898989898"/>
  <unicode hex="00CB"/>
  <anchor x="607.8686868686868" y="1520.0" name="_top"/>
  <anchor x="608.6060606060606" y="0.0" name="bottom"/>
  <anchor x="943.3030303030303" y="0.0" name="ogonek"/>
  <anchor x="607.8686868686868" y="1520.0" name="top"/>
  <anchor x="38.10606060606061" y="1480.0" name="topleft"/>
  <outline>
    <contour>
      <point x="156.3838383838384" y="0.0" type="line"/>
      <point x="1024.6161616161617" y="0.0" type="line"/>
      <point x="1024.6161616161617" y="137.4343434343434" type="line"/>
      <point x="313.41414141414134" y="137.4343434343434" type="line"/>
      <point x="313.41414141414134" y="1342.5656565656566" type="line"/>
      <point x="1014.6161616161615" y="1342.5656565656566" type="line"/>
      <point x="1014.6161616161615" y="1480.0" type="line"/>
      <point x="156.3838383838384" y="1480.0" type="line"/>
    </contour>
    <contour>
      <point x="266.66666666666663" y="690.7070707070708" type="line"/>
      <point x="918.9646464646464" y="690.7070707070708" type="line"/>
      <point x="918.9646464646464" y="828.1414141414141" type="line"/>
      <point x="266.66666666666663" y="828.1414141414141" type="line"/>
    </contour>
    <contour>
      <point x="824.020202020202" y="1658.4848484848485" type="curve" smooth="yes"/>
      <point x="887.070707070707" y="1658.4848484848485"/>
      <point x="925.6767676767677" y="1693.2525252525252"/>
      <point x="925.6767676767677" y="1751.4747474747476" type="curve" smooth="yes"/>
      <point x="925.6767676767677" y="1809.6969696969697"/>
      <point x="887.070707070707" y="1845.939393939394"/>
      <point x="824.020202020202" y="1845.939393939394" type="curve" smooth="yes"/>
      <point x="760.969696969697" y="1845.939393939394"/>
      <point x="722.3636363636364" y="1809.6969696969697"/>
      <point x="722.3636363636364" y="1751.4747474747476" type="curve" smooth="yes"/>
      <point x="722.3636363636364" y="1693.2525252525252"/>
      <point x="760.969696969697" y="1658.4848484848485"/>
    </contour>
    <contour>
      <point x="391.7171717171717" y="1658.4848484848485" type="curve" smooth="yes"/>
      <point x="454.76767676767673" y="1658.4848484848485"/>
      <point x="493.37373737373736" y="1693.2525252525252"/>
      <point x="493.37373737373736" y="1751.4747474747476" type="curve" smooth="yes"/>
      <point x="493.37373737373736" y="1809.6969696969697"/>
      <point x="454.76767676767673" y="1845.939393939394"/>
      <point x="391.7171717171717" y="1845.939393939394" type="curve" smooth="yes"/>
      <point x="328.6666666666667" y="1845.939393939394"/>
      <point x="290.0606060606061" y="1809.6969696969697"/>
      <point x="290.0606060606061" y="1751.4747474747476" type="curve" smooth="yes"/>
      <point x="290.0606060606061" y="1693.2525252525252"/>
      <point x="328.6666666666667" y="1658.4848484848485"/>
    </contour>
  </outline>
</glyph>
<glyph name="Igrave" format="2">
  <advance width="471.37373737373736"/>
  <unicode hex="00CC"/>
  <anchor x="235.68686868686868" y="1520.0" name="_top"/>
  <anchor x="235.55555555555554" y="0.0" name="bottom"/>
  <anchor x="314.98989898989896" y="0.0" name="ogonek"/>
  <anchor x="235.68686868686868" y="1520.0" name="top"/>
  <outline>
    <contour>
      <point x="156.3838383838384" y="0.0" type="line"/>
      <point x="314.98989898989896" y="0.0" type="line"/>
      <point x="314.98989898989896" y="1480.0" type="line"/>
      <point x="156.3838383838384" y="1480.0" type="line"/>
    </contour>
    <contour>
      <point x="165.8989898989899" y="1608.1212121212122" type="line"/>
      <point x="305.47474747474746" y="1608.1212121212122" type="line"/>
      <point x="148.4595959595959" y="1891.6767676767677" type="line"/>
      <point x="-18.04040404040402" y="1891.6767676767677" type="line"/>
    </contour>
  </outline>
</glyph>
<glyph name="Iacute" format="2">
  <advance width="471.37373737373736"/>
  <unicode hex="00CD"/>
  <anchor x="235.68686868686868" y="1520.0" name="_top"/>
  <anchor x="235.55555555555554" y="0.0" name="bottom"/>
  <anchor x="314.98989898989896" y="0.0" name="ogonek"/>
  <anchor x="235.68686868686868" y="1520.0" name="top"/>
  <outline>
    <contour>
      <point x="156.3838383838384" y="0.0" type="line"/>
      <point x="314.98989898989896" y="0.0" type="line"/>
      <point x="314.98989898989896" y="1480.0" type="line"/>
      <point x="156.3838383838384" y="1480.0" type="line"/>
    </contour>
    <contour>
      <point x="165.63636363636365" y="1608.1212121212122" type="line"/>
      <point x="305.21212121212113" y="1608.1212121212122" type="line"/>
      <point x="489.15151515151507" y="1891.6767676767677" type="line"/>
      <point x="322.6515151515152" y="1891.6767676767677" type="line"/>
    </contour>
  </outline>
</glyph>
<glyph name="Icircumflex" format="2">
  <advance width="471.37373737373736"/>
  <unicode hex="00CE"/>
  <anchor x="235.68686868686868" y="1520.0" name="_top"/>
  <anchor x="235.55555555555554" y="0.0" name="bottom"/>
  <anchor x="314.98989898989896" y="0.0" name="ogonek"/>
  <anchor x="235.68686868686868" y="1520.0" name="top"/>
  <outline>
    <contour>
      <point x="156.3838383838384" y="0.0" type="line"/>
      <point x="314.98989898989896" y="0.0" type="line"/>
      <point x="314.98989898989896" y="1480.0" type="line"/>
      <point x="156.3838383838384" y="1480.0" type="line"/>
    </contour>
    <contour>
      <point x="-57.212121212121204" y="1608.1212121212122" type="line"/>
      <point x="72.78282828282825" y="1608.1212121212122" type="line"/>
      <point x="250.25757575757575" y="1842.479797979798" type="line"/>
      <point x="221.1161616161616" y="1842.479797979798" type="line"/>
      <point x="398.59090909090907" y="1608.1212121212122" type="line"/>
      <point x="528.5858585858585" y="1608.1212121212122" type="line"/>
      <point x="308.2222222222222" y="1891.6767676767677" type="line"/>
      <point x="163.15151515151516" y="1891.6767676767677" type="line"/>
    </contour>
  </outline>
</glyph>
<glyph name="Idieresis" format="2">
  <advance width="471.37373737373736"/>
  <unicode hex="00CF"/>
  <anchor x="235.68686868686868" y="1520.0" name="_top"/>
  <anchor x="235.55555555555554" y="0.0" name="bottom"/>
  <anchor x="314.98989898989896" y="0.0" name="ogonek"/>
  <anchor x="235.68686868686868" y="1520.0" name="top"/>
  <outline>
    <contour>
      <point x="156.3838383838384" y="0.0" type="line"/>
      <point x="314.98989898989896" y="0.0" type="line"/>
      <point x="314.98989898989896" y="1480.0" type="line"/>
      <point x="156.3838383838384" y="1480.0" type="line"/>
    </contour>
    <contour>
      <point x="451.83838383838383" y="1658.4848484848485" type="curve" smooth="yes"/>
      <point x="514.8888888888888" y="1658.4848484848485"/>
      <point x="553.4949494949494" y="1693.2525252525252"/>
      <point x="553.4949494949494" y="1751.4747474747476" type="curve" smooth="yes"/>
      <point x="553.4949494949494" y="1809.6969696969697"/>
      <point x="514.8888888888888" y="1845.939393939394"/>
      <point x="451.83838383838383" y="1845.939393939394" type="curve" smooth="yes"/>
      <point x="388.78787878787875" y="1845.939393939394"/>
      <point x="350.1818181818182" y="1809.6969696969697"/>
      <point x="350.1818181818182" y="1751.4747474747476" type="curve" smooth="yes"/>
      <point x="350.1818181818182" y="1693.2525252525252"/>
      <point x="388.78787878787875" y="1658.4848484848485"/>
    </contour>
    <contour>
      <point x="19.53535353535353" y="1658.4848484848485" type="curve" smooth="yes"/>
      <point x="82.58585858585856" y="1658.4848484848485"/>
      <point x="121.19191919191915" y="1693.2525252525252"/>
      <point x="121.19191919191915" y="1751.4747474747476" type="curve" smooth="yes"/>
      <point x="121.19191919191915" y="1809.6969696969697"/>
      <point x="82.58585858585856" y="1845.939393939394"/>
      <point x="19.53535353535353" y="1845.939393939394" type="curve" smooth="yes"/>
      <point x="-43.5151515151515" y="1845.939393939394"/>
      <point x="-82.1212121212121" y="1809.6969696969697"/>
      <point x="-82.1212121212121" y="1751.4747474747476" type="curve" smooth="yes"/>
      <point x="-82.1212121212121" y="1693.2525252525252"/>
      <point x="-43.5151515151515" y="1658.4848484848485"/>
    </contour>
  </outline>
</glyph>
<glyph name="Ntilde" format="2">
  <advance width="1376.5"/>
  <unicode hex="00D1"/>
  <anchor x="688.4343434343434" y="1520.0" name="_top"/>
  <anchor x="688.4343434343434" y="0.0" name="bottom"/>
  <anchor x="688.4343434343434" y="1520.0" name="top"/>
  <outline>
    <contour>
      <point x="156.3838383838384" y="0.0" type="line"/>
      <point x="306.5555555555555" y="0.0" type="line"/>
      <point x="306.5555555555555" y="1291.5757575757577" type="line"/>
      <point x="267.0454545454545" y="1291.5757575757577" type="line"/>
      <point x="1056.3737373737374" y="0.0" type="line"/>
      <point x="1220.1161616161617" y="0.0" type="line"/>
      <point x="1220.1161616161617" y="1480.0" type="line"/>
      <point x="1069.9444444444446" y="1480.0" type="line"/>
      <point x="1069.9444444444446" y="188.42424242424232" type="line"/>
      <point x="1109.4545454545455" y="188.42424242424232" type="line"/>
      <point x="320.1262626262626" y="1480.0" type="line"/>
      <point x="156.3838383838384" y="1480.0" type="line"/>
    </contour>
    <contour>
      <point x="835.2020202020202" y="1667.479797979798" type="curve" smooth="yes"/>
      <point x="907.2373737373737" y="1667.479797979798"/>
      <point x="959.5454545454545" y="1690.2171717171718"/>
      <point x="998.4797979797979" y="1732.6565656565656" type="curve"/>
      <point x="998.4797979797979" y="1843.0151515151515" type="line"/>
      <point x="951.4141414141413" y="1794.8838383838383"/>
      <point x="904.4747474747475" y="1771.121212121212"/>
      <point x="836.7777777777777" y="1771.121212121212" type="curve" smooth="yes"/>
      <point x="740.7171717171717" y="1771.121212121212"/>
      <point x="657.5151515151515" y="1848.909090909091"/>
      <point x="541.6666666666666" y="1848.909090909091" type="curve" smooth="yes"/>
      <point x="469.6313131313131" y="1848.909090909091"/>
      <point x="417.32323232323233" y="1825.6464646464647"/>
      <point x="378.3888888888889" y="1783.2070707070707" type="curve"/>
      <point x="378.3888888888889" y="1672.848484848485" type="line"/>
      <point x="425.45454545454544" y="1720.979797979798"/>
      <point x="472.3939393939394" y="1744.7424242424242"/>
      <point x="540.0909090909091" y="1744.7424242424242" type="curve" smooth="yes"/>
      <point x="636.1515151515151" y="1744.7424242424242"/>
      <point x="719.3535353535353" y="1667.479797979798"/>
    </contour>
  </outline>
</glyph>
<glyph name="Ograve" format="2">
  <advance width="1332.7070707070707"/>
  <unicode hex="00D2"/>
  <anchor x="666.3535353535353" y="1520.0" name="_top"/>
  <anchor x="666.3535353535353" y="0.0" name="bottom"/>
  <anchor x="666.3535353535353" y="740.0" name="center"/>
  <anchor x="825.1515151515151" y="0.0" name="ogonek"/>
  <anchor x="666.3535353535353" y="1520.0" name="top"/>
  <anchor x="42.44444444444444" y="1480.0" name="topleft"/>
  <anchor x="827.9343434343434" y="1480.0" name="topright"/>
  <outline>
    <contour>
      <point x="666.3535353535353" y="-18.525252525252526" type="curve" smooth="yes"/>
      <point x="1009.2727272727273" y="-18.525252525252526"/>
      <point x="1236.919191919192" y="197.16666666666666"/>
      <point x="1236.919191919192" y="740.0" type="curve" smooth="yes"/>
      <point x="1236.919191919192" y="1282.8333333333333"/>
      <point x="1010.5101010101009" y="1498.5252525252524"/>
      <point x="666.3535353535353" y="1498.5252525252524" type="curve" smooth="yes"/>
      <point x="323.3030303030303" y="1498.5252525252524"/>
      <point x="95.7878787878788" y="1283.0959595959596"/>
      <point x="95.7878787878788" y="740.0" type="curve" smooth="yes"/>
      <point x="95.7878787878788" y="196.9040404040404"/>
      <point x="322.3282828282828" y="-18.525252525252526"/>
    </contour>
    <contour>
      <point x="666.3535353535353" y="118.48989898989893" type="curve" smooth="yes"/>
      <point x="420.040404040404" y="118.48989898989893"/>
      <point x="260.2323232323232" y="271.5959595959596"/>
      <point x="260.2323232323232" y="745.0505050505051" type="curve" smooth="yes"/>
      <point x="260.2323232323232" y="1208.4040404040404"/>
      <point x="420.4343434343434" y="1361.5101010101012"/>
      <point x="666.3535353535353" y="1361.5101010101012" type="curve" smooth="yes"/>
      <point x="912.2727272727273" y="1361.5101010101012"/>
      <point x="1072.4747474747476" y="1208.0101010101012"/>
      <point x="1072.4747474747476" y="734.9494949494949" type="curve" smooth="yes"/>
      <point x="1072.4747474747476" y="271.98989898989896"/>
      <point x="912.6666666666666" y="118.48989898989893"/>
    </contour>
    <contour>
      <point x="596.5656565656566" y="1608.1212121212122" type="line"/>
      <point x="736.1414141414141" y="1608.1212121212122" type="line"/>
      <point x="579.1262626262626" y="1891.6767676767677" type="line"/>
      <point x="412.62626262626264" y="1891.6767676767677" type="line"/>
    </contour>
  </outline>
</glyph>
<glyph name="Otilde" format="2">
  <advance width="1332.7070707070707"/>
  <unicode hex="00D5"/>
  <anchor x="666.3535353535353" y="1520.0" name="_top"/>
  <anchor x="666.3535353535353" y="0.0" name="bottom"/>
  <anchor x="666.3535353535353" y="740.0" name="center"/>
  <anchor x="825.1515151515151" y="0.0" name="ogonek"/>
  <anchor x="666.3535353535353" y="1520.0" name="top"/>
  <anchor x="42.44444444444444" y="1480.0" name="topleft"/>
  <anchor x="827.9343434343434" y="1480.0" name="topright"/>
  <outline>
    <contour>
      <point x="666.3535353535353" y="-18.525252525252526" type="curve" smooth="yes"/>
      <point x="1009.2727272727273" y="-18.525252525252526"/>
      <point x="1236.919191919192" y="197.16666666666666"/>
      <point x="1236.919191919192" y="740.0" type="curve" smooth="yes"/>
      <point x="1236.919191919192" y="1282.8333333333333"/>
      <point x="1010.5101010101009" y="1498.5252525252524"/>
      <point x="666.3535353535353" y="1498.5252525252524" type="curve" smooth="yes"/>
      <point x="323.3030303030303" y="1498.5252525252524"/>
      <point x="95.7878787878788" y="1283.0959595959596"/>
      <point x="95.7878787878788" y="740.0" type="curve" smooth="yes"/>
      <point x="95.7878787878788" y="196.9040404040404"/>
      <point x="322.3282828282828" y="-18.525252525252526"/>
    </contour>
    <contour>
      <point x="666.3535353535353" y="118.48989898989893" type="curve" smooth="yes"/>
      <point x="420.040404040404" y="118.48989898989893"/>
      <point x="260.2323232323232" y="271.5959595959596"/>
      <point x="260.2323232323232" y="745.0505050505051" type="curve" smooth="yes"/>
      <point x="260.2323232323232" y="1208.4040404040404"/>
      <point x="420.4343434343434" y="1361.5101010101012"/>
      <point x="666.3535353535353" y="1361.5101010101012" type="curve" smooth="yes"/>
      <point x="912.2727272727273" y="1361.5101010101012"/>
      <point x="1072.4747474747476" y="1208.0101010101012"/>
      <point x="1072.4747474747476" y="734.9494949494949" type="curve" smooth="yes"/>
      <point x="1072.4747474747476" y="271.98989898989896"/>
      <point x="912.6666666666666" y="118.48989898989893"/>
    </contour>
    <contour>
      <point x="813.1212121212121" y="1667.479797979798" type="curve" smooth="yes"/>
      <point x="885.1565656565656" y="1667.479797979798"/>
      <point x="937.4646464646464" y="1690.2171717171718"/>
      <point x="976.3989898989898" y="1732.6565656565656" type="curve"/>
      <point x="976.3989898989898" y="1843.0151515151515" type="line"/>
      <point x="929.3333333333333" y="1794.8838383838383"/>
      <point x="882.3939393939394" y="1771.121212121212"/>
      <point x="814.6969696969696" y="1771.121212121212" type="curve" smooth="yes"/>
      <point x="718.6363636363636" y="1771.121212121212"/>
      <point x="635.4343434343434" y="1848.909090909091"/>
      <point x="519.5858585858585" y="1848.909090909091" type="curve" smooth="yes"/>
      <point x="447.550505050505" y="1848.909090909091"/>
      <point x="395.24242424242425" y="1825.6464646464647"/>
      <point x="356.30808080808083" y="1783.2070707070707" type="curve"/>
      <point x="356.30808080808083" y="1672.848484848485" type="line"/>
      <point x="403.37373737373736" y="1720.979797979798"/>
      <point x="450.3131313131313" y="1744.7424242424242"/>
      <point x="518.010101010101" y="1744.7424242424242" type="curve" smooth="yes"/>
      <point x="614.070707070707" y="1744.7424242424242"/>
      <point x="697.2727272727273" y="1667.479797979798"/>
    </contour>
  </outline>
</glyph>
<glyph name="multiply" format="2">
  <advance width="981.959595959596"/>
  <unicode hex="00D7"/>
  <outline>
    <contour>
      <point x="201.36363636363635" y="380.42424242424244" type="line"/>
      <point x="490.979797979798" y="670.040404040404" type="line"/>
      <point x="780.5959595959596" y="380.42424242424244" type="line"/>
      <point x="870.5555555555555" y="470.3838383838384" type="line"/>
      <point x="580.9393939393939" y="760.0" type="line"/>
      <point x="870.5555555555555" y="1049.6161616161617" type="line"/>
      <point x="780.5959595959596" y="1139.5757575757575" type="line"/>
      <point x="490.979797979798" y="849.959595959596" type="line"/>
      <point x="201.36363636363635" y="1139.5757575757575" type="line"/>
      <point x="111.40404040404042" y="1049.6161616161617" type="line"/>
      <point x="401.0202020202021" y="760.0" type="line"/>
      <point x="111.40404040404042" y="470.3838383838384" type="line"/>
    </contour>
  </outline>
</glyph>
<glyph name="Ucircumflex" format="2">
  <advance width="1326.3636363636363"/>
  <unicode hex="00DB"/>
  <anchor x="665.1666666666666" y="1520.0" name="_top"/>
  <anchor x="665.1666666666666" y="0.0" name="bottom"/>
  <anchor x="825.020202020202" y="0.7373737373737376" name="ogonek"/>
  <anchor x="665.1666666666666" y="1520.0" name="top"/>
  <anchor x="1035.8181818181818" y="1480.0" name="topright"/>
  <outline>
    <contour>
      <point x="665.1666666666666" y="-18.525252525252526" type="curve" smooth="yes"/>
      <point x="1019.8787878787879" y="-18.525252525252526"/>
      <point x="1177.4545454545455" y="156.4040404040404"/>
      <point x="1177.4545454545455" y="540.9646464646464" type="curve" smooth="yes"/>
      <point x="1177.4545454545455" y="1480.0" type="line"/>
      <point x="1022.4242424242425" y="1480.0" type="line"/>
      <point x="1022.4242424242425" y="522.429292929293" type="line" smooth="yes"/>
      <point x="1022.4242424242425" y="243.99999999999997"/>
      <point x="913.929292929293" y="119.43434343434339"/>
      <point x="665.1666666666666" y="119.43434343434339" type="curve" smooth="yes"/>
      <point x="416.40404040404036" y="119.43434343434339"/>
      <point x="307.51515151515144" y="243.99999999999997"/>
      <point x="307.51515151515144" y="522.429292929293" type="curve" smooth="yes"/>
      <point x="307.51515151515144" y="1480.0" type="line"/>
      <point x="148.90909090909093" y="1480.0" type="line"/>
      <point x="148.90909090909093" y="540.9646464646464" type="line" smooth="yes"/>
      <point x="148.90909090909093" y="156.4040404040404"/>
      <point x="309.01010101010104" y="-18.525252525252526"/>
    </contour>
    <contour>
      <point x="372.2676767676768" y="1608.1212121212122" type="line"/>
      <point x="502.2626262626262" y="1608.1212121212122" type="line"/>
      <point x="679.7373737373737" y="1842.479797979798" type="line"/>
      <point x="650.5959595959596" y="1842.479797979798" type="line"/>
      <point x="828.070707070707" y="1608.1212121212122" type="line"/>
      <point x="958.0656565656566" y="1608.1212121212122" type="line"/>
      <point x="737.7020202020202" y="1891.6767676767677" type="line"/>
      <point x="592.6313131313132" y="1891.6767676767677" type="line"/>
    </contour>
  </outline>
</glyph>
<glyph name="Udieresis" format="2">
  <advance width="1326.3636363636363"/>
  <unicode hex="00DC"/>
  <anchor x="665.1666666666666" y="1520.0" name="_top"/>
  <anchor x="665.1666666666666" y="0.0" name="bottom"/>
  <anchor x="825.020202020202" y="0.7373737373737376" name="ogonek"/>
  <anchor x="665.1666666666666" y="1520.0" name="top"/>
  <anchor x="1035.8181818181818" y="1480.0" name="topright"/>
  <outline>
    <contour>
      <point x="665.1666666666666" y="-18.525252525252526" type="curve" smooth="yes"/>
      <point x="1019.8787878787879" y="-18.525252525252526"/>
      <point x="1177.4545454545455" y="156.4040404040404"/>
      <point x="1177.4545454545455" y="540.9646464646464" type="curve" smooth="yes"/>
      <point x="1177.4545454545455" y="1480.0" type="line"/>
      <point x="1022.4242424242425" y="1480.0" type="line"/>
      <point x="1022.4242424242425" y="522.429292929293" type="line" smooth="yes"/>
      <point x="1022.4242424242425" y="243.99999999999997"/>
      <point x="913.929292929293" y="119.43434343434339"/>
      <point x="665.1666666666666" y="119.43434343434339" type="curve" smooth="yes"/>
      <point x="416.40404040404036" y="119.43434343434339"/>
      <point x="307.51515151515144" y="243.99999999999997"/>
      <point x="307.51515151515144" y="522.429292929293" type="curve" smooth="yes"/>
      <point x="307.51515151515144" y="1480.0" type="line"/>
      <point x="148.90909090909093" y="1480.0" type="line"/>
      <point x="148.90909090909093" y="540.9646464646464" type="line" smooth="yes"/>
      <point x="148.90909090909093" y="156.4040404040404"/>
      <point x="309.01010101010104" y="-18.525252525252526"/>
    </contour>
    <contour>
      <point x="881.3181818181818" y="1658.4848484848485" type="curve" smooth="yes"/>
      <point x="944.3686868686868" y="1658.4848484848485"/>
      <point x="982.9747474747475" y="1693.2525252525252"/>
      <point x="982.9747474747475" y="1751.4747474747476" type="curve" smooth="yes"/>
      <point x="982.9747474747475" y="1809.6969696969697"/>
      <point x="944.3686868686868" y="1845.939393939394"/>
      <point x="881.3181818181818" y="1845.939393939394" type="curve" smooth="yes"/>
      <point x="818.2676767676768" y="1845.939393939394"/>
      <point x="779.6616161616162" y="1809.6969696969697"/>
      <point x="779.6616161616162" y="1751.4747474747476" type="curve" smooth="yes"/>
      <point x="779.6616161616162" y="1693.2525252525252"/>
      <point x="818.2676767676768" y="1658.4848484848485"/>
    </contour>
    <contour>
      <point x="449.0151515151515" y="1658.4848484848485" type="curve" smooth="yes"/>
      <point x="512.0656565656566" y="1658.4848484848485"/>
      <point x="550.6717171717171" y="1693.2525252525252"/>
      <point x="550.6717171717171" y="1751.4747474747476" type="curve" smooth="yes"/>
      <point x="550.6717171717171" y="1809.6969696969697"/>
      <point x="512.0656565656566" y="1845.939393939394"/>
      <point x="449.0151515151515" y="1845.939393939394" type="curve" smooth="yes"/>
      <point x="385.9646464646465" y="1845.939393939394"/>
      <point x="347.3585858585859" y="1809.6969696969697"/>
      <point x="347.3585858585859" y="1751.4747474747476" type="curve" smooth="yes"/>
      <point x="347.3585858585859" y="1693.2525252525252"/>
      <point x="385.9646464646465" y="1658.4848484848485"/>
    </contour>
  </outline>
</glyph>
<glyph name="Yacute" format="2">
  <advance width="1105.4848484848485"/>
  <unicode hex="00DD"/>
  <anchor x="553.2020202020202" y="1520.0" name="_top"/>
  <anchor x="552.8080808080808" y="0.0" name="bottom"/>
  <anchor x="553.2020202020202" y="1520.0" name="top"/>
  <anchor x="1.313131313131322" y="1480.0" name="topleft"/>
  <outline>
    <contour>
      <point x="473.8989898989899" y="0.0" type="line"/>
      <point x="632.5050505050505" y="0.0" type="line"/>
      <point x="632.5050505050505" y="724.3080808080808" type="line"/>
      <point x="598.1717171717171" y="601.969696969697" type="line"/>
      <point x="1130.3282828282827" y="1480.0" type="line"/>
      <point x="968.0252525252525" y="1480.0" type="line"/>
      <point x="530.8484848484849" y="761.0" type="line"/>
      <point x="582.070707070707" y="761.0" type="line"/>
      <point x="139.83838383838378" y="1480.0" type="line"/>
      <point x="-33.23737373737373" y="1480.0" type="line"/>
      <point x="508.2323232323232" y="601.969696969697" type="line"/>
      <point x="473.8989898989899" y="725.8838383838383" type="line"/>
    </contour>
    <contour>
      <point x="483.1515151515152" y="1608.1212121212122" type="line"/>
      <point x="622.7272727272726" y="1608.1212121212122" type="line"/>
      <point x="806.6666666666665" y="1891.6767676767677" type="line"/>
      <point x="640.1666666666666" y="1891.6767676767677" type="line"/>
    </contour>
  </outline>
</glyph>
<glyph name="Thorn" format="2">
  <advance width="1175.3535353535353"/>
  <unicode hex="00DE"/>
  <outline>
    <contour>
      <point x="156.3838383838384" y="0.0" type="line"/>
      <point x="314.98989898989896" y="0.0" type="line"/>
      <point x="314.98989898989896" y="262.45959595959596" type="line"/>
      <point x="374.69191919191917" y="257.2979797979798"/>
      <point x="427.550505050505" y="254.92929292929296"/>
      <point x="490.17171717171715" y="254.92929292929296" type="curve" smooth="yes"/>
      <point x="892.1717171717171" y="254.92929292929296"/>
      <point x="1080.7525252525252" y="429.5"/>
      <point x="1080.7525252525252" y="759.6313131313132" type="curve" smooth="yes"/>
      <point x="1080.7525252525252" y="1108.3686868686868"/>
      <point x="887.2222222222222" y="1265.4646464646464"/>
      <point x="511.5353535353535" y="1265.4646464646464" type="curve" smooth="yes"/>
      <point x="435.28282828282823" y="1265.4646464646464"/>
      <point x="364.69696969696963" y="1258.3030303030303"/>
      <point x="314.98989898989896" y="1250.9292929292928" type="curve"/>
      <point x="314.98989898989896" y="1480.3686868686868" type="line"/>
      <point x="156.3838383838384" y="1480.3686868686868" type="line"/>
    </contour>
    <contour>
      <point x="493.48989898989896" y="386.8484848484848" type="curve" smooth="yes"/>
      <point x="429.0" y="386.8484848484848"/>
      <point x="372.9545454545454" y="389.58585858585855"/>
      <point x="314.98989898989896" y="397.27272727272725" type="curve"/>
      <point x="314.98989898989896" y="1117.4343434343434" type="line"/>
      <point x="379.0151515151515" y="1127.858585858586"/>
      <point x="444.20202020202015" y="1133.5454545454545"/>
      <point x="520.5959595959596" y="1133.5454545454545" type="curve" smooth="yes"/>
      <point x="792.939393939394" y="1133.5454545454545"/>
      <point x="922.7424242424242" y="1020.5151515151515"/>
      <point x="922.7424242424242" y="756.2626262626262" type="curve" smooth="yes"/>
      <point x="922.7424242424242" y="503.88888888888886"/>
      <point x="790.7272727272727" y="386.8484848484848"/>
    </contour>
  </outline>
</glyph>
<glyph name="germandbls" format="2">
  <advance width="1300.181818181818"/>
  <unicode hex="00DF"/>
  <outline>
    <contour>
      <point x="839.2424242424242" y="-19.05050505050505" type="curve" smooth="yes"/>
      <point x="1097.4545454545455" y="-19.05050505050505"/>
      <point x="1240.0" y="100.82828282828282"/>
      <point x="1240.0" y="298.04040404040404" type="curve" smooth="yes"/>
      <point x="1240.0" y="456.27272727272725"/>
      <point x="1167.7070707070707" y="548.9343434343434"/>
      <point x="975.5101010101009" y="595.4949494949494" type="curve" smooth="yes"/>
      <point x="847.020202020202" y="624.8585858585858" type="line" smooth="yes"/>
      <point x="739.3636363636363" y="651.530303030303"/>
      <point x="695.2373737373737" y="704.2979797979798"/>
      <point x="695.2373737373737" y="793.1616161616162" type="curve" smooth="yes"/>
      <point x="695.2373737373737" y="893.1060606060606"/>
      <point x="767.1363636363635" y="973.6666666666667"/>
      <point x="960.550505050505" y="973.6666666666667" type="curve" smooth="yes"/>
      <point x="1020.0050505050505" y="973.6666666666667"/>
      <point x="1058.969696969697" y="968.3484848484849"/>
      <point x="1099.7575757575758" y="960.2676767676768" type="curve"/>
      <point x="1113.4343434343434" y="1014.1363636363636"/>
      <point x="1127.4848484848485" y="1099.1313131313132"/>
      <point x="1127.4848484848485" y="1177.8535353535353" type="curve" smooth="yes"/>
      <point x="1127.4848484848485" y="1504.9141414141413"/>
      <point x="941.020202020202" y="1636.0"/>
      <point x="689.3131313131313" y="1636.0" type="curve" smooth="yes"/>
      <point x="389.2171717171717" y="1636.0"/>
      <point x="207.58080808080808" y="1465.419191919192"/>
      <point x="207.58080808080808" y="1122.6060606060607" type="curve" smooth="yes"/>
      <point x="207.58080808080808" y="0.0" type="line"/>
      <point x="364.21717171717165" y="0.0" type="line"/>
      <point x="364.21717171717165" y="1118.8383838383838" type="line" smooth="yes"/>
      <point x="364.21717171717165" y="1404.2474747474748"/>
      <point x="486.1616161616161" y="1513.5353535353536"/>
      <point x="697.9292929292928" y="1513.5353535353536" type="curve" smooth="yes"/>
      <point x="872.8434343434343" y="1513.5353535353536"/>
      <point x="1005.4444444444445" y="1429.9444444444446"/>
      <point x="1005.0757575757575" y="1181.2626262626263" type="curve" smooth="yes"/>
      <point x="1005.0757575757575" y="1126.378787878788"/>
      <point x="997.8939393939394" y="1072.3333333333333"/>
      <point x="986.7929292929293" y="1021.9747474747475" type="curve"/>
      <point x="1073.0" y="1088.20202020202" type="line"/>
      <point x="1033.3939393939393" y="1094.7828282828282"/>
      <point x="980.9696969696969" y="1097.1515151515152"/>
      <point x="947.0252525252524" y="1097.1515151515152" type="curve" smooth="yes"/>
      <point x="681.3434343434343" y="1097.1515151515152"/>
      <point x="546.0808080808081" y="970.4191919191919"/>
      <point x="546.0808080808081" y="788.9242424242424" type="curve" smooth="yes"/>
      <point x="546.0808080808081" y="636.1868686868687"/>
      <point x="619.8535353535353" y="539.3232323232323"/>
      <point x="805.9343434343434" y="495.34343434343435" type="curve" smooth="yes"/>
      <point x="934.4242424242424" y="465.979797979798" type="line" smooth="yes"/>
      <point x="1042.080808080808" y="439.30808080808083"/>
      <point x="1090.8434343434344" y="392.7828282828283"/>
      <point x="1090.8434343434344" y="291.4646464646464" type="curve" smooth="yes"/>
      <point x="1090.8434343434344" y="175.22222222222217"/>
      <point x="1011.2020202020202" y="109.060606060606"/>
      <point x="836.8232323232323" y="109.060606060606" type="curve" smooth="yes"/>
      <point x="750.3636363636363" y="109.060606060606"/>
      <point x="663.4949494949494" y="120.76767676767673"/>
      <point x="568.070707070707" y="149.19191919191914" type="curve"/>
      <point x="568.070707070707" y="19.474747474747474" type="line"/>
      <point x="652.7676767676768" y="-6.787878787878787"/>
      <point x="744.3787878787879" y="-19.05050505050505"/>
    </contour>
    <contour>
      <point x="13.338383838383837" y="953.0707070707072" type="line"/>
      <point x="283.26262626262627" y="953.0707070707072" type="line"/>
      <point x="283.26262626262627" y="1085.2525252525252" type="line"/>
      <point x="13.338383838383837" y="1085.2525252525252" type="line"/>
    </contour>
  </outline>
</glyph>
<glyph name="agrave" format="2">
  <advance width="961.8535353535353"/>
  <unicode hex="00E0"/>
  <anchor x="476.3989898989899" y="1200.0" name="_top"/>
  <anchor x="483.0353535353535" y="0.0" name="bottom"/>
  <anchor x="833.2676767676767" y="0.0" name="ogonek"/>
  <anchor x="476.3989898989899" y="1200.0" name="top"/>
  <outline>
    <contour>
      <point x="390.32323232323233" y="-17.575757575757574" type="curve" smooth="yes"/>
      <point x="509.2525252525253" y="-17.575757575757574"/>
      <point x="614.2878787878788" y="28.484848484848488"/>
      <point x="680.0858585858585" y="120.14141414141415" type="curve"/>
      <point x="690.4494949494949" y="120.14141414141415" type="line"/>
      <point x="702.3585858585859" y="0.0" type="line"/>
      <point x="833.2676767676767" y="0.0" type="line"/>
      <point x="833.2676767676767" y="717.959595959596" type="line" smooth="yes"/>
      <point x="833.2676767676767" y="1007.010101010101"/>
      <point x="699.9141414141413" y="1101.7777777777778"/>
      <point x="440.43939393939394" y="1101.7777777777778" type="curve" smooth="yes"/>
      <point x="346.5050505050505" y="1101.7777777777778"/>
      <point x="231.25757575757575" y="1085.8030303030303"/>
      <point x="145.4848484848485" y="1056.590909090909" type="curve"/>
      <point x="145.4848484848485" y="925.429292929293" type="line"/>
      <point x="240.64646464646466" y="957.5656565656566"/>
      <point x="341.24747474747477" y="971.3030303030304"/>
      <point x="418.82323232323233" y="971.3030303030304" type="curve" smooth="yes"/>
      <point x="593.2272727272727" y="971.3030303030304"/>
      <point x="679.6515151515151" y="917.5050505050506"/>
      <point x="679.6515151515151" y="724.8686868686868" type="curve" smooth="yes"/>
      <point x="679.6515151515151" y="238.59595959595958" type="line"/>
      <point x="609.7272727272727" y="139.95959595959593"/>
      <point x="516.2626262626262" y="105.93939393939391"/>
      <point x="431.59090909090907" y="105.93939393939391" type="curve" smooth="yes"/>
      <point x="306.0151515151515" y="105.93939393939391"/>
      <point x="238.07070707070702" y="168.1464646464646"/>
      <point x="238.07070707070702" y="293.59090909090907" type="curve" smooth="yes"/>
      <point x="238.07070707070702" y="411.6060606060606"/>
      <point x="306.9090909090909" y="477.6010101010101"/>
      <point x="466.3080808080808" y="493.8989898989899" type="curve" smooth="yes"/>
      <point x="737.7020202020202" y="522.439393939394" type="line"/>
      <point x="719.7777777777778" y="628.489898989899" type="line"/>
      <point x="455.3080808080808" y="599.9494949494949" type="line" smooth="yes"/>
      <point x="194.0959595959596" y="575.2878787878788"/>
      <point x="79.76767676767678" y="468.45959595959596"/>
      <point x="79.76767676767678" y="277.2676767676768" type="curve" smooth="yes"/>
      <point x="79.76767676767678" y="91.35353535353535"/>
      <point x="201.6818181818182" y="-17.575757575757574"/>
    </contour>
    <contour>
      <point x="406.74242424242425" y="1252.4444444444443" type="line"/>
      <point x="546.0555555555555" y="1252.4444444444443" type="line"/>
      <point x="356.8939393939394" y="1616.0" type="line"/>
      <point x="191.81313131313135" y="1616.0" type="line"/>
    </contour>
  </outline>
</glyph>
<glyph name="atilde" format="2">
  <advance width="961.8535353535353"/>
  <unicode hex="00E3"/>
  <anchor x="476.3989898989899" y="1200.0" name="_top"/>
  <anchor x="483.0353535353535" y="0.0" name="bottom"/>
  <anchor x="833.2676767676767" y="0.0" name="ogonek"/>
  <anchor x="476.3989898989899" y="1200.0" name="top"/>
  <outline>
    <contour>
      <point x="390.32323232323233" y="-17.575757575757574" type="curve" smooth="yes"/>
      <point x="509.2525252525253" y="-17.575757575757574"/>
      <point x="614.2878787878788" y="28.484848484848488"/>
      <point x="680.0858585858585" y="120.14141414141415" type="curve"/>
      <point x="690.4494949494949" y="120.14141414141415" type="line"/>
      <point x="702.3585858585859" y="0.0" type="line"/>
      <point x="833.2676767676767" y="0.0" type="line"/>
      <point x="833.2676767676767" y="717.959595959596" type="line" smooth="yes"/>
      <point x="833.2676767676767" y="1007.010101010101"/>
      <point x="699.9141414141413" y="1101.7777777777778"/>
      <point x="440.43939393939394" y="1101.7777777777778" type="curve" smooth="yes"/>
      <point x="346.5050505050505" y="1101.7777777777778"/>
      <point x="231.25757575757575" y="1085.8030303030303"/>
      <point x="145.4848484848485" y="1056.590909090909" type="curve"/>
      <point x="145.4848484848485" y="925.429292929293" type="line"/>
      <point x="240.64646464646466" y="957.5656565656566"/>
      <point x="341.24747474747477" y="971.3030303030304"/>
      <point x="418.82323232323233" y="971.3030303030304" type="curve" smooth="yes"/>
      <point x="593.2272727272727" y="971.3030303030304"/>
      <point x="679.6515151515151" y="917.5050505050506"/>
      <point x="679.6515151515151" y="724.8686868686868" type="curve" smooth="yes"/>
      <point x="679.6515151515151" y="238.59595959595958" type="line"/>
      <point x="609.7272727272727" y="139.95959595959593"/>
      <point x="516.2626262626262" y="105.93939393939391"/>
      <point x="431.59090909090907" y="105.93939393939391" type="curve" smooth="yes"/>
      <point x="306.0151515151515" y="105.93939393939391"/>
      <point x="238.07070707070702" y="168.1464646464646"/>
      <point x="238.07070707070702" y="293.59090909090907" type="curve" smooth="yes"/>
      <point x="238.07070707070702" y="411.6060606060606"/>
      <point x="306.9090909090909" y="477.6010101010101"/>
      <point x="466.3080808080808" y="493.8989898989899" type="curve" smooth="yes"/>
      <point x="737.7020202020202" y="522.439393939394" type="line"/>
      <point x="719.7777777777778" y="628.489898989899" type="line"/>
      <point x="455.3080808080808" y="599.9494949494949" type="line" smooth="yes"/>
      <point x="194.0959595959596" y="575.2878787878788"/>
      <point x="79.76767676767678" y="468.45959595959596"/>
      <point x="79.76767676767678" y="277.2676767676768" type="curve" smooth="yes"/>
      <point x="79.76767676767678" y="91.35353535353535"/>
      <point x="201.6818181818182" y="-17.575757575757574"/>
    </contour>
    <contour>
      <point x="612.1161616161615" y="1345.2020202020203" type="curve" smooth="yes"/>
      <point x="679.10101010101" y="1345.2020202020203"/>
      <point x="731.4090909090909" y="1368.5959595959596"/>
      <point x="770.3434343434343" y="1412.3484848484848" type="curve"/>
      <point x="770.3434343434343" y="1527.828282828283" type="line"/>
      <point x="723.2777777777777" y="1475.888888888889"/>
      <point x="676.3383838383838" y="1451.3383838383838"/>
      <point x="613.6919191919192" y="1451.3383838383838" type="curve" smooth="yes"/>
      <point x="528.6818181818181" y="1451.3383838383838"/>
      <point x="445.479797979798" y="1533.7222222222222"/>
      <point x="340.6818181818182" y="1533.7222222222222" type="curve" smooth="yes"/>
      <point x="273.6969696969697" y="1533.7222222222222"/>
      <point x="221.38888888888889" y="1510.328282828283"/>
      <point x="182.45454545454547" y="1466.5757575757575" type="curve"/>
      <point x="182.45454545454547" y="1351.0959595959596" type="line"/>
      <point x="229.52020202020202" y="1403.0353535353536"/>
      <point x="276.45959595959596" y="1427.5858585858587"/>
      <point x="339.1060606060606" y="1427.5858585858587" type="curve" smooth="yes"/>
      <point x="424.1161616161616" y="1427.5858585858587"/>
      <point x="507.3181818181818" y="1345.2020202020203"/>
    </contour>
  </outline>
</glyph>
<glyph name="aring" format="2">
  <advance width="961.8535353535353"/>
  <unicode hex="00E5"/>
  <anchor x="476.3989898989899" y="1200.0" name="_top"/>
  <anchor x="483.0353535353535" y="0.0" name="bottom"/>
  <anchor x="833.2676767676767" y="0.0" name="ogonek"/>
  <anchor x="476.3989898989899" y="1200.0" name="top"/>
  <outline>
    <contour>
      <point x="390.32323232323233" y="-17.575757575757574" type="curve" smooth="yes"/>
      <point x="509.2525252525253" y="-17.575757575757574"/>
      <point x="614.2878787878788" y="28.484848484848488"/>
      <point x="680.0858585858585" y="120.14141414141415" type="curve"/>
      <point x="690.4494949494949" y="120.14141414141415" type="line"/>
      <point x="702.3585858585859" y="0.0" type="line"/>
      <point x="833.2676767676767" y="0.0" type="line"/>
      <point x="833.2676767676767" y="717.959595959596" type="line" smooth="yes"/>
      <point x="833.2676767676767" y="1007.010101010101"/>
      <point x="699.9141414141413" y="1101.7777777777778"/>
      <point x="440.43939393939394" y="1101.7777777777778" type="curve" smooth="yes"/>
      <point x="346.5050505050505" y="1101.7777777777778"/>
      <point x="231.25757575757575" y="1085.8030303030303"/>
      <point x="145.4848484848485" y="1056.590909090909" type="curve"/>
      <point x="145.4848484848485" y="925.429292929293" type="line"/>
      <point x="240.64646464646466" y="957.5656565656566"/>
      <point x="341.24747474747477" y="971.3030303030304"/>
      <point x="418.82323232323233" y="971.3030303030304" type="curve" smooth="yes"/>
      <point x="593.2272727272727" y="971.3030303030304"/>
      <point x="679.6515151515151" y="917.5050505050506"/>
      <point x="679.6515151515151" y="724.8686868686868" type="curve" smooth="yes"/>
      <point x="679.6515151515151" y="238.59595959595958" type="line"/>
      <point x="609.7272727272727" y="139.95959595959593"/>
      <point x="516.2626262626262" y="105.93939393939391"/>
      <point x="431.59090909090907" y="105.93939393939391" type="curve" smooth="yes"/>
      <point x="306.0151515151515" y="105.93939393939391"/>
      <point x="238.07070707070702" y="168.1464646464646"/>
      <point x="238.07070707070702" y="293.59090909090907" type="curve" smooth="yes"/>
      <point x="238.07070707070702" y="411.6060606060606"/>
      <point x="306.9090909090909" y="477.6010101010101"/>
      <point x="466.3080808080808" y="493.8989898989899" type="curve" smooth="yes"/>
      <point x="737.7020202020202" y="522.439393939394" type="line"/>
      <point x="719.7777777777778" y="628.489898989899" type="line"/>
      <point x="455.3080808080808" y="599.9494949494949" type="line" smooth="yes"/>
      <point x="194.0959595959596" y="575.2878787878788"/>
      <point x="79.76767676767678" y="468.45959595959596"/>
      <point x="79.76767676767678" y="277.2676767676768" type="curve" smooth="yes"/>
      <point x="79.76767676767678" y="91.35353535353535"/>
      <point x="201.6818181818182" y="-17.575757575757574"/>
    </contour>
    <contour>
      <point x="476.3989898989899" y="1247.919191919192" type="curve" smooth="yes"/>
      <point x="589.2272727272727" y="1247.919191919192"/>
      <point x="671.9545454545454" y="1329.5959595959596"/>
      <point x="671.9545454545454" y="1441.3737373737374" type="curve" smooth="yes"/>
      <point x="671.9545454545454" y="1553.1515151515152"/>
      <point x="589.2272727272727" y="1634.828282828283"/>
      <point x="476.3989898989899" y="1634.828282828283" type="curve" smooth="yes"/>
      <point x="363.57070707070704" y="1634.828282828283"/>
      <point x="280.84343434343435" y="1553.1515151515152"/>
      <point x="280.84343434343435" y="1441.3737373737374" type="curve" smooth="yes"/>
      <point x="280.84343434343435" y="1329.5959595959596"/>
      <point x="363.57070707070704" y="1247.919191919192"/>
    </contour>
    <contour>
      <point x="476.3989898989899" y="1322.5050505050506" type="curve" smooth="yes"/>
      <point x="408.27777777777777" y="1322.5050505050506"/>
      <point x="360.05555555555554" y="1367.7777777777778"/>
      <point x="360.05555555555554" y="1441.3737373737374" type="curve" smooth="yes"/>
      <point x="360.05555555555554" y="1514.969696969697"/>
      <point x="408.27777777777777" y="1560.2424242424242"/>
      <point x="476.3989898989899" y="1560.2424242424242" type="curve" smooth="yes"/>
      <point x="544.520202020202" y="1560.2424242424242"/>
      <point x="592.7424242424242" y="1514.969696969697"/>
      <point x="592.7424242424242" y="1441.3737373737374" type="curve" smooth="yes"/>
      <point x="592.7424242424242" y="1367.7777777777778"/>
      <point x="544.520202020202" y="1322.5050505050506"/>
    </contour>
  </outline>
</glyph>
